M48
; DRILL file {KiCad 9.0.1} date 2025-05-24T18:06:30+0200
; FORMAT={-:-/ absolute / metric / decimal}
; #@! TF.CreationDate,2025-05-24T18:06:30+02:00
; #@! TF.GenerationSoftware,Kicad,Pcbnew,9.0.1
; #@! TF.FileFunction,Plated,1,2,PTH
FMAT,2
METRIC
; #@! TA.AperFunction,Plated,PTH,ViaDrill
T1C0.300
; #@! TA.AperFunction,Plated,PTH,ComponentDrill
T2C0.750
; #@! TA.AperFunction,Plated,PTH,ComponentDrill
T3C1.100
; #@! TA.AperFunction,Plated,PTH,ComponentDrill
T4C1.850
%
G90
G05
T1
X160.0Y-107.0
X160.0Y-108.5
X161.5Y-107.0
X161.5Y-108.5
X167.5Y-52.5
X167.5Y-54.0
X167.5Y-55.5
X167.5Y-60.0
X167.5Y-60.0
X167.5Y-61.5
X167.5Y-63.0
X169.0Y-52.5
X169.0Y-54.0
X169.0Y-55.5
X169.0Y-60.0
X169.0Y-60.0
X169.0Y-61.5
X169.0Y-63.0
X170.5Y-52.5
X170.5Y-54.0
X170.5Y-55.5
X170.5Y-60.0
X170.5Y-60.0
X170.5Y-61.5
X170.5Y-63.0
X170.5Y-103.0
X170.5Y-104.5
X170.5Y-106.0
X170.5Y-110.0
X170.5Y-111.5
X170.5Y-113.0
X172.0Y-52.5
X172.0Y-54.0
X172.0Y-55.5
X172.0Y-60.0
X172.0Y-60.0
X172.0Y-61.5
X172.0Y-63.0
X172.0Y-103.0
X172.0Y-104.5
X172.0Y-106.0
X172.0Y-110.0
X172.0Y-111.5
X172.0Y-113.0
X173.5Y-52.5
X173.5Y-54.0
X173.5Y-55.5
X173.5Y-60.0
X173.5Y-60.0
X173.5Y-61.5
X173.5Y-63.0
X173.5Y-103.0
X173.5Y-104.5
X173.5Y-106.0
X173.5Y-110.0
X173.5Y-111.5
X173.5Y-113.0
X175.0Y-52.5
X175.0Y-54.0
X175.0Y-55.5
X175.0Y-60.0
X175.0Y-60.0
X175.0Y-60.0
X175.0Y-61.5
X175.0Y-61.5
X175.0Y-63.0
X175.0Y-63.0
X175.0Y-103.0
X175.0Y-104.5
X175.0Y-106.0
X175.0Y-110.0
X175.0Y-111.5
X175.0Y-113.0
X176.5Y-52.5
X176.5Y-54.0
X176.5Y-55.5
X176.5Y-60.0
X176.5Y-61.5
X176.5Y-63.0
X176.5Y-103.0
X176.5Y-104.5
X176.5Y-106.0
X176.5Y-110.0
X176.5Y-111.5
X176.5Y-113.0
X178.0Y-52.5
X178.0Y-52.5
X178.0Y-54.0
X178.0Y-54.0
X178.0Y-54.0
X178.0Y-55.5
X178.0Y-55.5
X178.0Y-55.5
X178.0Y-60.0
X178.0Y-60.0
X178.0Y-60.0
X178.0Y-61.5
X178.0Y-61.5
X178.0Y-63.0
X178.0Y-63.0
X178.0Y-103.0
X178.0Y-104.5
X178.0Y-106.0
X178.0Y-110.0
X178.0Y-111.5
X178.0Y-113.0
X179.5Y-52.5
X179.5Y-52.5
X179.5Y-54.0
X179.5Y-54.0
X179.5Y-54.0
X179.5Y-55.5
X179.5Y-55.5
X179.5Y-55.5
X179.5Y-60.0
X179.5Y-60.0
X179.5Y-61.5
X179.5Y-63.0
X179.5Y-103.0
X179.5Y-104.5
X179.5Y-106.0
X179.5Y-110.0
X179.5Y-111.5
X179.5Y-113.0
X181.0Y-52.5
X181.0Y-54.0
X181.0Y-54.0
X181.0Y-55.5
X181.0Y-55.5
X181.0Y-60.0
X181.0Y-60.0
X181.0Y-61.5
X181.0Y-63.0
X181.0Y-103.0
X181.0Y-104.5
X181.0Y-106.0
X181.0Y-110.0
X181.0Y-111.5
X181.0Y-113.0
T2
X192.5Y-82.5
X192.5Y-84.5
X194.5Y-82.5
X194.5Y-84.5
T3
X171.4Y-82.9
X176.5Y-57.5
X176.5Y-108.3
X181.6Y-82.9
T4
X158.5Y-104.5
X158.5Y-111.5
X159.0Y-54.0
X159.0Y-61.0
X163.5Y-104.5
X163.5Y-111.5
X164.0Y-54.0
X164.0Y-61.0
M30
