%TF.GenerationSoftware,KiCad,Pcbnew,9.0.1*%
%TF.CreationDate,2025-05-24T18:06:33+02:00*%
%TF.ProjectId,main,6d61696e-2e6b-4696-9361-645f70636258,1.0*%
%TF.SameCoordinates,Original*%
%TF.FileFunction,Legend,Top*%
%TF.FilePolarity,Positive*%
%FSLAX46Y46*%
G04 Gerber Fmt 4.6, Leading zero omitted, Abs format (unit mm)*
G04 Created by KiCad (PCBNEW 9.0.1) date 2025-05-24 18:06:33*
%MOMM*%
%LPD*%
G01*
G04 APERTURE LIST*
%ADD10C,1.250000*%
%ADD11C,0.240000*%
%ADD12C,0.400000*%
%ADD13C,0.600000*%
%ADD14C,0.254000*%
%ADD15C,0.150000*%
%ADD16C,0.000000*%
%ADD17C,0.200000*%
%ADD18C,0.127000*%
%ADD19C,0.100000*%
G04 APERTURE END LIST*
D10*
X156823095Y-86701441D02*
X156823095Y-83844298D01*
X161823095Y-85272870D02*
X156823095Y-85272870D01*
X161585000Y-82415727D02*
X161823095Y-81701441D01*
X161823095Y-81701441D02*
X161823095Y-80510965D01*
X161823095Y-80510965D02*
X161585000Y-80034774D01*
X161585000Y-80034774D02*
X161346904Y-79796679D01*
X161346904Y-79796679D02*
X160870714Y-79558584D01*
X160870714Y-79558584D02*
X160394523Y-79558584D01*
X160394523Y-79558584D02*
X159918333Y-79796679D01*
X159918333Y-79796679D02*
X159680238Y-80034774D01*
X159680238Y-80034774D02*
X159442142Y-80510965D01*
X159442142Y-80510965D02*
X159204047Y-81463346D01*
X159204047Y-81463346D02*
X158965952Y-81939536D01*
X158965952Y-81939536D02*
X158727857Y-82177631D01*
X158727857Y-82177631D02*
X158251666Y-82415727D01*
X158251666Y-82415727D02*
X157775476Y-82415727D01*
X157775476Y-82415727D02*
X157299285Y-82177631D01*
X157299285Y-82177631D02*
X157061190Y-81939536D01*
X157061190Y-81939536D02*
X156823095Y-81463346D01*
X156823095Y-81463346D02*
X156823095Y-80272869D01*
X156823095Y-80272869D02*
X157061190Y-79558584D01*
D11*
X155943608Y-100303948D02*
X155943608Y-98803948D01*
X155943608Y-98803948D02*
X156229322Y-98803948D01*
X156229322Y-98803948D02*
X156400751Y-98875377D01*
X156400751Y-98875377D02*
X156515036Y-99018234D01*
X156515036Y-99018234D02*
X156572179Y-99161091D01*
X156572179Y-99161091D02*
X156629322Y-99446805D01*
X156629322Y-99446805D02*
X156629322Y-99661091D01*
X156629322Y-99661091D02*
X156572179Y-99946805D01*
X156572179Y-99946805D02*
X156515036Y-100089662D01*
X156515036Y-100089662D02*
X156400751Y-100232520D01*
X156400751Y-100232520D02*
X156229322Y-100303948D01*
X156229322Y-100303948D02*
X155943608Y-100303948D01*
X157143608Y-100303948D02*
X157143608Y-99303948D01*
X157143608Y-98803948D02*
X157086465Y-98875377D01*
X157086465Y-98875377D02*
X157143608Y-98946805D01*
X157143608Y-98946805D02*
X157200751Y-98875377D01*
X157200751Y-98875377D02*
X157143608Y-98803948D01*
X157143608Y-98803948D02*
X157143608Y-98946805D01*
X157657894Y-100232520D02*
X157772180Y-100303948D01*
X157772180Y-100303948D02*
X158000751Y-100303948D01*
X158000751Y-100303948D02*
X158115037Y-100232520D01*
X158115037Y-100232520D02*
X158172180Y-100089662D01*
X158172180Y-100089662D02*
X158172180Y-100018234D01*
X158172180Y-100018234D02*
X158115037Y-99875377D01*
X158115037Y-99875377D02*
X158000751Y-99803948D01*
X158000751Y-99803948D02*
X157829323Y-99803948D01*
X157829323Y-99803948D02*
X157715037Y-99732520D01*
X157715037Y-99732520D02*
X157657894Y-99589662D01*
X157657894Y-99589662D02*
X157657894Y-99518234D01*
X157657894Y-99518234D02*
X157715037Y-99375377D01*
X157715037Y-99375377D02*
X157829323Y-99303948D01*
X157829323Y-99303948D02*
X158000751Y-99303948D01*
X158000751Y-99303948D02*
X158115037Y-99375377D01*
X159200752Y-100232520D02*
X159086466Y-100303948D01*
X159086466Y-100303948D02*
X158857894Y-100303948D01*
X158857894Y-100303948D02*
X158743609Y-100232520D01*
X158743609Y-100232520D02*
X158686466Y-100161091D01*
X158686466Y-100161091D02*
X158629323Y-100018234D01*
X158629323Y-100018234D02*
X158629323Y-99589662D01*
X158629323Y-99589662D02*
X158686466Y-99446805D01*
X158686466Y-99446805D02*
X158743609Y-99375377D01*
X158743609Y-99375377D02*
X158857894Y-99303948D01*
X158857894Y-99303948D02*
X159086466Y-99303948D01*
X159086466Y-99303948D02*
X159200752Y-99375377D01*
X159715037Y-100303948D02*
X159715037Y-98803948D01*
X160229323Y-100303948D02*
X160229323Y-99518234D01*
X160229323Y-99518234D02*
X160172180Y-99375377D01*
X160172180Y-99375377D02*
X160057894Y-99303948D01*
X160057894Y-99303948D02*
X159886465Y-99303948D01*
X159886465Y-99303948D02*
X159772180Y-99375377D01*
X159772180Y-99375377D02*
X159715037Y-99446805D01*
X161315037Y-100303948D02*
X161315037Y-99518234D01*
X161315037Y-99518234D02*
X161257894Y-99375377D01*
X161257894Y-99375377D02*
X161143608Y-99303948D01*
X161143608Y-99303948D02*
X160915037Y-99303948D01*
X160915037Y-99303948D02*
X160800751Y-99375377D01*
X161315037Y-100232520D02*
X161200751Y-100303948D01*
X161200751Y-100303948D02*
X160915037Y-100303948D01*
X160915037Y-100303948D02*
X160800751Y-100232520D01*
X160800751Y-100232520D02*
X160743608Y-100089662D01*
X160743608Y-100089662D02*
X160743608Y-99946805D01*
X160743608Y-99946805D02*
X160800751Y-99803948D01*
X160800751Y-99803948D02*
X160915037Y-99732520D01*
X160915037Y-99732520D02*
X161200751Y-99732520D01*
X161200751Y-99732520D02*
X161315037Y-99661091D01*
X161886465Y-100303948D02*
X161886465Y-99303948D01*
X161886465Y-99589662D02*
X161943608Y-99446805D01*
X161943608Y-99446805D02*
X162000751Y-99375377D01*
X162000751Y-99375377D02*
X162115036Y-99303948D01*
X162115036Y-99303948D02*
X162229322Y-99303948D01*
X163143608Y-99303948D02*
X163143608Y-100518234D01*
X163143608Y-100518234D02*
X163086465Y-100661091D01*
X163086465Y-100661091D02*
X163029322Y-100732520D01*
X163029322Y-100732520D02*
X162915036Y-100803948D01*
X162915036Y-100803948D02*
X162743608Y-100803948D01*
X162743608Y-100803948D02*
X162629322Y-100732520D01*
X163143608Y-100232520D02*
X163029322Y-100303948D01*
X163029322Y-100303948D02*
X162800750Y-100303948D01*
X162800750Y-100303948D02*
X162686465Y-100232520D01*
X162686465Y-100232520D02*
X162629322Y-100161091D01*
X162629322Y-100161091D02*
X162572179Y-100018234D01*
X162572179Y-100018234D02*
X162572179Y-99589662D01*
X162572179Y-99589662D02*
X162629322Y-99446805D01*
X162629322Y-99446805D02*
X162686465Y-99375377D01*
X162686465Y-99375377D02*
X162800750Y-99303948D01*
X162800750Y-99303948D02*
X163029322Y-99303948D01*
X163029322Y-99303948D02*
X163143608Y-99375377D01*
X164172179Y-100232520D02*
X164057893Y-100303948D01*
X164057893Y-100303948D02*
X163829322Y-100303948D01*
X163829322Y-100303948D02*
X163715036Y-100232520D01*
X163715036Y-100232520D02*
X163657893Y-100089662D01*
X163657893Y-100089662D02*
X163657893Y-99518234D01*
X163657893Y-99518234D02*
X163715036Y-99375377D01*
X163715036Y-99375377D02*
X163829322Y-99303948D01*
X163829322Y-99303948D02*
X164057893Y-99303948D01*
X164057893Y-99303948D02*
X164172179Y-99375377D01*
X164172179Y-99375377D02*
X164229322Y-99518234D01*
X164229322Y-99518234D02*
X164229322Y-99661091D01*
X164229322Y-99661091D02*
X163657893Y-99803948D01*
X165657893Y-99732520D02*
X166572179Y-99732520D01*
X166115036Y-100303948D02*
X166115036Y-99161091D01*
D12*
X156739347Y-66234438D02*
X156739347Y-64234438D01*
X156739347Y-65186819D02*
X157882204Y-65186819D01*
X157882204Y-66234438D02*
X157882204Y-64234438D01*
X158548871Y-64234438D02*
X159215537Y-66234438D01*
X159215537Y-66234438D02*
X159882204Y-64234438D01*
X160548871Y-65472533D02*
X162072681Y-65472533D01*
D13*
X189101657Y-83748121D02*
X189101657Y-85652883D01*
X189101657Y-85652883D02*
X186101657Y-85652883D01*
X186101657Y-82986216D02*
X189101657Y-81652883D01*
X189101657Y-81652883D02*
X186101657Y-80319549D01*
D14*
X161076667Y-56804318D02*
X161076667Y-57711461D01*
X161076667Y-57711461D02*
X161016190Y-57892889D01*
X161016190Y-57892889D02*
X160895238Y-58013842D01*
X160895238Y-58013842D02*
X160713809Y-58074318D01*
X160713809Y-58074318D02*
X160592857Y-58074318D01*
X162286190Y-56804318D02*
X161681428Y-56804318D01*
X161681428Y-56804318D02*
X161620952Y-57409080D01*
X161620952Y-57409080D02*
X161681428Y-57348603D01*
X161681428Y-57348603D02*
X161802381Y-57288127D01*
X161802381Y-57288127D02*
X162104762Y-57288127D01*
X162104762Y-57288127D02*
X162225714Y-57348603D01*
X162225714Y-57348603D02*
X162286190Y-57409080D01*
X162286190Y-57409080D02*
X162346667Y-57530032D01*
X162346667Y-57530032D02*
X162346667Y-57832413D01*
X162346667Y-57832413D02*
X162286190Y-57953365D01*
X162286190Y-57953365D02*
X162225714Y-58013842D01*
X162225714Y-58013842D02*
X162104762Y-58074318D01*
X162104762Y-58074318D02*
X161802381Y-58074318D01*
X161802381Y-58074318D02*
X161681428Y-58013842D01*
X161681428Y-58013842D02*
X161620952Y-57953365D01*
D15*
X188569819Y-87658333D02*
X189284104Y-87658333D01*
X189284104Y-87658333D02*
X189426961Y-87705952D01*
X189426961Y-87705952D02*
X189522200Y-87801190D01*
X189522200Y-87801190D02*
X189569819Y-87944047D01*
X189569819Y-87944047D02*
X189569819Y-88039285D01*
X189569819Y-86658333D02*
X189569819Y-87229761D01*
X189569819Y-86944047D02*
X188569819Y-86944047D01*
X188569819Y-86944047D02*
X188712676Y-87039285D01*
X188712676Y-87039285D02*
X188807914Y-87134523D01*
X188807914Y-87134523D02*
X188855533Y-87229761D01*
X2713095Y270180D02*
X2713095Y1270180D01*
X2713095Y793990D02*
X3284523Y793990D01*
X3284523Y270180D02*
X3284523Y1270180D01*
X3713095Y1174942D02*
X3760714Y1222561D01*
X3760714Y1222561D02*
X3855952Y1270180D01*
X3855952Y1270180D02*
X4094047Y1270180D01*
X4094047Y1270180D02*
X4189285Y1222561D01*
X4189285Y1222561D02*
X4236904Y1174942D01*
X4236904Y1174942D02*
X4284523Y1079704D01*
X4284523Y1079704D02*
X4284523Y984466D01*
X4284523Y984466D02*
X4236904Y841609D01*
X4236904Y841609D02*
X3665476Y270180D01*
X3665476Y270180D02*
X4284523Y270180D01*
D14*
X177114318Y-85937381D02*
X175844318Y-85937381D01*
X177114318Y-85211666D02*
X176388603Y-85755952D01*
X175844318Y-85211666D02*
X176570032Y-85937381D01*
X175965270Y-84727857D02*
X175904794Y-84667381D01*
X175904794Y-84667381D02*
X175844318Y-84546428D01*
X175844318Y-84546428D02*
X175844318Y-84244047D01*
X175844318Y-84244047D02*
X175904794Y-84123095D01*
X175904794Y-84123095D02*
X175965270Y-84062619D01*
X175965270Y-84062619D02*
X176086222Y-84002142D01*
X176086222Y-84002142D02*
X176207175Y-84002142D01*
X176207175Y-84002142D02*
X176388603Y-84062619D01*
X176388603Y-84062619D02*
X177114318Y-84788333D01*
X177114318Y-84788333D02*
X177114318Y-84002142D01*
D15*
X190738095Y-51254819D02*
X190738095Y-50254819D01*
X190738095Y-50731009D02*
X191309523Y-50731009D01*
X191309523Y-51254819D02*
X191309523Y-50254819D01*
X192309523Y-51254819D02*
X191738095Y-51254819D01*
X192023809Y-51254819D02*
X192023809Y-50254819D01*
X192023809Y-50254819D02*
X191928571Y-50397676D01*
X191928571Y-50397676D02*
X191833333Y-50492914D01*
X191833333Y-50492914D02*
X191738095Y-50540533D01*
D16*
%TO.C,G\u002A\u002A\u002A*%
G36*
X191416414Y-99723293D02*
G01*
X191417912Y-99723766D01*
X191434927Y-99729576D01*
X191445944Y-99734194D01*
X191452043Y-99738200D01*
X191454303Y-99742171D01*
X191454396Y-99743305D01*
X191455892Y-99749544D01*
X191457579Y-99751212D01*
X191461064Y-99755111D01*
X191466123Y-99763527D01*
X191471628Y-99774196D01*
X191476450Y-99784859D01*
X191479459Y-99793251D01*
X191479934Y-99796018D01*
X191483049Y-99800948D01*
X191489055Y-99803832D01*
X191495901Y-99807257D01*
X191498176Y-99811128D01*
X191495066Y-99815667D01*
X191489055Y-99818425D01*
X191479934Y-99820714D01*
X191479934Y-99885990D01*
X191479880Y-99909475D01*
X191479641Y-99926774D01*
X191479107Y-99939001D01*
X191478165Y-99947265D01*
X191476705Y-99952679D01*
X191474613Y-99956353D01*
X191472638Y-99958562D01*
X191469236Y-99962872D01*
X191467074Y-99968653D01*
X191465886Y-99977515D01*
X191465403Y-99991067D01*
X191465341Y-100002457D01*
X191464976Y-100021388D01*
X191463601Y-100033782D01*
X191460791Y-100040374D01*
X191456125Y-100041900D01*
X191449180Y-100039095D01*
X191445569Y-100036859D01*
X191440308Y-100032630D01*
X191437471Y-100027263D01*
X191436332Y-100018541D01*
X191436154Y-100008114D01*
X191435617Y-99994287D01*
X191433319Y-99984361D01*
X191428232Y-99974977D01*
X191424297Y-99969404D01*
X191412439Y-99953269D01*
X191412356Y-99860146D01*
X191412208Y-99833359D01*
X191411836Y-99807706D01*
X191411277Y-99784496D01*
X191410568Y-99765038D01*
X191409744Y-99750640D01*
X191409113Y-99744220D01*
X191407613Y-99731444D01*
X191407959Y-99724559D01*
X191410708Y-99722273D01*
X191416414Y-99723293D01*
G37*
G36*
X191606023Y-103367278D02*
G01*
X191632520Y-103369517D01*
X191641932Y-103370458D01*
X191669338Y-103375169D01*
X191691616Y-103383681D01*
X191710353Y-103396938D01*
X191727135Y-103415887D01*
X191733484Y-103425011D01*
X191741124Y-103437878D01*
X191745004Y-103448691D01*
X191746238Y-103460825D01*
X191746266Y-103463706D01*
X191746879Y-103475965D01*
X191748442Y-103485901D01*
X191749608Y-103489328D01*
X191757507Y-103506471D01*
X191763025Y-103524299D01*
X191766965Y-103545632D01*
X191768086Y-103554168D01*
X191770661Y-103573155D01*
X191773822Y-103593362D01*
X191776948Y-103610866D01*
X191777407Y-103613169D01*
X191782156Y-103651725D01*
X191780915Y-103692109D01*
X191776886Y-103720038D01*
X191773595Y-103739769D01*
X191770424Y-103761911D01*
X191768048Y-103781733D01*
X191768014Y-103782061D01*
X191765409Y-103807437D01*
X191763239Y-103826471D01*
X191761166Y-103840076D01*
X191758855Y-103849164D01*
X191755969Y-103854649D01*
X191752171Y-103857444D01*
X191747124Y-103858463D01*
X191740492Y-103858618D01*
X191739791Y-103858621D01*
X191731529Y-103857201D01*
X191725744Y-103852100D01*
X191721772Y-103842187D01*
X191718947Y-103826336D01*
X191718472Y-103822446D01*
X191716074Y-103808800D01*
X191712534Y-103795705D01*
X191711564Y-103793006D01*
X191705159Y-103771696D01*
X191699863Y-103743817D01*
X191695740Y-103710022D01*
X191692858Y-103670965D01*
X191691282Y-103627298D01*
X191691005Y-103589757D01*
X191690942Y-103564612D01*
X191690541Y-103543645D01*
X191689838Y-103527654D01*
X191688865Y-103517438D01*
X191687783Y-103513838D01*
X191684605Y-103508661D01*
X191684243Y-103505923D01*
X191681930Y-103500099D01*
X191676014Y-103491476D01*
X191671354Y-103485929D01*
X191663434Y-103475642D01*
X191657798Y-103465538D01*
X191656406Y-103461367D01*
X191650988Y-103451703D01*
X191639984Y-103444271D01*
X191624973Y-103439909D01*
X191614486Y-103439113D01*
X191600187Y-103440472D01*
X191583310Y-103444079D01*
X191566081Y-103449230D01*
X191550728Y-103455221D01*
X191539480Y-103461347D01*
X191536570Y-103463737D01*
X191529336Y-103473491D01*
X191523778Y-103485168D01*
X191523523Y-103485950D01*
X191519369Y-103497285D01*
X191513582Y-103510912D01*
X191510576Y-103517358D01*
X191505238Y-103530750D01*
X191502540Y-103544791D01*
X191501825Y-103561879D01*
X191500687Y-103583023D01*
X191497162Y-103597723D01*
X191491084Y-103606488D01*
X191486261Y-103609071D01*
X191481678Y-103611713D01*
X191480581Y-103617062D01*
X191481698Y-103624646D01*
X191483388Y-103635621D01*
X191484038Y-103644605D01*
X191484025Y-103645247D01*
X191484022Y-103672189D01*
X191486304Y-103693165D01*
X191489250Y-103704660D01*
X191492583Y-103716894D01*
X191494409Y-103728191D01*
X191494528Y-103730740D01*
X191496260Y-103739384D01*
X191500768Y-103751436D01*
X191506166Y-103762536D01*
X191510382Y-103770451D01*
X191513461Y-103777285D01*
X191515613Y-103784398D01*
X191517052Y-103793152D01*
X191517988Y-103804908D01*
X191518634Y-103821028D01*
X191519202Y-103842873D01*
X191519296Y-103846819D01*
X191519723Y-103872188D01*
X191519619Y-103890699D01*
X191518969Y-103902773D01*
X191517754Y-103908831D01*
X191516779Y-103909754D01*
X191513478Y-103906715D01*
X191512770Y-103902756D01*
X191512056Y-103893353D01*
X191508959Y-103887962D01*
X191502045Y-103885764D01*
X191489883Y-103885943D01*
X191484108Y-103886417D01*
X191470690Y-103887358D01*
X191461863Y-103886808D01*
X191454981Y-103884190D01*
X191447397Y-103878925D01*
X191446456Y-103878198D01*
X191437374Y-103870039D01*
X191430595Y-103861980D01*
X191429207Y-103859595D01*
X191423674Y-103843731D01*
X191419105Y-103822835D01*
X191415871Y-103799147D01*
X191414338Y-103774908D01*
X191414264Y-103768702D01*
X191414010Y-103752525D01*
X191413312Y-103731363D01*
X191412263Y-103707507D01*
X191410959Y-103683248D01*
X191410322Y-103672949D01*
X191408789Y-103645447D01*
X191408266Y-103623627D01*
X191408882Y-103605930D01*
X191410765Y-103590795D01*
X191414044Y-103576662D01*
X191418848Y-103561969D01*
X191419643Y-103559795D01*
X191424813Y-103547660D01*
X191430520Y-103536853D01*
X191432195Y-103534256D01*
X191437044Y-103524914D01*
X191442552Y-103510581D01*
X191448028Y-103493439D01*
X191452781Y-103475668D01*
X191456120Y-103459448D01*
X191456330Y-103458126D01*
X191460430Y-103444552D01*
X191467510Y-103436728D01*
X191473958Y-103430278D01*
X191476286Y-103424100D01*
X191479395Y-103415919D01*
X191487853Y-103405889D01*
X191500359Y-103395160D01*
X191515610Y-103384884D01*
X191528469Y-103377973D01*
X191541115Y-103372620D01*
X191553855Y-103368962D01*
X191568028Y-103366911D01*
X191584972Y-103366380D01*
X191606023Y-103367278D01*
G37*
G36*
X191946777Y-102645428D02*
G01*
X191955924Y-102648886D01*
X191956048Y-102648941D01*
X191965644Y-102654977D01*
X191972465Y-102661923D01*
X191979592Y-102669341D01*
X191985622Y-102673020D01*
X191992379Y-102679386D01*
X191995499Y-102689535D01*
X191998744Y-102700659D01*
X192003713Y-102709675D01*
X192004233Y-102710284D01*
X192007697Y-102715786D01*
X192009730Y-102723982D01*
X192010639Y-102736615D01*
X192010773Y-102747497D01*
X192010492Y-102763215D01*
X192009293Y-102774051D01*
X192006642Y-102782410D01*
X192002003Y-102790695D01*
X192000740Y-102792631D01*
X191994920Y-102802059D01*
X191991299Y-102809146D01*
X191990707Y-102811190D01*
X191987476Y-102817503D01*
X191979031Y-102824562D01*
X191967244Y-102831371D01*
X191953985Y-102836933D01*
X191941126Y-102840251D01*
X191935191Y-102840759D01*
X191928349Y-102838004D01*
X191919421Y-102830940D01*
X191910229Y-102821417D01*
X191902599Y-102811286D01*
X191898784Y-102803818D01*
X191894426Y-102795316D01*
X191889885Y-102793760D01*
X191886808Y-102796869D01*
X191881910Y-102801151D01*
X191871866Y-102807592D01*
X191858203Y-102815398D01*
X191842449Y-102823776D01*
X191826132Y-102831936D01*
X191810778Y-102839083D01*
X191797915Y-102844425D01*
X191790489Y-102846855D01*
X191777847Y-102850277D01*
X191767213Y-102853597D01*
X191762684Y-102855322D01*
X191755382Y-102857919D01*
X191743693Y-102861341D01*
X191732111Y-102864355D01*
X191716080Y-102869087D01*
X191699589Y-102875196D01*
X191690343Y-102879346D01*
X191679775Y-102883769D01*
X191664099Y-102889223D01*
X191645310Y-102895060D01*
X191625401Y-102900633D01*
X191622409Y-102901414D01*
X191599381Y-102907367D01*
X191574097Y-102913904D01*
X191549753Y-102920199D01*
X191531012Y-102925046D01*
X191510198Y-102930111D01*
X191487850Y-102935035D01*
X191467197Y-102939127D01*
X191456220Y-102941013D01*
X191438839Y-102943863D01*
X191421751Y-102946905D01*
X191407992Y-102949590D01*
X191405143Y-102950205D01*
X191392768Y-102952978D01*
X191376390Y-102956659D01*
X191359120Y-102960547D01*
X191355438Y-102961377D01*
X191334789Y-102964857D01*
X191309491Y-102967297D01*
X191281300Y-102968698D01*
X191251972Y-102969062D01*
X191223261Y-102968392D01*
X191196925Y-102966689D01*
X191174718Y-102963954D01*
X191161641Y-102961176D01*
X191147390Y-102957566D01*
X191134755Y-102954958D01*
X191126339Y-102953883D01*
X191126015Y-102953879D01*
X191112998Y-102950717D01*
X191102756Y-102941080D01*
X191095107Y-102924922D01*
X191091043Y-102914475D01*
X191087166Y-102907380D01*
X191085373Y-102905663D01*
X191082596Y-102901648D01*
X191079642Y-102892771D01*
X191078184Y-102886277D01*
X191076436Y-102875201D01*
X191076966Y-102868495D01*
X191080379Y-102863426D01*
X191083977Y-102860108D01*
X191090947Y-102851271D01*
X191093188Y-102839583D01*
X191093206Y-102838036D01*
X191094575Y-102825896D01*
X191099541Y-102818837D01*
X191109396Y-102815709D01*
X191118839Y-102815241D01*
X191132774Y-102816764D01*
X191142574Y-102821974D01*
X191148994Y-102831832D01*
X191152790Y-102847296D01*
X191154155Y-102860081D01*
X191156228Y-102887500D01*
X191207718Y-102890048D01*
X191228761Y-102890774D01*
X191254691Y-102891184D01*
X191283105Y-102891268D01*
X191311601Y-102891015D01*
X191332175Y-102890582D01*
X191373695Y-102889074D01*
X191408488Y-102886994D01*
X191437106Y-102884272D01*
X191460102Y-102880839D01*
X191478028Y-102876628D01*
X191491437Y-102871569D01*
X191493473Y-102870531D01*
X191500559Y-102868271D01*
X191512758Y-102865835D01*
X191527908Y-102863627D01*
X191534630Y-102862865D01*
X191550322Y-102861029D01*
X191562051Y-102858763D01*
X191572270Y-102855185D01*
X191583434Y-102849418D01*
X191597996Y-102840579D01*
X191599617Y-102839566D01*
X191613936Y-102830871D01*
X191626811Y-102823535D01*
X191636456Y-102818550D01*
X191640045Y-102817072D01*
X191647232Y-102814367D01*
X191656745Y-102809745D01*
X191669541Y-102802677D01*
X191686575Y-102792638D01*
X191707503Y-102779900D01*
X191722669Y-102771129D01*
X191737444Y-102763520D01*
X191749528Y-102758218D01*
X191753712Y-102756827D01*
X191764702Y-102753572D01*
X191773346Y-102750506D01*
X191775024Y-102749763D01*
X191782382Y-102746251D01*
X191795388Y-102740173D01*
X191813050Y-102731990D01*
X191834375Y-102722161D01*
X191858371Y-102711145D01*
X191858453Y-102711108D01*
X191871697Y-102704820D01*
X191881971Y-102699523D01*
X191887788Y-102696004D01*
X191888561Y-102695168D01*
X191890736Y-102691352D01*
X191896228Y-102684170D01*
X191899498Y-102680251D01*
X191906074Y-102671705D01*
X191909973Y-102664974D01*
X191910434Y-102663219D01*
X191913377Y-102658697D01*
X191920517Y-102652945D01*
X191929341Y-102647597D01*
X191937339Y-102644293D01*
X191940060Y-102643910D01*
X191946777Y-102645428D01*
G37*
G36*
X192688753Y-104741931D02*
G01*
X192691139Y-104780393D01*
X192693499Y-104819039D01*
X192695785Y-104857083D01*
X192697950Y-104893735D01*
X192699947Y-104928208D01*
X192701728Y-104959714D01*
X192703244Y-104987465D01*
X192704450Y-105010672D01*
X192705296Y-105028549D01*
X192705736Y-105040306D01*
X192705789Y-105043519D01*
X192705179Y-105059817D01*
X192703498Y-105072132D01*
X192701229Y-105078426D01*
X192695389Y-105082269D01*
X192685492Y-105085399D01*
X192674042Y-105087429D01*
X192663542Y-105087968D01*
X192656497Y-105086627D01*
X192655267Y-105085576D01*
X192650693Y-105083112D01*
X192640231Y-105079665D01*
X192625176Y-105075545D01*
X192606822Y-105071062D01*
X192586462Y-105066528D01*
X192565390Y-105062251D01*
X192544901Y-105058544D01*
X192537964Y-105057416D01*
X192511514Y-105053642D01*
X192484484Y-105050610D01*
X192455764Y-105048259D01*
X192424249Y-105046528D01*
X192388832Y-105045359D01*
X192348404Y-105044691D01*
X192301860Y-105044465D01*
X192298995Y-105044464D01*
X192269410Y-105044553D01*
X192239788Y-105044843D01*
X192209702Y-105045359D01*
X192178727Y-105046127D01*
X192146435Y-105047173D01*
X192112401Y-105048522D01*
X192076198Y-105050199D01*
X192037400Y-105052231D01*
X191995581Y-105054642D01*
X191950314Y-105057458D01*
X191901174Y-105060705D01*
X191847733Y-105064409D01*
X191789567Y-105068594D01*
X191726247Y-105073287D01*
X191657349Y-105078513D01*
X191582446Y-105084298D01*
X191501112Y-105090666D01*
X191416088Y-105097393D01*
X191312246Y-105105562D01*
X191213484Y-105113167D01*
X191119944Y-105120200D01*
X191031769Y-105126654D01*
X190949100Y-105132519D01*
X190872080Y-105137787D01*
X190800851Y-105142450D01*
X190735556Y-105146499D01*
X190676336Y-105149925D01*
X190623333Y-105152721D01*
X190576690Y-105154878D01*
X190536550Y-105156387D01*
X190503053Y-105157241D01*
X190476344Y-105157430D01*
X190456562Y-105156946D01*
X190443852Y-105155781D01*
X190441059Y-105155199D01*
X190434660Y-105151564D01*
X190432850Y-105147886D01*
X190431286Y-105142703D01*
X190427046Y-105132589D01*
X190420813Y-105119092D01*
X190414598Y-105106400D01*
X190405756Y-105087855D01*
X190397044Y-105068010D01*
X190389763Y-105049892D01*
X190386821Y-105041708D01*
X190383427Y-105031349D01*
X190381004Y-105022601D01*
X190379447Y-105014019D01*
X190378650Y-105004160D01*
X190378505Y-104991580D01*
X190378906Y-104974836D01*
X190379747Y-104952482D01*
X190379920Y-104948170D01*
X190380793Y-104924026D01*
X190381169Y-104906223D01*
X190381018Y-104893823D01*
X190380306Y-104885886D01*
X190379002Y-104881472D01*
X190377615Y-104879907D01*
X190374804Y-104876680D01*
X190378143Y-104872617D01*
X190378724Y-104872157D01*
X190383402Y-104864908D01*
X190386998Y-104851224D01*
X190389516Y-104830993D01*
X190389656Y-104828379D01*
X192470084Y-104828379D01*
X192470670Y-104840438D01*
X192470910Y-104843122D01*
X192472481Y-104856798D01*
X192474579Y-104865214D01*
X192478018Y-104870400D01*
X192483366Y-104874245D01*
X192494284Y-104878445D01*
X192506463Y-104880222D01*
X192506603Y-104880222D01*
X192515316Y-104879698D01*
X192518950Y-104876692D01*
X192519717Y-104869051D01*
X192519722Y-104867453D01*
X192520305Y-104858887D01*
X192523444Y-104855374D01*
X192531224Y-104854684D01*
X192531660Y-104854684D01*
X192543722Y-104851996D01*
X192555573Y-104845082D01*
X192565146Y-104835664D01*
X192570376Y-104825466D01*
X192570799Y-104822029D01*
X192572467Y-104813020D01*
X192575781Y-104807662D01*
X192579333Y-104801668D01*
X192582264Y-104791598D01*
X192582950Y-104787575D01*
X192586387Y-104773688D01*
X192592034Y-104760050D01*
X192593172Y-104758002D01*
X192599472Y-104742230D01*
X192602680Y-104722657D01*
X192603165Y-104709912D01*
X192602096Y-104702036D01*
X192598928Y-104696675D01*
X192596038Y-104693895D01*
X192586130Y-104687823D01*
X192578282Y-104688006D01*
X192573401Y-104694372D01*
X192573025Y-104695678D01*
X192568573Y-104703239D01*
X192560336Y-104710859D01*
X192558101Y-104712353D01*
X192547361Y-104720726D01*
X192538031Y-104730731D01*
X192537246Y-104731808D01*
X192528966Y-104742586D01*
X192520161Y-104752674D01*
X192519850Y-104752998D01*
X192502112Y-104771633D01*
X192488978Y-104786316D01*
X192479829Y-104798191D01*
X192474043Y-104808398D01*
X192471002Y-104818080D01*
X192470084Y-104828379D01*
X190389656Y-104828379D01*
X190390959Y-104804105D01*
X190391330Y-104770451D01*
X190390632Y-104729919D01*
X190388868Y-104682400D01*
X190386042Y-104627782D01*
X190385706Y-104622013D01*
X190383774Y-104588191D01*
X190381868Y-104553059D01*
X190380067Y-104518207D01*
X190378450Y-104485226D01*
X190377096Y-104455705D01*
X190376085Y-104431232D01*
X190375791Y-104423121D01*
X190374913Y-104400945D01*
X190373911Y-104381369D01*
X190372861Y-104365522D01*
X190371840Y-104354533D01*
X190370924Y-104349531D01*
X190370795Y-104349363D01*
X190366153Y-104347932D01*
X190356464Y-104345704D01*
X190344367Y-104343268D01*
X190320465Y-104338734D01*
X190317972Y-104312135D01*
X190316117Y-104297215D01*
X190313826Y-104288671D01*
X190310836Y-104285585D01*
X190310318Y-104285537D01*
X190305658Y-104283975D01*
X190305155Y-104282800D01*
X190308585Y-104281887D01*
X190318016Y-104281237D01*
X190332154Y-104280892D01*
X190349708Y-104280899D01*
X190357144Y-104281006D01*
X190367203Y-104281178D01*
X190384070Y-104281452D01*
X190407259Y-104281822D01*
X190436281Y-104282280D01*
X190470651Y-104282818D01*
X190509881Y-104283429D01*
X190553482Y-104284106D01*
X190600969Y-104284839D01*
X190651854Y-104285623D01*
X190705649Y-104286450D01*
X190761868Y-104287312D01*
X190820023Y-104288201D01*
X190879626Y-104289109D01*
X190892546Y-104289306D01*
X190957779Y-104290303D01*
X191029294Y-104291402D01*
X191106074Y-104292587D01*
X191187104Y-104293844D01*
X191271369Y-104295155D01*
X191357854Y-104296505D01*
X191445544Y-104297878D01*
X191533423Y-104299258D01*
X191620476Y-104300629D01*
X191705689Y-104301976D01*
X191788045Y-104303282D01*
X191866531Y-104304532D01*
X191934157Y-104305613D01*
X192016990Y-104306940D01*
X192092836Y-104308149D01*
X192162003Y-104309245D01*
X192224801Y-104310232D01*
X192281539Y-104311112D01*
X192332524Y-104311889D01*
X192378066Y-104312566D01*
X192418473Y-104313147D01*
X192454055Y-104313635D01*
X192485120Y-104314034D01*
X192511976Y-104314346D01*
X192534933Y-104314576D01*
X192554299Y-104314726D01*
X192570383Y-104314800D01*
X192583494Y-104314802D01*
X192593941Y-104314735D01*
X192602032Y-104314601D01*
X192608075Y-104314406D01*
X192612381Y-104314151D01*
X192615257Y-104313840D01*
X192617012Y-104313478D01*
X192617884Y-104313112D01*
X192620717Y-104308742D01*
X192624790Y-104299323D01*
X192629269Y-104286803D01*
X192629715Y-104285430D01*
X192635331Y-104270787D01*
X192640675Y-104262065D01*
X192645370Y-104259665D01*
X192649040Y-104263990D01*
X192649250Y-104264559D01*
X192649948Y-104269171D01*
X192651191Y-104280143D01*
X192652892Y-104296565D01*
X192654970Y-104317526D01*
X192657338Y-104342116D01*
X192659913Y-104369427D01*
X192662611Y-104398547D01*
X192665346Y-104428566D01*
X192668036Y-104458575D01*
X192670594Y-104487663D01*
X192672938Y-104514920D01*
X192674982Y-104539437D01*
X192676555Y-104559165D01*
X192678098Y-104579971D01*
X192679901Y-104605690D01*
X192681915Y-104635533D01*
X192684093Y-104668713D01*
X192686389Y-104704442D01*
X192686734Y-104709912D01*
X192688753Y-104741931D01*
G37*
G36*
X191405434Y-96626288D02*
G01*
X191410378Y-96633886D01*
X191420539Y-96648032D01*
X191424648Y-96665056D01*
X191422577Y-96683577D01*
X191416363Y-96698584D01*
X191406076Y-96716386D01*
X191396954Y-96730984D01*
X191389721Y-96741273D01*
X191385172Y-96746107D01*
X191379750Y-96752337D01*
X191373680Y-96763783D01*
X191367799Y-96778516D01*
X191362940Y-96794608D01*
X191361534Y-96800689D01*
X191358365Y-96813991D01*
X191354996Y-96825310D01*
X191352685Y-96831074D01*
X191349101Y-96839582D01*
X191349890Y-96845358D01*
X191355944Y-96849449D01*
X191368160Y-96852901D01*
X191372054Y-96853740D01*
X191383790Y-96856517D01*
X191392663Y-96859946D01*
X191399038Y-96864990D01*
X191403274Y-96872614D01*
X191405736Y-96883782D01*
X191406785Y-96899457D01*
X191406783Y-96920603D01*
X191406196Y-96944617D01*
X191404384Y-97007401D01*
X191415330Y-97022512D01*
X191426277Y-97037623D01*
X191420275Y-97080387D01*
X191417738Y-97097682D01*
X191415345Y-97112623D01*
X191413373Y-97123548D01*
X191412156Y-97128668D01*
X191407769Y-97133436D01*
X191399124Y-97139115D01*
X191394447Y-97141514D01*
X191384328Y-97147423D01*
X191376922Y-97155280D01*
X191370033Y-97167495D01*
X191369197Y-97169243D01*
X191364059Y-97180941D01*
X191360556Y-97190537D01*
X191359538Y-97195130D01*
X191356594Y-97201162D01*
X191354204Y-97202665D01*
X191348462Y-97207677D01*
X191346913Y-97210759D01*
X191342808Y-97216392D01*
X191334828Y-97223346D01*
X191331268Y-97225857D01*
X191318619Y-97234776D01*
X191306414Y-97244321D01*
X191296077Y-97253268D01*
X191289031Y-97260390D01*
X191286680Y-97264235D01*
X191283829Y-97268512D01*
X191277001Y-97274255D01*
X191275688Y-97275161D01*
X191266771Y-97283398D01*
X191260404Y-97293117D01*
X191260338Y-97293273D01*
X191255947Y-97301403D01*
X191248472Y-97312921D01*
X191241567Y-97322538D01*
X191239413Y-97325538D01*
X191237995Y-97327403D01*
X191220140Y-97350699D01*
X191226324Y-97409622D01*
X191229303Y-97437035D01*
X191232882Y-97468330D01*
X191236975Y-97502860D01*
X191241495Y-97539980D01*
X191246355Y-97579044D01*
X191251469Y-97619407D01*
X191256750Y-97660422D01*
X191262113Y-97701443D01*
X191267470Y-97741826D01*
X191272735Y-97780923D01*
X191277822Y-97818090D01*
X191282644Y-97852681D01*
X191287115Y-97884049D01*
X191291149Y-97911549D01*
X191294658Y-97934536D01*
X191297557Y-97952363D01*
X191299758Y-97964385D01*
X191301177Y-97969956D01*
X191301379Y-97970254D01*
X191304456Y-97974238D01*
X191309686Y-97982849D01*
X191315800Y-97993969D01*
X191322106Y-98006836D01*
X191325200Y-98016527D01*
X191325760Y-98026040D01*
X191324967Y-98034522D01*
X191322637Y-98053243D01*
X191478814Y-98055608D01*
X191512607Y-98056132D01*
X191544734Y-98056653D01*
X191574329Y-98057157D01*
X191600525Y-98057627D01*
X191622459Y-98058047D01*
X191639264Y-98058401D01*
X191650074Y-98058675D01*
X191652979Y-98058777D01*
X191670968Y-98059582D01*
X191677187Y-98024553D01*
X191680748Y-98004690D01*
X191683524Y-97990941D01*
X191686060Y-97982245D01*
X191688896Y-97977540D01*
X191692576Y-97975766D01*
X191697642Y-97975861D01*
X191701789Y-97976403D01*
X191710740Y-97977149D01*
X191714774Y-97975234D01*
X191716146Y-97969322D01*
X191716277Y-97967830D01*
X191717018Y-97961203D01*
X191718609Y-97948580D01*
X191720887Y-97931190D01*
X191723691Y-97910264D01*
X191726858Y-97887030D01*
X191727967Y-97878987D01*
X191731911Y-97850174D01*
X191736420Y-97816804D01*
X191741134Y-97781556D01*
X191745696Y-97747113D01*
X191749746Y-97716154D01*
X191749920Y-97714810D01*
X191754584Y-97680488D01*
X191760115Y-97642546D01*
X191766304Y-97602210D01*
X191772947Y-97560707D01*
X191779835Y-97519261D01*
X191786761Y-97479099D01*
X191793520Y-97441447D01*
X191799902Y-97407530D01*
X191805703Y-97378576D01*
X191810031Y-97358739D01*
X191809477Y-97353260D01*
X191805025Y-97346011D01*
X191795919Y-97335917D01*
X191789471Y-97329552D01*
X191776664Y-97317003D01*
X191766436Y-97306735D01*
X192118400Y-97306735D01*
X192120301Y-97310895D01*
X192125278Y-97319226D01*
X192132082Y-97329665D01*
X192145763Y-97349945D01*
X192171302Y-97349608D01*
X192186393Y-97349071D01*
X192199841Y-97347613D01*
X192213423Y-97344806D01*
X192228917Y-97340224D01*
X192248100Y-97333441D01*
X192264335Y-97327284D01*
X192288779Y-97317307D01*
X192311166Y-97306791D01*
X192332525Y-97295035D01*
X192353887Y-97281340D01*
X192376281Y-97265008D01*
X192400737Y-97245338D01*
X192428284Y-97221631D01*
X192454619Y-97198038D01*
X192474123Y-97180628D01*
X192495632Y-97161906D01*
X192517000Y-97143708D01*
X192536083Y-97127875D01*
X192542926Y-97122352D01*
X192557376Y-97110488D01*
X192569388Y-97099988D01*
X192577972Y-97091769D01*
X192582135Y-97086748D01*
X192582356Y-97085880D01*
X192576364Y-97077683D01*
X192565090Y-97073304D01*
X192549509Y-97072810D01*
X192530595Y-97076262D01*
X192514871Y-97081456D01*
X192498989Y-97087393D01*
X192482084Y-97093346D01*
X192472293Y-97096587D01*
X192461107Y-97100459D01*
X192453059Y-97103841D01*
X192450403Y-97105523D01*
X192446008Y-97109101D01*
X192440964Y-97112092D01*
X192433707Y-97116620D01*
X192422118Y-97124644D01*
X192407583Y-97135127D01*
X192391488Y-97147033D01*
X192375219Y-97159325D01*
X192360163Y-97170966D01*
X192347706Y-97180921D01*
X192339233Y-97188151D01*
X192339127Y-97188249D01*
X192314509Y-97208707D01*
X192287771Y-97227075D01*
X192260725Y-97242283D01*
X192235182Y-97253264D01*
X192222379Y-97257127D01*
X192205716Y-97261813D01*
X192188435Y-97267598D01*
X192176774Y-97272184D01*
X192163168Y-97278608D01*
X192149117Y-97286004D01*
X192136143Y-97293470D01*
X192125773Y-97300103D01*
X192119531Y-97305002D01*
X192118400Y-97306735D01*
X191766436Y-97306735D01*
X191763659Y-97303947D01*
X191753060Y-97293000D01*
X191752146Y-97292029D01*
X191741685Y-97280958D01*
X191728991Y-97267629D01*
X191717476Y-97255620D01*
X191705113Y-97242134D01*
X191692319Y-97227159D01*
X191682817Y-97215176D01*
X191674271Y-97204026D01*
X191666685Y-97194579D01*
X191662016Y-97189227D01*
X191656798Y-97182220D01*
X191650887Y-97171994D01*
X191649247Y-97168703D01*
X191640490Y-97155996D01*
X191629310Y-97147873D01*
X191619835Y-97145663D01*
X191617104Y-97144446D01*
X191614880Y-97140398D01*
X191613119Y-97132923D01*
X191611781Y-97121425D01*
X191610822Y-97105311D01*
X191610200Y-97083983D01*
X191609875Y-97056846D01*
X191609803Y-97023305D01*
X191609848Y-97004156D01*
X191609896Y-96971847D01*
X191609949Y-96945996D01*
X191610243Y-96925765D01*
X191611016Y-96910317D01*
X191612505Y-96898818D01*
X191614945Y-96890429D01*
X191618574Y-96884316D01*
X191623629Y-96879641D01*
X191630346Y-96875568D01*
X191638962Y-96871261D01*
X191648871Y-96866321D01*
X191662534Y-96858691D01*
X191669970Y-96852278D01*
X191671703Y-96845533D01*
X191668260Y-96836907D01*
X191662045Y-96827490D01*
X191657231Y-96819785D01*
X191655066Y-96814550D01*
X191655056Y-96814369D01*
X191652981Y-96807058D01*
X191647526Y-96796096D01*
X191639849Y-96783548D01*
X191631106Y-96771477D01*
X191630797Y-96771090D01*
X191623868Y-96761640D01*
X191619384Y-96753934D01*
X191618457Y-96751024D01*
X191616297Y-96744461D01*
X191612984Y-96739084D01*
X191608729Y-96731056D01*
X191607628Y-96725912D01*
X191605668Y-96719364D01*
X191600721Y-96709924D01*
X191597972Y-96705631D01*
X191591563Y-96693717D01*
X191587932Y-96679756D01*
X191586572Y-96667310D01*
X191586134Y-96651839D01*
X191586748Y-96647660D01*
X192370138Y-96647660D01*
X192371962Y-96649484D01*
X192373787Y-96647660D01*
X192371962Y-96645835D01*
X192370138Y-96647660D01*
X191586748Y-96647660D01*
X191587469Y-96642749D01*
X191588931Y-96640644D01*
X191592104Y-96635380D01*
X191593034Y-96629130D01*
X191594956Y-96620589D01*
X191599786Y-96609765D01*
X191602155Y-96605703D01*
X191607579Y-96596560D01*
X191609659Y-96592376D01*
X191987977Y-96592376D01*
X191988156Y-96601407D01*
X191988290Y-96603076D01*
X191990584Y-96616980D01*
X191994349Y-96627132D01*
X191998799Y-96632871D01*
X192003148Y-96633537D01*
X192006610Y-96628470D01*
X192008215Y-96619809D01*
X192007737Y-96605609D01*
X192004137Y-96594576D01*
X191998098Y-96588308D01*
X191994411Y-96587461D01*
X191989810Y-96588369D01*
X191987977Y-96592376D01*
X191609659Y-96592376D01*
X191610849Y-96589982D01*
X191611282Y-96588446D01*
X191614180Y-96584895D01*
X191621383Y-96579462D01*
X191630673Y-96573535D01*
X191639831Y-96568501D01*
X191646638Y-96565746D01*
X191647883Y-96565571D01*
X191654619Y-96564525D01*
X191663918Y-96562036D01*
X191671914Y-96559514D01*
X191684937Y-96555409D01*
X191701056Y-96550329D01*
X191715255Y-96545854D01*
X191734774Y-96540140D01*
X191755117Y-96534905D01*
X191773371Y-96530867D01*
X191782750Y-96529222D01*
X191800611Y-96526334D01*
X191819716Y-96522806D01*
X191833827Y-96519862D01*
X191849179Y-96516577D01*
X191863542Y-96514028D01*
X191878698Y-96512001D01*
X191896427Y-96510282D01*
X191918513Y-96508655D01*
X191935981Y-96507549D01*
X191953944Y-96506279D01*
X191969589Y-96504844D01*
X191981288Y-96503416D01*
X191987410Y-96502167D01*
X191987541Y-96502112D01*
X191991032Y-96501770D01*
X191993627Y-96505325D01*
X191995974Y-96514078D01*
X191997483Y-96522082D01*
X191999857Y-96534180D01*
X192002066Y-96543135D01*
X192003463Y-96546708D01*
X192007387Y-96546955D01*
X192017915Y-96546923D01*
X192034357Y-96546629D01*
X192056026Y-96546093D01*
X192082234Y-96545335D01*
X192112294Y-96544373D01*
X192145517Y-96543226D01*
X192181216Y-96541914D01*
X192194182Y-96541418D01*
X192230643Y-96540070D01*
X192264918Y-96538914D01*
X192296311Y-96537967D01*
X192324127Y-96537245D01*
X192347671Y-96536762D01*
X192366249Y-96536536D01*
X192379165Y-96536581D01*
X192385724Y-96536912D01*
X192386385Y-96537095D01*
X192387663Y-96542422D01*
X192386842Y-96553788D01*
X192384730Y-96566494D01*
X192381976Y-96584764D01*
X192380047Y-96605291D01*
X192379449Y-96619809D01*
X192379429Y-96620297D01*
X192379259Y-96647660D01*
X192429902Y-96648678D01*
X192480544Y-96649696D01*
X192478243Y-96638189D01*
X192476544Y-96626512D01*
X192475941Y-96616947D01*
X192474435Y-96609581D01*
X192468559Y-96605247D01*
X192464084Y-96603722D01*
X192452227Y-96600231D01*
X192450305Y-96567395D01*
X192449548Y-96552740D01*
X192449138Y-96541121D01*
X192449128Y-96534255D01*
X192449277Y-96533156D01*
X192453770Y-96531531D01*
X192464254Y-96530034D01*
X192479427Y-96528727D01*
X192497983Y-96527671D01*
X192518618Y-96526931D01*
X192540027Y-96526566D01*
X192560906Y-96526640D01*
X192576836Y-96527077D01*
X192601695Y-96527844D01*
X192619444Y-96527810D01*
X192630032Y-96526977D01*
X192633386Y-96525589D01*
X192638295Y-96521304D01*
X192649268Y-96517287D01*
X192665072Y-96513653D01*
X192684476Y-96510517D01*
X192706247Y-96507994D01*
X192729154Y-96506201D01*
X192751964Y-96505251D01*
X192773447Y-96505261D01*
X192792369Y-96506345D01*
X192807500Y-96508619D01*
X192809527Y-96509112D01*
X192824519Y-96513858D01*
X192835015Y-96519864D01*
X192841923Y-96528489D01*
X192846150Y-96541091D01*
X192848602Y-96559029D01*
X192849339Y-96568757D01*
X192850064Y-96587818D01*
X192849682Y-96604060D01*
X192848255Y-96615451D01*
X192847904Y-96616786D01*
X192845803Y-96627954D01*
X192844678Y-96642161D01*
X192844623Y-96649484D01*
X192844866Y-96662798D01*
X192844962Y-96674585D01*
X192844935Y-96679247D01*
X192843115Y-96686708D01*
X192838385Y-96698637D01*
X192831614Y-96713259D01*
X192823669Y-96728797D01*
X192815419Y-96743477D01*
X192807730Y-96755523D01*
X192807500Y-96755850D01*
X192802729Y-96763616D01*
X192800650Y-96769028D01*
X192800647Y-96769141D01*
X192797735Y-96773443D01*
X192795174Y-96774848D01*
X192790345Y-96779872D01*
X192789702Y-96782918D01*
X192787755Y-96789190D01*
X192782772Y-96798737D01*
X192778757Y-96805106D01*
X192772623Y-96814697D01*
X192768651Y-96821873D01*
X192767811Y-96824231D01*
X192765458Y-96829029D01*
X192759335Y-96837274D01*
X192750844Y-96847406D01*
X192741391Y-96857865D01*
X192732378Y-96867094D01*
X192725210Y-96873533D01*
X192721510Y-96875654D01*
X192715735Y-96878261D01*
X192714976Y-96879224D01*
X192715049Y-96884810D01*
X192718314Y-96893230D01*
X192723361Y-96901657D01*
X192728779Y-96907263D01*
X192729046Y-96907425D01*
X192732574Y-96912818D01*
X192735838Y-96923497D01*
X192738587Y-96937451D01*
X192740565Y-96952667D01*
X192741521Y-96967136D01*
X192741201Y-96978846D01*
X192739352Y-96985785D01*
X192738968Y-96986250D01*
X192735725Y-96992917D01*
X192734976Y-96998418D01*
X192733364Y-97005957D01*
X192730967Y-97009072D01*
X192726649Y-97014034D01*
X192722758Y-97021194D01*
X192718440Y-97028234D01*
X192710130Y-97039424D01*
X192698820Y-97053587D01*
X192685504Y-97069547D01*
X192671387Y-97085880D01*
X192671174Y-97086126D01*
X192656826Y-97102147D01*
X192643450Y-97116433D01*
X192636213Y-97123773D01*
X192625315Y-97133900D01*
X192610509Y-97146795D01*
X192593708Y-97160828D01*
X192576826Y-97174370D01*
X192576212Y-97174850D01*
X192560372Y-97187307D01*
X192545428Y-97199195D01*
X192532925Y-97209277D01*
X192524409Y-97216314D01*
X192523568Y-97217033D01*
X192515747Y-97223088D01*
X192503285Y-97231952D01*
X192487723Y-97242559D01*
X192470602Y-97253846D01*
X192465543Y-97257109D01*
X192420484Y-97286012D01*
X192422435Y-97298838D01*
X192423693Y-97305384D01*
X192426372Y-97318113D01*
X192430268Y-97336095D01*
X192435178Y-97358402D01*
X192440897Y-97384102D01*
X192447220Y-97412266D01*
X192452109Y-97433885D01*
X192464455Y-97488539D01*
X192475217Y-97536790D01*
X192484516Y-97579328D01*
X192492467Y-97616845D01*
X192499190Y-97650034D01*
X192504801Y-97679587D01*
X192509418Y-97706194D01*
X192513160Y-97730548D01*
X192516144Y-97753340D01*
X192518487Y-97775264D01*
X192520308Y-97797009D01*
X192521725Y-97819269D01*
X192522854Y-97842734D01*
X192523213Y-97851624D01*
X192524405Y-97878929D01*
X192525854Y-97906803D01*
X192527449Y-97933395D01*
X192529075Y-97956851D01*
X192530621Y-97975318D01*
X192530973Y-97978858D01*
X192535476Y-98022179D01*
X192557698Y-98020329D01*
X192574133Y-98017849D01*
X192592090Y-98013505D01*
X192601810Y-98010358D01*
X192629725Y-98000187D01*
X192652179Y-97992486D01*
X192670434Y-97986893D01*
X192685755Y-97983047D01*
X192699406Y-97980587D01*
X192710320Y-97979343D01*
X192738565Y-97976876D01*
X192736937Y-97987218D01*
X192736408Y-97993621D01*
X192735778Y-98006206D01*
X192735086Y-98023858D01*
X192734372Y-98045462D01*
X192733678Y-98069906D01*
X192733163Y-98090778D01*
X192731018Y-98183996D01*
X192743806Y-98200744D01*
X192752870Y-98214513D01*
X192761199Y-98230235D01*
X192764130Y-98237043D01*
X192771666Y-98256594D01*
X192745112Y-98282223D01*
X192730235Y-98295890D01*
X192713704Y-98310003D01*
X192698388Y-98322140D01*
X192693891Y-98325441D01*
X192669224Y-98343029D01*
X192652505Y-98324434D01*
X192641990Y-98313654D01*
X192634953Y-98308892D01*
X192630881Y-98310060D01*
X192629259Y-98317066D01*
X192629173Y-98320357D01*
X192628408Y-98331996D01*
X192625080Y-98338627D01*
X192617643Y-98341608D01*
X192604549Y-98342295D01*
X192604156Y-98342294D01*
X192591634Y-98342877D01*
X192574581Y-98344473D01*
X192555649Y-98346809D01*
X192544054Y-98348521D01*
X192504539Y-98354784D01*
X192504818Y-98358052D01*
X192506580Y-98378657D01*
X192506844Y-98385166D01*
X192507134Y-98398523D01*
X192507445Y-98418281D01*
X192507773Y-98443990D01*
X192508115Y-98475203D01*
X192508466Y-98511471D01*
X192508824Y-98552346D01*
X192509183Y-98597379D01*
X192509540Y-98646123D01*
X192509892Y-98698129D01*
X192510234Y-98752948D01*
X192510562Y-98810133D01*
X192510874Y-98869235D01*
X192510998Y-98894424D01*
X192513376Y-99386319D01*
X192522306Y-99384077D01*
X192529174Y-99383246D01*
X192541306Y-99382619D01*
X192557155Y-99382197D01*
X192575176Y-99381980D01*
X192593822Y-99381968D01*
X192611548Y-99382160D01*
X192626809Y-99382557D01*
X192638057Y-99383159D01*
X192643747Y-99383965D01*
X192643987Y-99384079D01*
X192646407Y-99382656D01*
X192647308Y-99375062D01*
X192646759Y-99362243D01*
X192644832Y-99345150D01*
X192641597Y-99324731D01*
X192638257Y-99307326D01*
X192633461Y-99282536D01*
X192630579Y-99263501D01*
X192629537Y-99248956D01*
X192630259Y-99237638D01*
X192632668Y-99228282D01*
X192633407Y-99226388D01*
X192633461Y-99226222D01*
X192709422Y-99226222D01*
X192709437Y-99253394D01*
X192709437Y-99256718D01*
X192709437Y-99342142D01*
X192719467Y-99357570D01*
X192728138Y-99369875D01*
X192735972Y-99377545D01*
X192745437Y-99382449D01*
X192756866Y-99385907D01*
X192768481Y-99388953D01*
X192778111Y-99391499D01*
X192780486Y-99392135D01*
X192786080Y-99395502D01*
X192795121Y-99402928D01*
X192806096Y-99413122D01*
X192812187Y-99419212D01*
X192824981Y-99433162D01*
X192834614Y-99446115D01*
X192842244Y-99460169D01*
X192849034Y-99477423D01*
X192855323Y-99497220D01*
X192862010Y-99512736D01*
X192872277Y-99528933D01*
X192884288Y-99543317D01*
X192896206Y-99553395D01*
X192897086Y-99553932D01*
X192907402Y-99563018D01*
X192917805Y-99577576D01*
X192920895Y-99583053D01*
X192931221Y-99599304D01*
X192944134Y-99612830D01*
X192955104Y-99621525D01*
X192967386Y-99629686D01*
X192983008Y-99638846D01*
X193000469Y-99648265D01*
X193018270Y-99657201D01*
X193034909Y-99664911D01*
X193048888Y-99670654D01*
X193058706Y-99673686D01*
X193061132Y-99673975D01*
X193071473Y-99671372D01*
X193083376Y-99664784D01*
X193093936Y-99655998D01*
X193097710Y-99651476D01*
X193102348Y-99644686D01*
X193109717Y-99633695D01*
X193118546Y-99620402D01*
X193122726Y-99614070D01*
X193135282Y-99595075D01*
X193144675Y-99581122D01*
X193151722Y-99571136D01*
X193157240Y-99564044D01*
X193162047Y-99558771D01*
X193166959Y-99554243D01*
X193170546Y-99551233D01*
X193180980Y-99544563D01*
X193195161Y-99537893D01*
X193207617Y-99533439D01*
X193224571Y-99527247D01*
X193236836Y-99519692D01*
X193243833Y-99513022D01*
X193251457Y-99503504D01*
X193260185Y-99490922D01*
X193268997Y-99476981D01*
X193276872Y-99463384D01*
X193282790Y-99451837D01*
X193285730Y-99444042D01*
X193285881Y-99442807D01*
X193288000Y-99436478D01*
X193289529Y-99435020D01*
X193292646Y-99429849D01*
X193293178Y-99426029D01*
X193294600Y-99420862D01*
X193299178Y-99413166D01*
X193307377Y-99402343D01*
X193319661Y-99387792D01*
X193336497Y-99368917D01*
X193343670Y-99361048D01*
X193355818Y-99347241D01*
X193364215Y-99335848D01*
X193370410Y-99324263D01*
X193375951Y-99309884D01*
X193378360Y-99302674D01*
X193383325Y-99288401D01*
X193387900Y-99276890D01*
X193391385Y-99269842D01*
X193392466Y-99268541D01*
X193393319Y-99263875D01*
X193390837Y-99253601D01*
X193387011Y-99243002D01*
X193381860Y-99229143D01*
X193377602Y-99216254D01*
X193375408Y-99208163D01*
X193369224Y-99195220D01*
X193357719Y-99185066D01*
X193342714Y-99178979D01*
X193332273Y-99177809D01*
X193310375Y-99180277D01*
X193292396Y-99187373D01*
X193282997Y-99194708D01*
X193276363Y-99201163D01*
X193272025Y-99202595D01*
X193267148Y-99199167D01*
X193263766Y-99195827D01*
X193254885Y-99190030D01*
X193246819Y-99191410D01*
X193239332Y-99200021D01*
X193238472Y-99201524D01*
X193234798Y-99207180D01*
X193230195Y-99210774D01*
X193222779Y-99213090D01*
X193210666Y-99214913D01*
X193204640Y-99215617D01*
X193187528Y-99216847D01*
X193172206Y-99216683D01*
X193162959Y-99215496D01*
X193149067Y-99212226D01*
X193147243Y-99189835D01*
X193144356Y-99171528D01*
X193138539Y-99159275D01*
X193128764Y-99152084D01*
X193113999Y-99148965D01*
X193104442Y-99148622D01*
X193083695Y-99149617D01*
X193066645Y-99152408D01*
X193054401Y-99156706D01*
X193048076Y-99162222D01*
X193047631Y-99163398D01*
X193043071Y-99169188D01*
X193035721Y-99172724D01*
X193027885Y-99173406D01*
X193021599Y-99169750D01*
X193017112Y-99164682D01*
X193011539Y-99156871D01*
X193008710Y-99151255D01*
X193008622Y-99150665D01*
X193006107Y-99146472D01*
X192999672Y-99139410D01*
X192994177Y-99134179D01*
X192980675Y-99118622D01*
X192971732Y-99101291D01*
X192968472Y-99084370D01*
X192968472Y-99084268D01*
X192966545Y-99075580D01*
X192961928Y-99067139D01*
X192956369Y-99061746D01*
X192954014Y-99061061D01*
X192951833Y-99064256D01*
X192949173Y-99072286D01*
X192948195Y-99076243D01*
X192945460Y-99085669D01*
X192941245Y-99091053D01*
X192933241Y-99094664D01*
X192927773Y-99096319D01*
X192917782Y-99099740D01*
X192911462Y-99104197D01*
X192906611Y-99111834D01*
X192902689Y-99120753D01*
X192897339Y-99132301D01*
X192891505Y-99140642D01*
X192883947Y-99146291D01*
X192873422Y-99149760D01*
X192858690Y-99151564D01*
X192838508Y-99152216D01*
X192826521Y-99152270D01*
X192805993Y-99152423D01*
X192791213Y-99153002D01*
X192780639Y-99154192D01*
X192772726Y-99156176D01*
X192765931Y-99159137D01*
X192765116Y-99159567D01*
X192752150Y-99164426D01*
X192738129Y-99166813D01*
X192736241Y-99166864D01*
X192727917Y-99166806D01*
X192721518Y-99167195D01*
X192716791Y-99168875D01*
X192713484Y-99172692D01*
X192711346Y-99179491D01*
X192710124Y-99190115D01*
X192709567Y-99205411D01*
X192709422Y-99226222D01*
X192633461Y-99226222D01*
X192636234Y-99217622D01*
X192636922Y-99211672D01*
X192638419Y-99203883D01*
X192644117Y-99192086D01*
X192653228Y-99177603D01*
X192664967Y-99161753D01*
X192671003Y-99154402D01*
X192681497Y-99140747D01*
X192689827Y-99127481D01*
X192694528Y-99116950D01*
X192694614Y-99116641D01*
X192697144Y-99108430D01*
X192700466Y-99103849D01*
X192706655Y-99101488D01*
X192717785Y-99099939D01*
X192719490Y-99099747D01*
X192732228Y-99098570D01*
X192749563Y-99097298D01*
X192768800Y-99096118D01*
X192780581Y-99095512D01*
X192804792Y-99093557D01*
X192823766Y-99090309D01*
X192836919Y-99085929D01*
X192843667Y-99080579D01*
X192844459Y-99077816D01*
X192846791Y-99072978D01*
X192852668Y-99065249D01*
X192856384Y-99061061D01*
X192866315Y-99049871D01*
X192876760Y-99037340D01*
X192879726Y-99033603D01*
X192896952Y-99017065D01*
X192917941Y-99006762D01*
X192942584Y-99002745D01*
X192946187Y-99002687D01*
X192964444Y-99003829D01*
X192979633Y-99007891D01*
X192993774Y-99015828D01*
X193008884Y-99028596D01*
X193016159Y-99035785D01*
X193030222Y-99049023D01*
X193042734Y-99057522D01*
X193056111Y-99062282D01*
X193072773Y-99064305D01*
X193085895Y-99064622D01*
X193100474Y-99065271D01*
X193112722Y-99067607D01*
X193124776Y-99072422D01*
X193138773Y-99080509D01*
X193151365Y-99088876D01*
X193165838Y-99099685D01*
X193175135Y-99109111D01*
X193180757Y-99118711D01*
X193181170Y-99119728D01*
X193186788Y-99134029D01*
X193208373Y-99134029D01*
X193221448Y-99133514D01*
X193230923Y-99131178D01*
X193240200Y-99125831D01*
X193247518Y-99120347D01*
X193265079Y-99106666D01*
X193317197Y-99106666D01*
X193337697Y-99106711D01*
X193352240Y-99106985D01*
X193362167Y-99107695D01*
X193368818Y-99109047D01*
X193373532Y-99111249D01*
X193377651Y-99114507D01*
X193379587Y-99116297D01*
X193389558Y-99124122D01*
X193401828Y-99131825D01*
X193405365Y-99133701D01*
X193415119Y-99139365D01*
X193419705Y-99144802D01*
X193420870Y-99152110D01*
X193420871Y-99152314D01*
X193423610Y-99163048D01*
X193428168Y-99167711D01*
X193433856Y-99172361D01*
X193435464Y-99175191D01*
X193437714Y-99179753D01*
X193442430Y-99185591D01*
X193452262Y-99199076D01*
X193461582Y-99216848D01*
X193469058Y-99235946D01*
X193473363Y-99253406D01*
X193473571Y-99254975D01*
X193474633Y-99263875D01*
X193476030Y-99275591D01*
X193452117Y-99305211D01*
X193434537Y-99329315D01*
X193421754Y-99352598D01*
X193417002Y-99363878D01*
X193408435Y-99383289D01*
X193399838Y-99396707D01*
X193393622Y-99403027D01*
X193382497Y-99416224D01*
X193377522Y-99427819D01*
X193373032Y-99440240D01*
X193365775Y-99452648D01*
X193354724Y-99466527D01*
X193339371Y-99482832D01*
X193329506Y-99493975D01*
X193317803Y-99508933D01*
X193306143Y-99525246D01*
X193300898Y-99533169D01*
X193280079Y-99565648D01*
X193302661Y-99815918D01*
X193307343Y-99868107D01*
X193311387Y-99914016D01*
X193314860Y-99954626D01*
X193317828Y-99990920D01*
X193320357Y-100023881D01*
X193322512Y-100054490D01*
X193324359Y-100083730D01*
X193325965Y-100112583D01*
X193327395Y-100142032D01*
X193328716Y-100173059D01*
X193329993Y-100206646D01*
X193331208Y-100241311D01*
X193332651Y-100283319D01*
X193334302Y-100330782D01*
X193336097Y-100381865D01*
X193337971Y-100434731D01*
X193339857Y-100487544D01*
X193341691Y-100538468D01*
X193343408Y-100585667D01*
X193344160Y-100606149D01*
X193345645Y-100649500D01*
X193347049Y-100696242D01*
X193348334Y-100744758D01*
X193349464Y-100793434D01*
X193350405Y-100840655D01*
X193351120Y-100884806D01*
X193351573Y-100924271D01*
X193351706Y-100945448D01*
X193352020Y-101029852D01*
X193352263Y-101095031D01*
X193335401Y-101186241D01*
X193327550Y-101227868D01*
X193319942Y-101266252D01*
X193312191Y-101303136D01*
X193303909Y-101340262D01*
X193294709Y-101379372D01*
X193284203Y-101422211D01*
X193273549Y-101464456D01*
X193267264Y-101489565D01*
X193261218Y-101514500D01*
X193255794Y-101537618D01*
X193255229Y-101540133D01*
X193251377Y-101557278D01*
X193248350Y-101571836D01*
X193247961Y-101573907D01*
X193245650Y-101586412D01*
X193242243Y-101604686D01*
X193238003Y-101627328D01*
X193233192Y-101652937D01*
X193228473Y-101677994D01*
X193228074Y-101680112D01*
X193224194Y-101700662D01*
X193218830Y-101729379D01*
X193212590Y-101763333D01*
X193205829Y-101800568D01*
X193198898Y-101839127D01*
X193192152Y-101877057D01*
X193185943Y-101912399D01*
X193185076Y-101917379D01*
X193179210Y-101950843D01*
X193174362Y-101977786D01*
X193170381Y-101998889D01*
X193167112Y-102014833D01*
X193164405Y-102026298D01*
X193162105Y-102033965D01*
X193160061Y-102038517D01*
X193158120Y-102040633D01*
X193157387Y-102040937D01*
X193151927Y-102043278D01*
X193150891Y-102044621D01*
X193150197Y-102048597D01*
X193148244Y-102058739D01*
X193145227Y-102074064D01*
X193141342Y-102093587D01*
X193136781Y-102116326D01*
X193132748Y-102136317D01*
X193127397Y-102163761D01*
X193121337Y-102196510D01*
X193114901Y-102232647D01*
X193108426Y-102270255D01*
X193102245Y-102307418D01*
X193096694Y-102342218D01*
X193096043Y-102346424D01*
X193089812Y-102386504D01*
X193084382Y-102420490D01*
X193079527Y-102449514D01*
X193075021Y-102474705D01*
X193070638Y-102497196D01*
X193066153Y-102518116D01*
X193061338Y-102538596D01*
X193055969Y-102559768D01*
X193049819Y-102582761D01*
X193046092Y-102596338D01*
X193040476Y-102616779D01*
X193035460Y-102635243D01*
X193031406Y-102650379D01*
X193028678Y-102660833D01*
X193027730Y-102664745D01*
X193025253Y-102671144D01*
X193022999Y-102672954D01*
X193019373Y-102675683D01*
X193013246Y-102682701D01*
X193010388Y-102686478D01*
X193008471Y-102689012D01*
X192998995Y-102700240D01*
X192987462Y-102711110D01*
X192975649Y-102720216D01*
X192965334Y-102726153D01*
X192959589Y-102727680D01*
X192953933Y-102730686D01*
X192949426Y-102737108D01*
X192945105Y-102743666D01*
X192938758Y-102745183D01*
X192933999Y-102744562D01*
X192906055Y-102740427D01*
X192875213Y-102737262D01*
X192843085Y-102735114D01*
X192811280Y-102734031D01*
X192781412Y-102734062D01*
X192755091Y-102735255D01*
X192733928Y-102737656D01*
X192729503Y-102738478D01*
X192719604Y-102739812D01*
X192702943Y-102741188D01*
X192680054Y-102742587D01*
X192651471Y-102743990D01*
X192617730Y-102745375D01*
X192579363Y-102746725D01*
X192536906Y-102748019D01*
X192490894Y-102749238D01*
X192441859Y-102750363D01*
X192390337Y-102751373D01*
X192365417Y-102751802D01*
X192334563Y-102752377D01*
X192306170Y-102753034D01*
X192281025Y-102753744D01*
X192259914Y-102754481D01*
X192243623Y-102755215D01*
X192232939Y-102755919D01*
X192228647Y-102756566D01*
X192228603Y-102756656D01*
X192230349Y-102760197D01*
X192235157Y-102769839D01*
X192242814Y-102785159D01*
X192253110Y-102805737D01*
X192265832Y-102831150D01*
X192280771Y-102860977D01*
X192297715Y-102894796D01*
X192316452Y-102932185D01*
X192336771Y-102972723D01*
X192358462Y-103015989D01*
X192381312Y-103061560D01*
X192405111Y-103109016D01*
X192408446Y-103115665D01*
X192436477Y-103171544D01*
X192461432Y-103221256D01*
X192483498Y-103265159D01*
X192502867Y-103303610D01*
X192519727Y-103336966D01*
X192534269Y-103365586D01*
X192546683Y-103389827D01*
X192557157Y-103410046D01*
X192565882Y-103426601D01*
X192573046Y-103439850D01*
X192578841Y-103450150D01*
X192583455Y-103457859D01*
X192587079Y-103463334D01*
X192589901Y-103466933D01*
X192592112Y-103469014D01*
X192593902Y-103469933D01*
X192595459Y-103470050D01*
X192596338Y-103469888D01*
X192604754Y-103468258D01*
X192617415Y-103466249D01*
X192629173Y-103464617D01*
X192670466Y-103456687D01*
X192709437Y-103444585D01*
X192716366Y-103442410D01*
X192724704Y-103440814D01*
X192735584Y-103439724D01*
X192750136Y-103439070D01*
X192769493Y-103438779D01*
X192794786Y-103438781D01*
X192800647Y-103438809D01*
X192837254Y-103439300D01*
X192867825Y-103440417D01*
X192893604Y-103442291D01*
X192915835Y-103445055D01*
X192935762Y-103448839D01*
X192954628Y-103453774D01*
X192960903Y-103455699D01*
X192997999Y-103471100D01*
X193032716Y-103493075D01*
X193065230Y-103521765D01*
X193095712Y-103557314D01*
X193111806Y-103580040D01*
X193128801Y-103606631D01*
X193141710Y-103629599D01*
X193151262Y-103650806D01*
X193158183Y-103672112D01*
X193163204Y-103695380D01*
X193166845Y-103720750D01*
X193171536Y-103776332D01*
X193171496Y-103826718D01*
X193170161Y-103839247D01*
X193166636Y-103872337D01*
X193156869Y-103913621D01*
X193142108Y-103951001D01*
X193122265Y-103984907D01*
X193109840Y-104001395D01*
X193101829Y-104009546D01*
X193090788Y-104017555D01*
X193075350Y-104026308D01*
X193058162Y-104034796D01*
X193041076Y-104043108D01*
X193030146Y-104049219D01*
X193025565Y-104053478D01*
X193027528Y-104056236D01*
X193036228Y-104057843D01*
X193051858Y-104058649D01*
X193071539Y-104058974D01*
X193107110Y-104059337D01*
X193107110Y-104077579D01*
X193107110Y-104095821D01*
X193123305Y-104095821D01*
X193139499Y-104095821D01*
X193141411Y-104111327D01*
X193141891Y-104118125D01*
X193142502Y-104131316D01*
X193143220Y-104149999D01*
X193144019Y-104173273D01*
X193144876Y-104200236D01*
X193145767Y-104229986D01*
X193146666Y-104261622D01*
X193147550Y-104294242D01*
X193148394Y-104326945D01*
X193149174Y-104358828D01*
X193149866Y-104388992D01*
X193150445Y-104416534D01*
X193150887Y-104440552D01*
X193151167Y-104460145D01*
X193151262Y-104474411D01*
X193151258Y-104476047D01*
X193150791Y-104497489D01*
X193149592Y-104524820D01*
X193147760Y-104556679D01*
X193145647Y-104588021D01*
X193145398Y-104591708D01*
X193142605Y-104628546D01*
X193139482Y-104665832D01*
X193136131Y-104702208D01*
X193132652Y-104736312D01*
X193130634Y-104754353D01*
X193121365Y-104824509D01*
X193109887Y-104893625D01*
X193095983Y-104962401D01*
X193079436Y-105031536D01*
X193060030Y-105101730D01*
X193037547Y-105173682D01*
X193011770Y-105248092D01*
X192982483Y-105325658D01*
X192949469Y-105407081D01*
X192912510Y-105493059D01*
X192877233Y-105571556D01*
X192861841Y-105605017D01*
X192848664Y-105633173D01*
X192837007Y-105657408D01*
X192826172Y-105679106D01*
X192815461Y-105699653D01*
X192804179Y-105720432D01*
X192791628Y-105742827D01*
X192786304Y-105752184D01*
X192741854Y-105826391D01*
X192696436Y-105894610D01*
X192648999Y-105958149D01*
X192598493Y-106018314D01*
X192543866Y-106076415D01*
X192484070Y-106133759D01*
X192468644Y-106147723D01*
X192395174Y-106211283D01*
X192324130Y-106268131D01*
X192255336Y-106318371D01*
X192188617Y-106362105D01*
X192123796Y-106399438D01*
X192060696Y-106430474D01*
X191999142Y-106455317D01*
X191938956Y-106474070D01*
X191898904Y-106483361D01*
X191869897Y-106488825D01*
X191843385Y-106493208D01*
X191820235Y-106496410D01*
X191801312Y-106498331D01*
X191787482Y-106498871D01*
X191779610Y-106497931D01*
X191778451Y-106497262D01*
X191773088Y-106495818D01*
X191760564Y-106494978D01*
X191740992Y-106494747D01*
X191714482Y-106495125D01*
X191704819Y-106495369D01*
X191662998Y-106496048D01*
X191616898Y-106495975D01*
X191567778Y-106495209D01*
X191516897Y-106493805D01*
X191465514Y-106491820D01*
X191414887Y-106489311D01*
X191366276Y-106486335D01*
X191320939Y-106482949D01*
X191280134Y-106479209D01*
X191245122Y-106475172D01*
X191239141Y-106474365D01*
X191203229Y-106468758D01*
X191162659Y-106461352D01*
X191118520Y-106452419D01*
X191071902Y-106442235D01*
X191023891Y-106431071D01*
X190975579Y-106419203D01*
X190928052Y-106406905D01*
X190882401Y-106394448D01*
X190839714Y-106382109D01*
X190801080Y-106370159D01*
X190767587Y-106358874D01*
X190742962Y-106349602D01*
X190714714Y-106337754D01*
X190683943Y-106324072D01*
X190652133Y-106309280D01*
X190620771Y-106294100D01*
X190591343Y-106279255D01*
X190565333Y-106265467D01*
X190544227Y-106253461D01*
X190539673Y-106250687D01*
X190474940Y-106206381D01*
X190414210Y-106156235D01*
X190357267Y-106100048D01*
X190303893Y-106037616D01*
X190285118Y-106013043D01*
X190258152Y-105975147D01*
X190233447Y-105936981D01*
X190210178Y-105897081D01*
X190187521Y-105853981D01*
X190164653Y-105806219D01*
X190148593Y-105770402D01*
X190139060Y-105748755D01*
X190130030Y-105728437D01*
X190122091Y-105710761D01*
X190115833Y-105697036D01*
X190111845Y-105688575D01*
X190111620Y-105688120D01*
X190108971Y-105681233D01*
X190104780Y-105668421D01*
X190099368Y-105650816D01*
X190093052Y-105629550D01*
X190086151Y-105605755D01*
X190078983Y-105580561D01*
X190071867Y-105555101D01*
X190065121Y-105530506D01*
X190059064Y-105507908D01*
X190054014Y-105488438D01*
X190050291Y-105473227D01*
X190048211Y-105463408D01*
X190048013Y-105462138D01*
X190046737Y-105455548D01*
X190043973Y-105443026D01*
X190039989Y-105425723D01*
X190035051Y-105404790D01*
X190029428Y-105381376D01*
X190025997Y-105367280D01*
X190015525Y-105323608D01*
X190005803Y-105281162D01*
X189996739Y-105239325D01*
X189988240Y-105197479D01*
X189980212Y-105155004D01*
X189972562Y-105111282D01*
X189965197Y-105065695D01*
X189958024Y-105017623D01*
X189950950Y-104966450D01*
X189943881Y-104911554D01*
X189936724Y-104852319D01*
X189929386Y-104788126D01*
X189921773Y-104718356D01*
X189913793Y-104642390D01*
X189907518Y-104581055D01*
X189901844Y-104525510D01*
X189896757Y-104476745D01*
X189892194Y-104434276D01*
X189888095Y-104397616D01*
X189884398Y-104366278D01*
X189881042Y-104339776D01*
X189877966Y-104317623D01*
X189875108Y-104299334D01*
X189872407Y-104284421D01*
X189869801Y-104272399D01*
X189867487Y-104263646D01*
X189865401Y-104255852D01*
X189863789Y-104247758D01*
X189862600Y-104238357D01*
X189861786Y-104226641D01*
X189861295Y-104211601D01*
X189861136Y-104197446D01*
X190099554Y-104197446D01*
X190100051Y-104210673D01*
X190101240Y-104229274D01*
X190103146Y-104253555D01*
X190105793Y-104283824D01*
X190109206Y-104320389D01*
X190113409Y-104363558D01*
X190118426Y-104413638D01*
X190118939Y-104418702D01*
X190122727Y-104457001D01*
X190126002Y-104492446D01*
X190128894Y-104526748D01*
X190131533Y-104561618D01*
X190134049Y-104598769D01*
X190136571Y-104639910D01*
X190139035Y-104683210D01*
X190141403Y-104726175D01*
X190143368Y-104762589D01*
X190144935Y-104793186D01*
X190146111Y-104818701D01*
X190146899Y-104839867D01*
X190147308Y-104857419D01*
X190147342Y-104872091D01*
X190147007Y-104884618D01*
X190146309Y-104895733D01*
X190145254Y-104906171D01*
X190143847Y-104916667D01*
X190142095Y-104927953D01*
X190141019Y-104934562D01*
X190137956Y-104954623D01*
X190135848Y-104972456D01*
X190134579Y-104990108D01*
X190134032Y-105009624D01*
X190134093Y-105033051D01*
X190134402Y-105051310D01*
X190135078Y-105077411D01*
X190135966Y-105097296D01*
X190137164Y-105112048D01*
X190138770Y-105122748D01*
X190140883Y-105130476D01*
X190141846Y-105132872D01*
X190144941Y-105141293D01*
X190145484Y-105146112D01*
X190144932Y-105146554D01*
X190143905Y-105146779D01*
X190143367Y-105148056D01*
X190143466Y-105151284D01*
X190144352Y-105157365D01*
X190146173Y-105167198D01*
X190149079Y-105181683D01*
X190153218Y-105201722D01*
X190157307Y-105221345D01*
X190164803Y-105271454D01*
X190166006Y-105319324D01*
X190160924Y-105364391D01*
X190154136Y-105392317D01*
X190149550Y-105408215D01*
X190147029Y-105419590D01*
X190146338Y-105428847D01*
X190147242Y-105438387D01*
X190148800Y-105447043D01*
X190151770Y-105459419D01*
X190155067Y-105468972D01*
X190157515Y-105473083D01*
X190159519Y-105477666D01*
X190162523Y-105488259D01*
X190166245Y-105503690D01*
X190170403Y-105522787D01*
X190174717Y-105544376D01*
X190175037Y-105546051D01*
X190189450Y-105614604D01*
X190205604Y-105676998D01*
X190223940Y-105734254D01*
X190244898Y-105787393D01*
X190268919Y-105837437D01*
X190296441Y-105885405D01*
X190327907Y-105932320D01*
X190359556Y-105973980D01*
X190376948Y-105994470D01*
X190398086Y-106017372D01*
X190421590Y-106041355D01*
X190446085Y-106065086D01*
X190470191Y-106087232D01*
X190492532Y-106106459D01*
X190511730Y-106121436D01*
X190512736Y-106122160D01*
X190553479Y-106148955D01*
X190597958Y-106173633D01*
X190647056Y-106196604D01*
X190701654Y-106218282D01*
X190762636Y-106239078D01*
X190763842Y-106239461D01*
X190789310Y-106247558D01*
X190819053Y-106257048D01*
X190850403Y-106267078D01*
X190880693Y-106276795D01*
X190901580Y-106283515D01*
X190970737Y-106305093D01*
X191034995Y-106323566D01*
X191095890Y-106339271D01*
X191154956Y-106352546D01*
X191213730Y-106363730D01*
X191273745Y-106373159D01*
X191336536Y-106381173D01*
X191354065Y-106383127D01*
X191438097Y-106390844D01*
X191518878Y-106395479D01*
X191595634Y-106397022D01*
X191667590Y-106395463D01*
X191733971Y-106390789D01*
X191753563Y-106388675D01*
X191777189Y-106385657D01*
X191801768Y-106382104D01*
X191826137Y-106378226D01*
X191849135Y-106374235D01*
X191869599Y-106370343D01*
X191886368Y-106366759D01*
X191898280Y-106363696D01*
X191904172Y-106361365D01*
X191904278Y-106361280D01*
X191908457Y-106358846D01*
X191918411Y-106353576D01*
X191933368Y-106345861D01*
X191952559Y-106336095D01*
X191975213Y-106324669D01*
X192000560Y-106311976D01*
X192025367Y-106299629D01*
X192055532Y-106284528D01*
X192086328Y-106268875D01*
X192116459Y-106253344D01*
X192144629Y-106238613D01*
X192169542Y-106225355D01*
X192189902Y-106214246D01*
X192198665Y-106209312D01*
X192274415Y-106163770D01*
X192343443Y-106117636D01*
X192406321Y-106070434D01*
X192463623Y-106021690D01*
X192515921Y-105970929D01*
X192563789Y-105917676D01*
X192589835Y-105885350D01*
X192637430Y-105819309D01*
X192683378Y-105746400D01*
X192727573Y-105666884D01*
X192769908Y-105581026D01*
X192810275Y-105489088D01*
X192848568Y-105391335D01*
X192884679Y-105288028D01*
X192918502Y-105179432D01*
X192949930Y-105065810D01*
X192978855Y-104947425D01*
X192988475Y-104904423D01*
X192993167Y-104882420D01*
X192998436Y-104856810D01*
X193004109Y-104828518D01*
X193010014Y-104798467D01*
X193015976Y-104767583D01*
X193021824Y-104736789D01*
X193027383Y-104707009D01*
X193032481Y-104679169D01*
X193036945Y-104654191D01*
X193040601Y-104633001D01*
X193043277Y-104616522D01*
X193044799Y-104605680D01*
X193045088Y-104602117D01*
X193046352Y-104595493D01*
X193051520Y-104591948D01*
X193057857Y-104590417D01*
X193070627Y-104588021D01*
X193070627Y-104340097D01*
X193070627Y-104092173D01*
X193033231Y-104092175D01*
X193018488Y-104092442D01*
X193004357Y-104093391D01*
X192989309Y-104095254D01*
X192971812Y-104098259D01*
X192950339Y-104102637D01*
X192923357Y-104108615D01*
X192922867Y-104108726D01*
X192864649Y-104121326D01*
X192810691Y-104131777D01*
X192761781Y-104139940D01*
X192718711Y-104145675D01*
X192709437Y-104146664D01*
X192697796Y-104147456D01*
X192679446Y-104148200D01*
X192654974Y-104148893D01*
X192624968Y-104149533D01*
X192590015Y-104150117D01*
X192550702Y-104150643D01*
X192507617Y-104151108D01*
X192461348Y-104151509D01*
X192412482Y-104151844D01*
X192361606Y-104152111D01*
X192309308Y-104152306D01*
X192256175Y-104152428D01*
X192202794Y-104152474D01*
X192149754Y-104152440D01*
X192097641Y-104152326D01*
X192047042Y-104152127D01*
X191998547Y-104151842D01*
X191952741Y-104151468D01*
X191910212Y-104151002D01*
X191871548Y-104150443D01*
X191864838Y-104150328D01*
X191828169Y-104149669D01*
X191792054Y-104148981D01*
X191755997Y-104148253D01*
X191719501Y-104147471D01*
X191682068Y-104146620D01*
X191643201Y-104145688D01*
X191602403Y-104144661D01*
X191559177Y-104143525D01*
X191513026Y-104142267D01*
X191463452Y-104140874D01*
X191409957Y-104139331D01*
X191352046Y-104137627D01*
X191289221Y-104135746D01*
X191220984Y-104133675D01*
X191146838Y-104131402D01*
X191066287Y-104128912D01*
X190998349Y-104126800D01*
X190949782Y-104125289D01*
X190901179Y-104123779D01*
X190853351Y-104122296D01*
X190807107Y-104120864D01*
X190763260Y-104119509D01*
X190722621Y-104118256D01*
X190686000Y-104117129D01*
X190654208Y-104116154D01*
X190628057Y-104115356D01*
X190608357Y-104114759D01*
X190607751Y-104114741D01*
X190580185Y-104114048D01*
X190553504Y-104113627D01*
X190529042Y-104113480D01*
X190508134Y-104113609D01*
X190492113Y-104114017D01*
X190483706Y-104114545D01*
X190465271Y-104116001D01*
X190444467Y-104117072D01*
X190428290Y-104117486D01*
X190413948Y-104117791D01*
X190405436Y-104118663D01*
X190401290Y-104120462D01*
X190400045Y-104123549D01*
X190400015Y-104124443D01*
X190396453Y-104133749D01*
X190385903Y-104141730D01*
X190368567Y-104148304D01*
X190344645Y-104153386D01*
X190323399Y-104156081D01*
X190312239Y-104157462D01*
X190295934Y-104159825D01*
X190276520Y-104162860D01*
X190256032Y-104166259D01*
X190252256Y-104166908D01*
X190227926Y-104170694D01*
X190200517Y-104174290D01*
X190173559Y-104177266D01*
X190152613Y-104179056D01*
X190134370Y-104180535D01*
X190118706Y-104182244D01*
X190107087Y-104183991D01*
X190100983Y-104185583D01*
X190100542Y-104185877D01*
X190099726Y-104189283D01*
X190099554Y-104197446D01*
X189861136Y-104197446D01*
X189861077Y-104192230D01*
X189861081Y-104167518D01*
X189861243Y-104138534D01*
X189861476Y-104107639D01*
X189861790Y-104083266D01*
X189862327Y-104064642D01*
X189863232Y-104050990D01*
X189864649Y-104041538D01*
X189866721Y-104035511D01*
X189869593Y-104032134D01*
X189873406Y-104030634D01*
X189878307Y-104030235D01*
X189881350Y-104030206D01*
X189888980Y-104027523D01*
X189893967Y-104019312D01*
X189898058Y-104008473D01*
X190007866Y-104010729D01*
X190036124Y-104011220D01*
X190062585Y-104011507D01*
X190086210Y-104011594D01*
X190105960Y-104011482D01*
X190120795Y-104011173D01*
X190129676Y-104010670D01*
X190130985Y-104010489D01*
X190139165Y-104008126D01*
X190142268Y-104004214D01*
X190140391Y-103997467D01*
X190133628Y-103986598D01*
X190132859Y-103985483D01*
X190128744Y-103977664D01*
X190128050Y-103972090D01*
X190128195Y-103971801D01*
X190127930Y-103968421D01*
X190126602Y-103968128D01*
X190123673Y-103965014D01*
X190122738Y-103959222D01*
X190121637Y-103951670D01*
X190119727Y-103948456D01*
X190117642Y-103944256D01*
X190114699Y-103934680D01*
X190111424Y-103921514D01*
X190110281Y-103916317D01*
X190106923Y-103901583D01*
X190103667Y-103889086D01*
X190101081Y-103880966D01*
X190100522Y-103879704D01*
X190097628Y-103870807D01*
X190097199Y-103866753D01*
X190095331Y-103859111D01*
X190093554Y-103856491D01*
X190091359Y-103851298D01*
X190088916Y-103840941D01*
X190086707Y-103827513D01*
X190086432Y-103825419D01*
X190084823Y-103809207D01*
X190085019Y-103796791D01*
X190086062Y-103791182D01*
X190172310Y-103791182D01*
X190172630Y-103811241D01*
X190173566Y-103830682D01*
X190174973Y-103847272D01*
X190176684Y-103858677D01*
X190179706Y-103874373D01*
X190182214Y-103890967D01*
X190182957Y-103897462D01*
X190184371Y-103908085D01*
X190186803Y-103918472D01*
X190190807Y-103930187D01*
X190196939Y-103944793D01*
X190205754Y-103963855D01*
X190208786Y-103970217D01*
X190216474Y-103985141D01*
X190223731Y-103995144D01*
X190232205Y-104001085D01*
X190243545Y-104003822D01*
X190259402Y-104004216D01*
X190272920Y-104003622D01*
X190300806Y-104001103D01*
X190321594Y-103997034D01*
X190335270Y-103991418D01*
X190338960Y-103988530D01*
X190345538Y-103983493D01*
X190354729Y-103978028D01*
X190355066Y-103977853D01*
X190365506Y-103970760D01*
X190374907Y-103961822D01*
X190374964Y-103961754D01*
X190380701Y-103953412D01*
X190388302Y-103940295D01*
X190396756Y-103924334D01*
X190405053Y-103907460D01*
X190412182Y-103891606D01*
X190414096Y-103886952D01*
X190418908Y-103878281D01*
X190423413Y-103876395D01*
X190427359Y-103880783D01*
X190430497Y-103890933D01*
X190432577Y-103906334D01*
X190433348Y-103926294D01*
X190433074Y-103944122D01*
X190431885Y-103957177D01*
X190429353Y-103967965D01*
X190425054Y-103978995D01*
X190424013Y-103981302D01*
X190417630Y-103996619D01*
X190415131Y-104006873D01*
X190416480Y-104013155D01*
X190421640Y-104016556D01*
X190422817Y-104016906D01*
X190427309Y-104017146D01*
X190438710Y-104017380D01*
X190456635Y-104017606D01*
X190480698Y-104017823D01*
X190510510Y-104018028D01*
X190545686Y-104018222D01*
X190585840Y-104018402D01*
X190630584Y-104018566D01*
X190679532Y-104018714D01*
X190732298Y-104018845D01*
X190788494Y-104018955D01*
X190847735Y-104019045D01*
X190909633Y-104019113D01*
X190973802Y-104019157D01*
X191034832Y-104019175D01*
X191126314Y-104019200D01*
X191210922Y-104019258D01*
X191289077Y-104019359D01*
X191361201Y-104019513D01*
X191427716Y-104019727D01*
X191489045Y-104020012D01*
X191545608Y-104020377D01*
X191597830Y-104020830D01*
X191646130Y-104021381D01*
X191690932Y-104022039D01*
X191732657Y-104022813D01*
X191771727Y-104023712D01*
X191808565Y-104024746D01*
X191843592Y-104025923D01*
X191877230Y-104027253D01*
X191909901Y-104028746D01*
X191942028Y-104030409D01*
X191974032Y-104032252D01*
X192006335Y-104034285D01*
X192039360Y-104036516D01*
X192073528Y-104038955D01*
X192109261Y-104041611D01*
X192125392Y-104042836D01*
X192181848Y-104046639D01*
X192241526Y-104049731D01*
X192303318Y-104052103D01*
X192366115Y-104053751D01*
X192428808Y-104054665D01*
X192490290Y-104054841D01*
X192549452Y-104054271D01*
X192605185Y-104052948D01*
X192656381Y-104050866D01*
X192701931Y-104048017D01*
X192720382Y-104046475D01*
X192791526Y-104039968D01*
X192811986Y-104017765D01*
X192822447Y-104006804D01*
X192829438Y-104000695D01*
X192834116Y-103998649D01*
X192837636Y-103999875D01*
X192837861Y-104000055D01*
X192843266Y-104002825D01*
X192845421Y-104002402D01*
X192848150Y-104004017D01*
X192852647Y-104010547D01*
X192855192Y-104015203D01*
X192860539Y-104024127D01*
X192865275Y-104029472D01*
X192866807Y-104030150D01*
X192872245Y-104028478D01*
X192881110Y-104024284D01*
X192884665Y-104022356D01*
X192898534Y-104014561D01*
X192868744Y-103984922D01*
X192852737Y-103968182D01*
X192840457Y-103953015D01*
X192829819Y-103936584D01*
X192820165Y-103918837D01*
X192808673Y-103895248D01*
X192799676Y-103874110D01*
X192793512Y-103856381D01*
X192790517Y-103843021D01*
X192790869Y-103835357D01*
X192792548Y-103833187D01*
X192796342Y-103831617D01*
X192803272Y-103830556D01*
X192814354Y-103829909D01*
X192830610Y-103829585D01*
X192853056Y-103829490D01*
X192855258Y-103829490D01*
X192877909Y-103829535D01*
X192894277Y-103829748D01*
X192905377Y-103830239D01*
X192912223Y-103831122D01*
X192915830Y-103832508D01*
X192917210Y-103834510D01*
X192917395Y-103836372D01*
X192915769Y-103840956D01*
X192909825Y-103843926D01*
X192900065Y-103845853D01*
X192883861Y-103849367D01*
X192871304Y-103854203D01*
X192866929Y-103857039D01*
X192868334Y-103860278D01*
X192873079Y-103868250D01*
X192880373Y-103879672D01*
X192887419Y-103890293D01*
X192904595Y-103913707D01*
X192922219Y-103933931D01*
X192939263Y-103949924D01*
X192954695Y-103960647D01*
X192959311Y-103962874D01*
X192980975Y-103968094D01*
X193004148Y-103966752D01*
X193027844Y-103959145D01*
X193051077Y-103945568D01*
X193069416Y-103929863D01*
X193081245Y-103917444D01*
X193089124Y-103907111D01*
X193094684Y-103896245D01*
X193099556Y-103882228D01*
X193100019Y-103880715D01*
X193104023Y-103866069D01*
X193106195Y-103853215D01*
X193106818Y-103839247D01*
X193106175Y-103821261D01*
X193106042Y-103818968D01*
X193104205Y-103798498D01*
X193101160Y-103775174D01*
X193097481Y-103753220D01*
X193096405Y-103747851D01*
X193093011Y-103731561D01*
X193090053Y-103717155D01*
X193087945Y-103706661D01*
X193087266Y-103703120D01*
X193083867Y-103692837D01*
X193077126Y-103678491D01*
X193068069Y-103661864D01*
X193057719Y-103644739D01*
X193047101Y-103628901D01*
X193037491Y-103616427D01*
X193005841Y-103583732D01*
X192971798Y-103557273D01*
X192934869Y-103536857D01*
X192894563Y-103522293D01*
X192850390Y-103513388D01*
X192801857Y-103509948D01*
X192767501Y-103510564D01*
X192745659Y-103512233D01*
X192726363Y-103514857D01*
X192710740Y-103518183D01*
X192699915Y-103521960D01*
X192695015Y-103525937D01*
X192694844Y-103526805D01*
X192691525Y-103530049D01*
X192682864Y-103533202D01*
X192670808Y-103535793D01*
X192657301Y-103537352D01*
X192650151Y-103537599D01*
X192632821Y-103537619D01*
X192632821Y-103554037D01*
X192634776Y-103567119D01*
X192639877Y-103577794D01*
X192646984Y-103584121D01*
X192651063Y-103585048D01*
X192654577Y-103587848D01*
X192654712Y-103588876D01*
X192651156Y-103590744D01*
X192640784Y-103591846D01*
X192624040Y-103592142D01*
X192617939Y-103592069D01*
X192600665Y-103591576D01*
X192589386Y-103590664D01*
X192582804Y-103589114D01*
X192579622Y-103586707D01*
X192579028Y-103585506D01*
X192576974Y-103581328D01*
X192571770Y-103571276D01*
X192563712Y-103555910D01*
X192553097Y-103535788D01*
X192540219Y-103511468D01*
X192525375Y-103483509D01*
X192508861Y-103452470D01*
X192490973Y-103418910D01*
X192472007Y-103383386D01*
X192466692Y-103373442D01*
X192434807Y-103313769D01*
X192406094Y-103259950D01*
X192380260Y-103211416D01*
X192357015Y-103167599D01*
X192336068Y-103127928D01*
X192317126Y-103091837D01*
X192299899Y-103058755D01*
X192284095Y-103028113D01*
X192269424Y-102999344D01*
X192255593Y-102971877D01*
X192242312Y-102945144D01*
X192229290Y-102918577D01*
X192216234Y-102891606D01*
X192202855Y-102863662D01*
X192188860Y-102834176D01*
X192173959Y-102802580D01*
X192168765Y-102791536D01*
X192159470Y-102771942D01*
X192151121Y-102754698D01*
X192144248Y-102740865D01*
X192139379Y-102731510D01*
X192137044Y-102727697D01*
X192137033Y-102727689D01*
X192134718Y-102724115D01*
X192129449Y-102714913D01*
X192121679Y-102700911D01*
X192111861Y-102682933D01*
X192100449Y-102661805D01*
X192094729Y-102651119D01*
X192383154Y-102651119D01*
X192384578Y-102663670D01*
X192386909Y-102679339D01*
X192388711Y-102691196D01*
X192517490Y-102691196D01*
X192549768Y-102691127D01*
X192581741Y-102690929D01*
X192612168Y-102690622D01*
X192639809Y-102690220D01*
X192663423Y-102689742D01*
X192681771Y-102689203D01*
X192690141Y-102688837D01*
X192734012Y-102686478D01*
X192721479Y-102675474D01*
X192712639Y-102669622D01*
X192699909Y-102663613D01*
X192684679Y-102657824D01*
X192668338Y-102652634D01*
X192652277Y-102648419D01*
X192637884Y-102645558D01*
X192626549Y-102644427D01*
X192619662Y-102645406D01*
X192618228Y-102647415D01*
X192614923Y-102649096D01*
X192606348Y-102650263D01*
X192594512Y-102650906D01*
X192581424Y-102651010D01*
X192569094Y-102650564D01*
X192559531Y-102649554D01*
X192554745Y-102647968D01*
X192554630Y-102647819D01*
X192549948Y-102645077D01*
X192541328Y-102642853D01*
X192540734Y-102642758D01*
X192530968Y-102640682D01*
X192517456Y-102637097D01*
X192505128Y-102633400D01*
X192490564Y-102629448D01*
X192476319Y-102627367D01*
X192459505Y-102626847D01*
X192446754Y-102627165D01*
X192429538Y-102628264D01*
X192413255Y-102630080D01*
X192400552Y-102632289D01*
X192397037Y-102633220D01*
X192390019Y-102635630D01*
X192385569Y-102638490D01*
X192383383Y-102643189D01*
X192383154Y-102651119D01*
X192094729Y-102651119D01*
X192087896Y-102638353D01*
X192084950Y-102632822D01*
X192072933Y-102610375D01*
X192057974Y-102582666D01*
X192040681Y-102550808D01*
X192021663Y-102515916D01*
X192001527Y-102479102D01*
X191980882Y-102441480D01*
X191960334Y-102404164D01*
X191942539Y-102371963D01*
X191910051Y-102313185D01*
X191880987Y-102260367D01*
X191855158Y-102213129D01*
X191832374Y-102171092D01*
X191812445Y-102133877D01*
X191795182Y-102101105D01*
X191780395Y-102072397D01*
X191767894Y-102047373D01*
X191757491Y-102025653D01*
X191748994Y-102006860D01*
X191742215Y-101990613D01*
X191736964Y-101976533D01*
X191733052Y-101964241D01*
X191730288Y-101953357D01*
X191728560Y-101944023D01*
X191726200Y-101928349D01*
X191693364Y-101917011D01*
X191668941Y-101909143D01*
X191648873Y-101904152D01*
X191630985Y-101901656D01*
X191613105Y-101901273D01*
X191605803Y-101901605D01*
X191593449Y-101902286D01*
X191576129Y-101903156D01*
X191556171Y-101904101D01*
X191536484Y-101904984D01*
X191510293Y-101906228D01*
X191490535Y-101907476D01*
X191476349Y-101908874D01*
X191466871Y-101910566D01*
X191461239Y-101912698D01*
X191458592Y-101915412D01*
X191458044Y-101918154D01*
X191456827Y-101923958D01*
X191455308Y-101925231D01*
X191450944Y-101925766D01*
X191440614Y-101927124D01*
X191425577Y-101929135D01*
X191407096Y-101931632D01*
X191392621Y-101933601D01*
X191332671Y-101941776D01*
X191288350Y-102051067D01*
X191273611Y-102087379D01*
X191261351Y-102117490D01*
X191251322Y-102141965D01*
X191243279Y-102161370D01*
X191236973Y-102176273D01*
X191232158Y-102187239D01*
X191228588Y-102194836D01*
X191226015Y-102199630D01*
X191224192Y-102202187D01*
X191222873Y-102203073D01*
X191222138Y-102203011D01*
X191219973Y-102205952D01*
X191215091Y-102214818D01*
X191207840Y-102228912D01*
X191198565Y-102247535D01*
X191187612Y-102269990D01*
X191175328Y-102295580D01*
X191162060Y-102323606D01*
X191157871Y-102332529D01*
X191136016Y-102378891D01*
X191112974Y-102427244D01*
X191089194Y-102476674D01*
X191065129Y-102526263D01*
X191041229Y-102575095D01*
X191017946Y-102622254D01*
X190995730Y-102666824D01*
X190975033Y-102707888D01*
X190956307Y-102744531D01*
X190940001Y-102775836D01*
X190934176Y-102786811D01*
X190899389Y-102850709D01*
X190865860Y-102909624D01*
X190832794Y-102964708D01*
X190799398Y-103017114D01*
X190764877Y-103067992D01*
X190728438Y-103118496D01*
X190689287Y-103169777D01*
X190646631Y-103222986D01*
X190599674Y-103279277D01*
X190574411Y-103308849D01*
X190556792Y-103329504D01*
X190540410Y-103349030D01*
X190525979Y-103366550D01*
X190514215Y-103381186D01*
X190505832Y-103392062D01*
X190501582Y-103398234D01*
X190490270Y-103416897D01*
X190477227Y-103436002D01*
X190463769Y-103453804D01*
X190451210Y-103468557D01*
X190441434Y-103478056D01*
X190425803Y-103490865D01*
X190414996Y-103483170D01*
X190406254Y-103474169D01*
X190400102Y-103463083D01*
X190399995Y-103462766D01*
X190395802Y-103454276D01*
X190390964Y-103450154D01*
X190390232Y-103450058D01*
X190384522Y-103451673D01*
X190374373Y-103455953D01*
X190361742Y-103462057D01*
X190358592Y-103463683D01*
X190333715Y-103479861D01*
X190308292Y-103502291D01*
X190283001Y-103530029D01*
X190258518Y-103562134D01*
X190235523Y-103597663D01*
X190214691Y-103635674D01*
X190196701Y-103675224D01*
X190186060Y-103703621D01*
X190180373Y-103720740D01*
X190176526Y-103734108D01*
X190174157Y-103746030D01*
X190172905Y-103758809D01*
X190172408Y-103774751D01*
X190172310Y-103791182D01*
X190086062Y-103791182D01*
X190087240Y-103784847D01*
X190089706Y-103776299D01*
X190094026Y-103759841D01*
X190097590Y-103741803D01*
X190098863Y-103732762D01*
X190105329Y-103692742D01*
X190115776Y-103656932D01*
X190130954Y-103623001D01*
X190138486Y-103609487D01*
X190154043Y-103582801D01*
X190166056Y-103561754D01*
X190174824Y-103545785D01*
X190180648Y-103534334D01*
X190183828Y-103526838D01*
X190184678Y-103523116D01*
X190186233Y-103515801D01*
X190190150Y-103504200D01*
X190195507Y-103490545D01*
X190201381Y-103477068D01*
X190206853Y-103466000D01*
X190210846Y-103459738D01*
X190216789Y-103453078D01*
X190219967Y-103449530D01*
X190229668Y-103439612D01*
X190241559Y-103428687D01*
X190254101Y-103418027D01*
X190265749Y-103408904D01*
X190274963Y-103402588D01*
X190279562Y-103400408D01*
X190290476Y-103397433D01*
X190297120Y-103395080D01*
X190305068Y-103393316D01*
X190317463Y-103392088D01*
X190330007Y-103391684D01*
X190342218Y-103392058D01*
X190353383Y-103393497D01*
X190365361Y-103396478D01*
X190380014Y-103401477D01*
X190399202Y-103408970D01*
X190402108Y-103410144D01*
X190416460Y-103413198D01*
X190427852Y-103409797D01*
X190435762Y-103400135D01*
X190436999Y-103397146D01*
X190440699Y-103388858D01*
X190443993Y-103384557D01*
X190444528Y-103384388D01*
X190446595Y-103381220D01*
X190447444Y-103373707D01*
X190450371Y-103363949D01*
X190457574Y-103354840D01*
X190466687Y-103348903D01*
X190471650Y-103347904D01*
X190475010Y-103347096D01*
X190476693Y-103343568D01*
X190477084Y-103335663D01*
X190476763Y-103325902D01*
X190478046Y-103314856D01*
X190484180Y-103305954D01*
X190486443Y-103303823D01*
X190495215Y-103295020D01*
X190504790Y-103284092D01*
X190507642Y-103280530D01*
X190514024Y-103272452D01*
X190523801Y-103260245D01*
X190535749Y-103245431D01*
X190548644Y-103229531D01*
X190551524Y-103225993D01*
X190597625Y-103168865D01*
X190639144Y-103116255D01*
X190676586Y-103067448D01*
X190710454Y-103021729D01*
X190741252Y-102978384D01*
X190769484Y-102936698D01*
X190795654Y-102895957D01*
X190820267Y-102855445D01*
X190843825Y-102814447D01*
X190851478Y-102800647D01*
X190866522Y-102773284D01*
X190829369Y-102774157D01*
X190819259Y-102774331D01*
X190802580Y-102774542D01*
X190780059Y-102774782D01*
X190752424Y-102775045D01*
X190720402Y-102775325D01*
X190684722Y-102775616D01*
X190646109Y-102775911D01*
X190605293Y-102776204D01*
X190563000Y-102776489D01*
X190549598Y-102776575D01*
X190484618Y-102777082D01*
X190426642Y-102777731D01*
X190375377Y-102778529D01*
X190330531Y-102779483D01*
X190291814Y-102780599D01*
X190258933Y-102781884D01*
X190231595Y-102783343D01*
X190224893Y-102783785D01*
X190200017Y-102785453D01*
X190176561Y-102786939D01*
X190155860Y-102788164D01*
X190139250Y-102789051D01*
X190128064Y-102789521D01*
X190125474Y-102789575D01*
X190108145Y-102789702D01*
X190108145Y-102775618D01*
X190107606Y-102762577D01*
X190106274Y-102748088D01*
X190105892Y-102745101D01*
X190103640Y-102728669D01*
X190086050Y-102736101D01*
X190068460Y-102743532D01*
X190033700Y-102720612D01*
X190013807Y-102706634D01*
X189998580Y-102693418D01*
X189987115Y-102679478D01*
X189978509Y-102663328D01*
X189971858Y-102643484D01*
X189966261Y-102618461D01*
X189963992Y-102605964D01*
X189961082Y-102590683D01*
X189958123Y-102577615D01*
X189955606Y-102568841D01*
X189954833Y-102567002D01*
X189953363Y-102562030D01*
X189950552Y-102550237D01*
X189946468Y-102531962D01*
X189941184Y-102507543D01*
X189934769Y-102477319D01*
X189927292Y-102441626D01*
X189918825Y-102400805D01*
X189909438Y-102355193D01*
X189899201Y-102305128D01*
X189888184Y-102250949D01*
X189876457Y-102192993D01*
X189864091Y-102131600D01*
X189854487Y-102083741D01*
X189849261Y-102057419D01*
X189842922Y-102025093D01*
X189835695Y-101987934D01*
X189827806Y-101947110D01*
X189819479Y-101903791D01*
X189810940Y-101859147D01*
X189802413Y-101814347D01*
X189794125Y-101770561D01*
X189790921Y-101753563D01*
X189783532Y-101714443D01*
X189776404Y-101676965D01*
X189769673Y-101641833D01*
X189763478Y-101609748D01*
X189757954Y-101581413D01*
X189753239Y-101557532D01*
X189749470Y-101538808D01*
X189746783Y-101525943D01*
X189745433Y-101520067D01*
X189742273Y-101507452D01*
X189738271Y-101490514D01*
X189734086Y-101472072D01*
X189732207Y-101463517D01*
X189728147Y-101445051D01*
X189723964Y-101426437D01*
X189720327Y-101410637D01*
X189719024Y-101405143D01*
X189716651Y-101393152D01*
X189713936Y-101376046D01*
X189711193Y-101355982D01*
X189708735Y-101335112D01*
X189708424Y-101332176D01*
X189705407Y-101305380D01*
X189702424Y-101285059D01*
X189699092Y-101270404D01*
X189695027Y-101260605D01*
X189689845Y-101254853D01*
X189683163Y-101252336D01*
X189674597Y-101252247D01*
X189670757Y-101252683D01*
X189661542Y-101253172D01*
X189652350Y-101251565D01*
X189640945Y-101247267D01*
X189628668Y-101241462D01*
X189615967Y-101235326D01*
X189605840Y-101230694D01*
X189600000Y-101228342D01*
X189599339Y-101228197D01*
X189593957Y-101225308D01*
X189588774Y-101218841D01*
X189586427Y-101212094D01*
X189586427Y-101212040D01*
X189584894Y-101207015D01*
X189583480Y-101206307D01*
X189580325Y-101203286D01*
X189575950Y-101195714D01*
X189574360Y-101192311D01*
X189571805Y-101184955D01*
X189570028Y-101175528D01*
X189568912Y-101162705D01*
X189568337Y-101145159D01*
X189568185Y-101123296D01*
X189568376Y-101104077D01*
X189568901Y-101087620D01*
X189569692Y-101075220D01*
X189570678Y-101068173D01*
X189571224Y-101067060D01*
X189574579Y-101063569D01*
X189580475Y-101055573D01*
X189583044Y-101051709D01*
X190148277Y-101051709D01*
X190164450Y-101131744D01*
X190178533Y-101200663D01*
X190191678Y-101263281D01*
X190204101Y-101320503D01*
X190216019Y-101373235D01*
X190227649Y-101422380D01*
X190239208Y-101468844D01*
X190250912Y-101513530D01*
X190262977Y-101557344D01*
X190275622Y-101601190D01*
X190282292Y-101623620D01*
X190290216Y-101649380D01*
X190296456Y-101668231D01*
X190301075Y-101680345D01*
X190304140Y-101685896D01*
X190305550Y-101685642D01*
X190305979Y-101681195D01*
X190306593Y-101669954D01*
X190307378Y-101652416D01*
X190308316Y-101629082D01*
X190309395Y-101600450D01*
X190310597Y-101567020D01*
X190311385Y-101544349D01*
X190620729Y-101544349D01*
X190621017Y-101558970D01*
X190621927Y-101579084D01*
X190623474Y-101604926D01*
X190625674Y-101636734D01*
X190628544Y-101674745D01*
X190632100Y-101719195D01*
X190636356Y-101770321D01*
X190641329Y-101828360D01*
X190643868Y-101857509D01*
X190649929Y-101926796D01*
X190660874Y-101929133D01*
X190666684Y-101929619D01*
X190679013Y-101930088D01*
X190697085Y-101930530D01*
X190720120Y-101930933D01*
X190747343Y-101931284D01*
X190777976Y-101931573D01*
X190811240Y-101931786D01*
X190842135Y-101931902D01*
X190881885Y-101931989D01*
X190914957Y-101932015D01*
X190941970Y-101931960D01*
X190963543Y-101931802D01*
X190980295Y-101931519D01*
X190992843Y-101931091D01*
X191001808Y-101930495D01*
X191007808Y-101929711D01*
X191011461Y-101928717D01*
X191013387Y-101927491D01*
X191014204Y-101926012D01*
X191014222Y-101925949D01*
X191017245Y-101908596D01*
X191018397Y-101886501D01*
X191017619Y-101861988D01*
X191016144Y-101846597D01*
X191014944Y-101832615D01*
X191013973Y-101813087D01*
X191013283Y-101789762D01*
X191012923Y-101764388D01*
X191012944Y-101738714D01*
X191012968Y-101736233D01*
X191013806Y-101658705D01*
X191002429Y-101658705D01*
X190991052Y-101658705D01*
X190991052Y-101629427D01*
X190991052Y-101600149D01*
X191001997Y-101597960D01*
X191012942Y-101595771D01*
X191012942Y-101541076D01*
X191012942Y-101486381D01*
X191004733Y-101488580D01*
X190999562Y-101489011D01*
X190987820Y-101489416D01*
X190970235Y-101489786D01*
X190947533Y-101490113D01*
X190920442Y-101490389D01*
X190889688Y-101490606D01*
X190855998Y-101490754D01*
X190820098Y-101490825D01*
X190811369Y-101490830D01*
X190626214Y-101490880D01*
X190626214Y-101507347D01*
X190625291Y-101519033D01*
X190622979Y-101528511D01*
X190621955Y-101530635D01*
X190621047Y-101534982D01*
X190620729Y-101544349D01*
X190311385Y-101544349D01*
X190311908Y-101529290D01*
X190313312Y-101487760D01*
X190314290Y-101458161D01*
X191913084Y-101458161D01*
X191913100Y-101464193D01*
X191917036Y-101465819D01*
X191925300Y-101465474D01*
X191935351Y-101463649D01*
X191944649Y-101460838D01*
X191950655Y-101457534D01*
X191951291Y-101456777D01*
X191953170Y-101454976D01*
X191954694Y-101456614D01*
X191955948Y-101462401D01*
X191957018Y-101473045D01*
X191957991Y-101489257D01*
X191958951Y-101511746D01*
X191959388Y-101523715D01*
X191960243Y-101542233D01*
X191961674Y-101566611D01*
X191963582Y-101595444D01*
X191965868Y-101627328D01*
X191968432Y-101660857D01*
X191971175Y-101694625D01*
X191972780Y-101713431D01*
X191975468Y-101744368D01*
X191978020Y-101773806D01*
X191980349Y-101800753D01*
X191982371Y-101824217D01*
X191983999Y-101843205D01*
X191985149Y-101856726D01*
X191985673Y-101863014D01*
X191987133Y-101879301D01*
X191988341Y-101886501D01*
X191988887Y-101889751D01*
X191991784Y-101895807D01*
X191996672Y-101898907D01*
X192004398Y-101900492D01*
X192008014Y-101900966D01*
X192024209Y-101902965D01*
X192034564Y-101903899D01*
X192040474Y-101903644D01*
X192043335Y-101902074D01*
X192044542Y-101899066D01*
X192044827Y-101897674D01*
X192048827Y-101889793D01*
X192052224Y-101886729D01*
X192057619Y-101885395D01*
X192069059Y-101883866D01*
X192085297Y-101882263D01*
X192105090Y-101880708D01*
X192127190Y-101879325D01*
X192128059Y-101879278D01*
X192152867Y-101877723D01*
X192173672Y-101876007D01*
X192189589Y-101874225D01*
X192199734Y-101872472D01*
X192202976Y-101871275D01*
X192211284Y-101867546D01*
X192226543Y-101864222D01*
X192248415Y-101861349D01*
X192276562Y-101858968D01*
X192310647Y-101857125D01*
X192313781Y-101856995D01*
X192372347Y-101854629D01*
X192376800Y-101759403D01*
X192378242Y-101725628D01*
X192379078Y-101698649D01*
X192379311Y-101677994D01*
X192378943Y-101663187D01*
X192377979Y-101653755D01*
X192377434Y-101651409D01*
X192376366Y-101643995D01*
X192375470Y-101629777D01*
X192374760Y-101609248D01*
X192374246Y-101582899D01*
X192373942Y-101551220D01*
X192373860Y-101514705D01*
X192373870Y-101507298D01*
X192373946Y-101471893D01*
X192374011Y-101443108D01*
X192374046Y-101420267D01*
X192374033Y-101402692D01*
X192373953Y-101389707D01*
X192373789Y-101380635D01*
X192373521Y-101374799D01*
X192373131Y-101371522D01*
X192372600Y-101370129D01*
X192371911Y-101369941D01*
X192371045Y-101370283D01*
X192370138Y-101370484D01*
X192367174Y-101373539D01*
X192366490Y-101377780D01*
X192366172Y-101380262D01*
X192364706Y-101382224D01*
X192361318Y-101383728D01*
X192355239Y-101384840D01*
X192345696Y-101385623D01*
X192331918Y-101386142D01*
X192313134Y-101386460D01*
X192288573Y-101386642D01*
X192258513Y-101386749D01*
X192234507Y-101387097D01*
X192216055Y-101387967D01*
X192203747Y-101389317D01*
X192198315Y-101390981D01*
X192191289Y-101394347D01*
X192178903Y-101397354D01*
X192160793Y-101400045D01*
X192136590Y-101402461D01*
X192105930Y-101404645D01*
X192068446Y-101406637D01*
X192056378Y-101407179D01*
X192015918Y-101409312D01*
X191982459Y-101411896D01*
X191956057Y-101414921D01*
X191936770Y-101418380D01*
X191924654Y-101422265D01*
X191919765Y-101426568D01*
X191919745Y-101426644D01*
X191915269Y-101445711D01*
X191913084Y-101458161D01*
X190314290Y-101458161D01*
X190314794Y-101442928D01*
X190316339Y-101395294D01*
X190317932Y-101345358D01*
X190319556Y-101293617D01*
X190321197Y-101240571D01*
X190322840Y-101186720D01*
X190324468Y-101132561D01*
X190326067Y-101078595D01*
X190327622Y-101025321D01*
X190329116Y-100973237D01*
X190330536Y-100922843D01*
X190331864Y-100874637D01*
X190333087Y-100829119D01*
X190334188Y-100786789D01*
X190335153Y-100748144D01*
X190335965Y-100713684D01*
X190336611Y-100683908D01*
X190337062Y-100659962D01*
X190339114Y-100538654D01*
X190304806Y-100538183D01*
X190290935Y-100537892D01*
X190273507Y-100537375D01*
X190253820Y-100536690D01*
X190233176Y-100535891D01*
X190212874Y-100535034D01*
X190194212Y-100534175D01*
X190178491Y-100533369D01*
X190167011Y-100532672D01*
X190161071Y-100532140D01*
X190160542Y-100532003D01*
X190160427Y-100535359D01*
X190160326Y-100545188D01*
X190160242Y-100560668D01*
X190160177Y-100580976D01*
X190160135Y-100605289D01*
X190160119Y-100632784D01*
X190160126Y-100658138D01*
X190160064Y-100696646D01*
X190159797Y-100728796D01*
X190159294Y-100755525D01*
X190158521Y-100777771D01*
X190157446Y-100796470D01*
X190156037Y-100812560D01*
X190154275Y-100826875D01*
X190151877Y-100847702D01*
X190150129Y-100872168D01*
X190148987Y-100901281D01*
X190148405Y-100936054D01*
X190148306Y-100960271D01*
X190148277Y-101051709D01*
X189583044Y-101051709D01*
X189587643Y-101044793D01*
X189587747Y-101044630D01*
X189596457Y-101032601D01*
X189608577Y-101018019D01*
X189622110Y-101003227D01*
X189628918Y-100996351D01*
X189656604Y-100969287D01*
X189654755Y-100944598D01*
X189654526Y-100937079D01*
X189654427Y-100922826D01*
X189654449Y-100902402D01*
X189654585Y-100876369D01*
X189654827Y-100845289D01*
X189655166Y-100809724D01*
X189655595Y-100770236D01*
X189656105Y-100727387D01*
X189656689Y-100681740D01*
X189657338Y-100633856D01*
X189658044Y-100584298D01*
X189658800Y-100533627D01*
X189659596Y-100482407D01*
X189660425Y-100431198D01*
X189661280Y-100380563D01*
X189662151Y-100331064D01*
X189663031Y-100283263D01*
X189663911Y-100237722D01*
X189664785Y-100195004D01*
X189665643Y-100155671D01*
X189666477Y-100120284D01*
X189666750Y-100109416D01*
X189668074Y-100062406D01*
X189668135Y-100060654D01*
X191168073Y-100060654D01*
X191168561Y-100062693D01*
X191172961Y-100064667D01*
X191184434Y-100066466D01*
X191202755Y-100068080D01*
X191227702Y-100069495D01*
X191259052Y-100070702D01*
X191296582Y-100071689D01*
X191340069Y-100072446D01*
X191370483Y-100072799D01*
X191441626Y-100073486D01*
X191442792Y-100065277D01*
X191446336Y-100058698D01*
X191452867Y-100057314D01*
X191460123Y-100061249D01*
X191462617Y-100064188D01*
X191464131Y-100065970D01*
X191466393Y-100067432D01*
X191470093Y-100068609D01*
X191475919Y-100069535D01*
X191484562Y-100070246D01*
X191496710Y-100070778D01*
X191513051Y-100071165D01*
X191534276Y-100071442D01*
X191561073Y-100071646D01*
X191594132Y-100071811D01*
X191613320Y-100071890D01*
X191645436Y-100071952D01*
X191675424Y-100071884D01*
X191702465Y-100071697D01*
X191725739Y-100071402D01*
X191744427Y-100071010D01*
X191757709Y-100070533D01*
X191764765Y-100069982D01*
X191765555Y-100069800D01*
X191771839Y-100064765D01*
X191777385Y-100056859D01*
X191780665Y-100049142D01*
X191779908Y-100044286D01*
X191777250Y-100041144D01*
X191775281Y-100035557D01*
X191773697Y-100023990D01*
X191772501Y-100007752D01*
X191771691Y-99988149D01*
X191771268Y-99966489D01*
X191771233Y-99944079D01*
X191771586Y-99922225D01*
X191772328Y-99902236D01*
X191773458Y-99885418D01*
X191774977Y-99873078D01*
X191776885Y-99866524D01*
X191777201Y-99866125D01*
X191778542Y-99863901D01*
X191779648Y-99859733D01*
X191780540Y-99852986D01*
X191781240Y-99843021D01*
X191781769Y-99829200D01*
X191782150Y-99810886D01*
X191782404Y-99787440D01*
X191782552Y-99758225D01*
X191782617Y-99722603D01*
X191782624Y-99706638D01*
X191782650Y-99552548D01*
X191727062Y-99554487D01*
X191704051Y-99555446D01*
X191686349Y-99556678D01*
X191671968Y-99558469D01*
X191658921Y-99561106D01*
X191645219Y-99564874D01*
X191636815Y-99567492D01*
X191610288Y-99574143D01*
X191577687Y-99579271D01*
X191540090Y-99582790D01*
X191498577Y-99584614D01*
X191454226Y-99584658D01*
X191430084Y-99583936D01*
X191408937Y-99583124D01*
X191394014Y-99582744D01*
X191384253Y-99582886D01*
X191378589Y-99583642D01*
X191375959Y-99585102D01*
X191375299Y-99587358D01*
X191375359Y-99588622D01*
X191374906Y-99591982D01*
X191371967Y-99594279D01*
X191365206Y-99595904D01*
X191353290Y-99597248D01*
X191343120Y-99598082D01*
X191328412Y-99599061D01*
X191308387Y-99600173D01*
X191285021Y-99601320D01*
X191260288Y-99602403D01*
X191241878Y-99603121D01*
X191173471Y-99605626D01*
X191173585Y-99626126D01*
X191175079Y-99642850D01*
X191180008Y-99656516D01*
X191182687Y-99661219D01*
X191191675Y-99675813D01*
X191191694Y-99835691D01*
X191191713Y-99995570D01*
X191182799Y-100010814D01*
X191176575Y-100023622D01*
X191171616Y-100037761D01*
X191168568Y-100050887D01*
X191168073Y-100060654D01*
X189668135Y-100060654D01*
X189669465Y-100022616D01*
X189670927Y-99989967D01*
X189672462Y-99964381D01*
X189674076Y-99945782D01*
X189675730Y-99934294D01*
X189677790Y-99921344D01*
X189679853Y-99903255D01*
X189681708Y-99882183D01*
X189683148Y-99860284D01*
X189683435Y-99854583D01*
X189684871Y-99831142D01*
X189686776Y-99810830D01*
X189688993Y-99795042D01*
X189691329Y-99785264D01*
X189693757Y-99774802D01*
X189695965Y-99757524D01*
X189697908Y-99733910D01*
X189699536Y-99704438D01*
X189699673Y-99701351D01*
X189701315Y-99664386D01*
X189702768Y-99634023D01*
X189704098Y-99609572D01*
X189705367Y-99590345D01*
X189706640Y-99575650D01*
X189707981Y-99564797D01*
X189709455Y-99557098D01*
X189711125Y-99551862D01*
X189713056Y-99548399D01*
X189714007Y-99547257D01*
X189722842Y-99534248D01*
X189726421Y-99520894D01*
X189724716Y-99508817D01*
X189717701Y-99499637D01*
X189714826Y-99497830D01*
X189708732Y-99491868D01*
X189701120Y-99480111D01*
X189692724Y-99463704D01*
X189692287Y-99462760D01*
X189685755Y-99449073D01*
X189680066Y-99438021D01*
X189676073Y-99431220D01*
X189674987Y-99429925D01*
X189671069Y-99425728D01*
X189665130Y-99417912D01*
X189663058Y-99414954D01*
X189655788Y-99404887D01*
X189648941Y-99396226D01*
X189647779Y-99394887D01*
X189636754Y-99382225D01*
X189628419Y-99371989D01*
X189623671Y-99365312D01*
X189622915Y-99363550D01*
X189619995Y-99360622D01*
X189614153Y-99357409D01*
X189606406Y-99350492D01*
X189600923Y-99339494D01*
X189589248Y-99310729D01*
X189572406Y-99280041D01*
X189551473Y-99249280D01*
X189539545Y-99234129D01*
X189532052Y-99221415D01*
X189527302Y-99203999D01*
X189527264Y-99203761D01*
X189601478Y-99203761D01*
X189607382Y-99224012D01*
X189614702Y-99239344D01*
X189622449Y-99253110D01*
X189630106Y-99265673D01*
X189636133Y-99274514D01*
X189636592Y-99275105D01*
X189642262Y-99282420D01*
X189650913Y-99293792D01*
X189661177Y-99307415D01*
X189667934Y-99316447D01*
X189678495Y-99329910D01*
X189688518Y-99341470D01*
X189696636Y-99349612D01*
X189700366Y-99352420D01*
X189710049Y-99360686D01*
X189715397Y-99371577D01*
X189715475Y-99380979D01*
X189715602Y-99384603D01*
X189717813Y-99390110D01*
X189722570Y-99398197D01*
X189730333Y-99409559D01*
X189741562Y-99424890D01*
X189756720Y-99444887D01*
X189764845Y-99455463D01*
X189771575Y-99465421D01*
X189776400Y-99474261D01*
X189782494Y-99481716D01*
X189793774Y-99487018D01*
X189797544Y-99488120D01*
X189808913Y-99491871D01*
X189817892Y-99496021D01*
X189820210Y-99497597D01*
X189825924Y-99501621D01*
X189828312Y-99502515D01*
X189832980Y-99504563D01*
X189841247Y-99509725D01*
X189851040Y-99516527D01*
X189860282Y-99523497D01*
X189866900Y-99529162D01*
X189868650Y-99531156D01*
X189873846Y-99537393D01*
X189878684Y-99542001D01*
X189883232Y-99548376D01*
X189888527Y-99559416D01*
X189893428Y-99572738D01*
X189893454Y-99572818D01*
X189898290Y-99585851D01*
X189903394Y-99595985D01*
X189907723Y-99601149D01*
X189907762Y-99601170D01*
X189915852Y-99606537D01*
X189919057Y-99609248D01*
X189930974Y-99616914D01*
X189946223Y-99621842D01*
X189956385Y-99622911D01*
X189967292Y-99620594D01*
X189983148Y-99613812D01*
X190000161Y-99604669D01*
X190013715Y-99596982D01*
X190024819Y-99590894D01*
X190032024Y-99587188D01*
X190033939Y-99586427D01*
X190037153Y-99583985D01*
X190044421Y-99577318D01*
X190054694Y-99567420D01*
X190066923Y-99555282D01*
X190068060Y-99554138D01*
X190081994Y-99539209D01*
X190092217Y-99527086D01*
X192669328Y-99527086D01*
X192669351Y-99539823D01*
X192669880Y-99548527D01*
X192670649Y-99552548D01*
X192670981Y-99554284D01*
X192672720Y-99558182D01*
X192675113Y-99561251D01*
X192677873Y-99565154D01*
X192679906Y-99570655D01*
X192681384Y-99578975D01*
X192682475Y-99591337D01*
X192683351Y-99608961D01*
X192683899Y-99624198D01*
X192684752Y-99643867D01*
X192685884Y-99661169D01*
X192687173Y-99674687D01*
X192688498Y-99683001D01*
X192689104Y-99684716D01*
X192690113Y-99689874D01*
X192690908Y-99701103D01*
X192691448Y-99717180D01*
X192691694Y-99736880D01*
X192691604Y-99758980D01*
X192691588Y-99760332D01*
X192691304Y-99784650D01*
X192691233Y-99802796D01*
X192691485Y-99815897D01*
X192692170Y-99825076D01*
X192693396Y-99831460D01*
X192695274Y-99836172D01*
X192697913Y-99840338D01*
X192699605Y-99842639D01*
X192701283Y-99844804D01*
X192702750Y-99846809D01*
X192704055Y-99849147D01*
X192705246Y-99852314D01*
X192706372Y-99856802D01*
X192707482Y-99863108D01*
X192708623Y-99871726D01*
X192709845Y-99883149D01*
X192711196Y-99897873D01*
X192712724Y-99916392D01*
X192714477Y-99939200D01*
X192716505Y-99966793D01*
X192718855Y-99999664D01*
X192721577Y-100038308D01*
X192724718Y-100083219D01*
X192728328Y-100134892D01*
X192728498Y-100137332D01*
X192729159Y-100149264D01*
X192729762Y-100165457D01*
X192730308Y-100186145D01*
X192730799Y-100211563D01*
X192731237Y-100241942D01*
X192731624Y-100277516D01*
X192731960Y-100318520D01*
X192732248Y-100365185D01*
X192732490Y-100417746D01*
X192732686Y-100476435D01*
X192732833Y-100538654D01*
X192732840Y-100541486D01*
X192732951Y-100613133D01*
X192733023Y-100691609D01*
X192733057Y-100777146D01*
X192733057Y-100777622D01*
X192733083Y-100859830D01*
X192733137Y-100935129D01*
X192733225Y-101003905D01*
X192733353Y-101066546D01*
X192733529Y-101123439D01*
X192733756Y-101174971D01*
X192734043Y-101221530D01*
X192734395Y-101263503D01*
X192734818Y-101301276D01*
X192735318Y-101335237D01*
X192735903Y-101365774D01*
X192736577Y-101393273D01*
X192737347Y-101418122D01*
X192738220Y-101440708D01*
X192739201Y-101461418D01*
X192740297Y-101480639D01*
X192741513Y-101498758D01*
X192742857Y-101516164D01*
X192744334Y-101533242D01*
X192745314Y-101543781D01*
X192747745Y-101569320D01*
X192755897Y-101540133D01*
X193220210Y-101540133D01*
X193222034Y-101541957D01*
X193223858Y-101540133D01*
X193222034Y-101538309D01*
X193220210Y-101540133D01*
X192755897Y-101540133D01*
X192775767Y-101468990D01*
X192791019Y-101414005D01*
X192805064Y-101362617D01*
X192817814Y-101315179D01*
X192829180Y-101272043D01*
X192839073Y-101233565D01*
X192847405Y-101200096D01*
X192854087Y-101171991D01*
X192859031Y-101149603D01*
X192862148Y-101133284D01*
X192863350Y-101123390D01*
X192863082Y-101120610D01*
X192860092Y-101112028D01*
X192857517Y-101100880D01*
X192857316Y-101099709D01*
X192854449Y-101089262D01*
X192850353Y-101081480D01*
X192849757Y-101080815D01*
X192844825Y-101072118D01*
X192846882Y-101063876D01*
X192851724Y-101059525D01*
X192857444Y-101054351D01*
X192859021Y-101050763D01*
X192861946Y-101045922D01*
X192864493Y-101044459D01*
X192868277Y-101039493D01*
X192869947Y-101029852D01*
X192869559Y-101017830D01*
X192867171Y-101005717D01*
X192863295Y-100996525D01*
X192859646Y-100990124D01*
X192856590Y-100983520D01*
X192854076Y-100976036D01*
X192852055Y-100966998D01*
X192850479Y-100955731D01*
X192849299Y-100941559D01*
X192848466Y-100923808D01*
X192847930Y-100901802D01*
X192847644Y-100874866D01*
X192847557Y-100842326D01*
X192847622Y-100803506D01*
X192847697Y-100781271D01*
X192847775Y-100738413D01*
X192847676Y-100701108D01*
X192847405Y-100669643D01*
X192846966Y-100644310D01*
X192846366Y-100625399D01*
X192845608Y-100613198D01*
X192844698Y-100607998D01*
X192844682Y-100607973D01*
X192839202Y-100603244D01*
X192836352Y-100602500D01*
X192835552Y-100601281D01*
X192834829Y-100597376D01*
X192834175Y-100590417D01*
X192833584Y-100580036D01*
X192833049Y-100565864D01*
X192832564Y-100547533D01*
X192832121Y-100524674D01*
X192831715Y-100496918D01*
X192831339Y-100463897D01*
X192830986Y-100425242D01*
X192830650Y-100380584D01*
X192830323Y-100329556D01*
X192830000Y-100271789D01*
X192829834Y-100239487D01*
X192828010Y-99876473D01*
X192816152Y-99853562D01*
X192808887Y-99838586D01*
X192805301Y-99827958D01*
X192805151Y-99819874D01*
X192808195Y-99812529D01*
X192810205Y-99809461D01*
X192813923Y-99801284D01*
X192814350Y-99790511D01*
X192813566Y-99784023D01*
X192811962Y-99772590D01*
X192811094Y-99763182D01*
X192810951Y-99753632D01*
X192811527Y-99741775D01*
X192812812Y-99725446D01*
X192813314Y-99719593D01*
X192814502Y-99701788D01*
X192814329Y-99688702D01*
X192812625Y-99677854D01*
X192809840Y-99668516D01*
X192807617Y-99660647D01*
X192805865Y-99650718D01*
X192804501Y-99637690D01*
X192803443Y-99620526D01*
X192802609Y-99598188D01*
X192801916Y-99569638D01*
X192801887Y-99568185D01*
X192801337Y-99543989D01*
X192800711Y-99521879D01*
X192800052Y-99503028D01*
X192799402Y-99488604D01*
X192798806Y-99479778D01*
X192798566Y-99477944D01*
X192793556Y-99470390D01*
X192786910Y-99467593D01*
X192761878Y-99461359D01*
X192739474Y-99454391D01*
X192720636Y-99447091D01*
X192706304Y-99439864D01*
X192697417Y-99433115D01*
X192694844Y-99427987D01*
X192693293Y-99422271D01*
X192689584Y-99414079D01*
X192685134Y-99406094D01*
X192681357Y-99400997D01*
X192680260Y-99400360D01*
X192677241Y-99403411D01*
X192675195Y-99408569D01*
X192674354Y-99414725D01*
X192673386Y-99426860D01*
X192672370Y-99443659D01*
X192671387Y-99463806D01*
X192670544Y-99485172D01*
X192669748Y-99509231D01*
X192669328Y-99527086D01*
X190092217Y-99527086D01*
X190095686Y-99522972D01*
X190108231Y-99506681D01*
X190118721Y-99491587D01*
X190126249Y-99478945D01*
X190129909Y-99470008D01*
X190130116Y-99468394D01*
X190132262Y-99462771D01*
X190137310Y-99455114D01*
X190137332Y-99455086D01*
X190142398Y-99447297D01*
X190144547Y-99441404D01*
X190146444Y-99437158D01*
X190147490Y-99436844D01*
X190151038Y-99434006D01*
X190156131Y-99427005D01*
X190157197Y-99425256D01*
X190164044Y-99414471D01*
X190171916Y-99404066D01*
X190182765Y-99391494D01*
X190184761Y-99389274D01*
X190192584Y-99379467D01*
X190200709Y-99367641D01*
X190202575Y-99364617D01*
X190207786Y-99356564D01*
X190212782Y-99352061D01*
X190219965Y-99349874D01*
X190231734Y-99348770D01*
X190233660Y-99348645D01*
X190250278Y-99346298D01*
X190265470Y-99341949D01*
X190270572Y-99339698D01*
X190285091Y-99332177D01*
X190287340Y-99304864D01*
X190290678Y-99278864D01*
X190296104Y-99258748D01*
X190303985Y-99243305D01*
X190307510Y-99238639D01*
X190313141Y-99231262D01*
X190315981Y-99226330D01*
X190316064Y-99225870D01*
X190315395Y-99220870D01*
X190313649Y-99210425D01*
X190311144Y-99196255D01*
X190308196Y-99180078D01*
X190305122Y-99163613D01*
X190302238Y-99148578D01*
X190299860Y-99136692D01*
X190298475Y-99130354D01*
X190295003Y-99118553D01*
X190290398Y-99109590D01*
X190283691Y-99103082D01*
X190273914Y-99098646D01*
X190260097Y-99095900D01*
X190241272Y-99094462D01*
X190216470Y-99093949D01*
X190206185Y-99093917D01*
X190184340Y-99093994D01*
X190168653Y-99094478D01*
X190157983Y-99095720D01*
X190151193Y-99098071D01*
X190147142Y-99101880D01*
X190144692Y-99107499D01*
X190143173Y-99113310D01*
X190139913Y-99120784D01*
X190135724Y-99121362D01*
X190131092Y-99115306D01*
X190126999Y-99104580D01*
X190119166Y-99080966D01*
X190110553Y-99059089D01*
X190102063Y-99041156D01*
X190098474Y-99034880D01*
X190092555Y-99026816D01*
X190085748Y-99021841D01*
X190076096Y-99019153D01*
X190061642Y-99017950D01*
X190056729Y-99017777D01*
X190046362Y-99017872D01*
X190040324Y-99020102D01*
X190035840Y-99026190D01*
X190032563Y-99032786D01*
X190024255Y-99050908D01*
X190019226Y-99063791D01*
X190017079Y-99072501D01*
X190016935Y-99074740D01*
X190014534Y-99080878D01*
X190008483Y-99089266D01*
X190005274Y-99092811D01*
X189992527Y-99102066D01*
X189978051Y-99104858D01*
X189961152Y-99101221D01*
X189948904Y-99095622D01*
X189937760Y-99090348D01*
X189928181Y-99088051D01*
X189916645Y-99088121D01*
X189909491Y-99088805D01*
X189896692Y-99090567D01*
X189886323Y-99092651D01*
X189881675Y-99094161D01*
X189876529Y-99100089D01*
X189871937Y-99111018D01*
X189868633Y-99124656D01*
X189867352Y-99138710D01*
X189867352Y-99138827D01*
X189865991Y-99148824D01*
X189860722Y-99156506D01*
X189855150Y-99161206D01*
X189844668Y-99167234D01*
X189834155Y-99170380D01*
X189832165Y-99170512D01*
X189823024Y-99171789D01*
X189817365Y-99174530D01*
X189810143Y-99177271D01*
X189800871Y-99175809D01*
X189792616Y-99171147D01*
X189788605Y-99165118D01*
X189785708Y-99159470D01*
X189779258Y-99156083D01*
X189769568Y-99154120D01*
X189756149Y-99150812D01*
X189741154Y-99145272D01*
X189734299Y-99142048D01*
X189711632Y-99131267D01*
X189693269Y-99125061D01*
X189677944Y-99123294D01*
X189664388Y-99125831D01*
X189651332Y-99132538D01*
X189650469Y-99133116D01*
X189640638Y-99140420D01*
X189632936Y-99147247D01*
X189630912Y-99149534D01*
X189624828Y-99154725D01*
X189620879Y-99155919D01*
X189616161Y-99158139D01*
X189615614Y-99159904D01*
X189613526Y-99165342D01*
X189608485Y-99172950D01*
X189608317Y-99173165D01*
X189601797Y-99186887D01*
X189601478Y-99203761D01*
X189527264Y-99203761D01*
X189526542Y-99199256D01*
X189526306Y-99185585D01*
X189530164Y-99172294D01*
X189538754Y-99158116D01*
X189552713Y-99141786D01*
X189558464Y-99135853D01*
X189570056Y-99123169D01*
X189581473Y-99109093D01*
X189588423Y-99099369D01*
X189606693Y-99075101D01*
X189625608Y-99057601D01*
X189636976Y-99050399D01*
X189649024Y-99047061D01*
X189665556Y-99046692D01*
X189684456Y-99049139D01*
X189703611Y-99054253D01*
X189706733Y-99055374D01*
X189728928Y-99063509D01*
X189745910Y-99069138D01*
X189759223Y-99072513D01*
X189770410Y-99073886D01*
X189781014Y-99073508D01*
X189792578Y-99071631D01*
X189798555Y-99070354D01*
X189813933Y-99066776D01*
X189823846Y-99063807D01*
X189829983Y-99060636D01*
X189834036Y-99056449D01*
X189836845Y-99051940D01*
X189842468Y-99046371D01*
X189846985Y-99045168D01*
X189852651Y-99042590D01*
X189858170Y-99035630D01*
X189858399Y-99035197D01*
X189866572Y-99024605D01*
X189878736Y-99017781D01*
X189895933Y-99014303D01*
X189911564Y-99013632D01*
X189941031Y-99012612D01*
X189964090Y-99009354D01*
X189981365Y-99003560D01*
X189993482Y-98994933D01*
X190001066Y-98983176D01*
X190004567Y-98969423D01*
X190006678Y-98959110D01*
X190009315Y-98952828D01*
X190011726Y-98951462D01*
X190013157Y-98955898D01*
X190013287Y-98959170D01*
X190013596Y-98962396D01*
X190015350Y-98964440D01*
X190019788Y-98965450D01*
X190028148Y-98965574D01*
X190041669Y-98964960D01*
X190055093Y-98964156D01*
X190074132Y-98963155D01*
X190087616Y-98962989D01*
X190097251Y-98963775D01*
X190104745Y-98965630D01*
X190110324Y-98967951D01*
X190122187Y-98973037D01*
X190136366Y-98978396D01*
X190141908Y-98980295D01*
X190152432Y-98984245D01*
X190158987Y-98988849D01*
X190163793Y-98996319D01*
X190168067Y-99006335D01*
X190176065Y-99026401D01*
X190225106Y-99028231D01*
X190246977Y-99029211D01*
X190263093Y-99030599D01*
X190274993Y-99032890D01*
X190284220Y-99036583D01*
X190292313Y-99042174D01*
X190300814Y-99050160D01*
X190304344Y-99053794D01*
X190311530Y-99062716D01*
X190320026Y-99075405D01*
X190328877Y-99090144D01*
X190337131Y-99105215D01*
X190343833Y-99118902D01*
X190348030Y-99129488D01*
X190348967Y-99134129D01*
X190350888Y-99141482D01*
X190353774Y-99146898D01*
X190361763Y-99163248D01*
X190367846Y-99184842D01*
X190371603Y-99209782D01*
X190372367Y-99225870D01*
X190372652Y-99231881D01*
X190372484Y-99248129D01*
X190371786Y-99258616D01*
X190370270Y-99264878D01*
X190367646Y-99268446D01*
X190365479Y-99269900D01*
X190357559Y-99275488D01*
X190350260Y-99281958D01*
X190345539Y-99289171D01*
X190343757Y-99299174D01*
X190344959Y-99313035D01*
X190349191Y-99331825D01*
X190352963Y-99345107D01*
X190356811Y-99361889D01*
X190359323Y-99380306D01*
X190359883Y-99391165D01*
X190360809Y-99406487D01*
X190363193Y-99421548D01*
X190365355Y-99429547D01*
X190368781Y-99441196D01*
X190370688Y-99451446D01*
X190370828Y-99453811D01*
X190373920Y-99462357D01*
X190379187Y-99465741D01*
X190387915Y-99470701D01*
X190392403Y-99474772D01*
X190399388Y-99478903D01*
X190409543Y-99480624D01*
X190409705Y-99480624D01*
X190418964Y-99481876D01*
X190425403Y-99486918D01*
X190429439Y-99492976D01*
X190433589Y-99499315D01*
X190438100Y-99503221D01*
X190444936Y-99505536D01*
X190456059Y-99507103D01*
X190464246Y-99507906D01*
X190477576Y-99508966D01*
X190487764Y-99509422D01*
X190492925Y-99509196D01*
X190493176Y-99509076D01*
X190493349Y-99505333D01*
X190493547Y-99494683D01*
X190493768Y-99477515D01*
X190494010Y-99454217D01*
X190494270Y-99425180D01*
X190494544Y-99390791D01*
X190494831Y-99351441D01*
X190495128Y-99307518D01*
X190495431Y-99259412D01*
X190495739Y-99207512D01*
X190496049Y-99152206D01*
X190496358Y-99093885D01*
X190496663Y-99032937D01*
X190496962Y-98969751D01*
X190497145Y-98929195D01*
X190499594Y-98375812D01*
X191386474Y-98375812D01*
X191386574Y-98387833D01*
X191386997Y-98403794D01*
X191387761Y-98424217D01*
X191388879Y-98449627D01*
X191390368Y-98480546D01*
X191392242Y-98517497D01*
X191394516Y-98561003D01*
X191395527Y-98580075D01*
X191399028Y-98646109D01*
X191402157Y-98705437D01*
X191404940Y-98758641D01*
X191407403Y-98806300D01*
X191409573Y-98848997D01*
X191411475Y-98887310D01*
X191413137Y-98921821D01*
X191414584Y-98953110D01*
X191415843Y-98981758D01*
X191416940Y-99008346D01*
X191417902Y-99033454D01*
X191418755Y-99057662D01*
X191419524Y-99081552D01*
X191420238Y-99105703D01*
X191420921Y-99130697D01*
X191421478Y-99152270D01*
X191422391Y-99187973D01*
X191423368Y-99225538D01*
X191424365Y-99263329D01*
X191425339Y-99299709D01*
X191426245Y-99333043D01*
X191427041Y-99361693D01*
X191427445Y-99375860D01*
X191429950Y-99462636D01*
X191501459Y-99460387D01*
X191523735Y-99459631D01*
X191543608Y-99458854D01*
X191559888Y-99458108D01*
X191571385Y-99457450D01*
X191576911Y-99456935D01*
X191577106Y-99456888D01*
X191577920Y-99456013D01*
X191578675Y-99453637D01*
X191579381Y-99449372D01*
X191580053Y-99442827D01*
X191580700Y-99433612D01*
X191581335Y-99421338D01*
X191581971Y-99405614D01*
X191582620Y-99386051D01*
X191583292Y-99362258D01*
X191584001Y-99333846D01*
X191584758Y-99300425D01*
X191585576Y-99261604D01*
X191586465Y-99216994D01*
X191587440Y-99166204D01*
X191588510Y-99108846D01*
X191589521Y-99053764D01*
X191590856Y-98984705D01*
X191592225Y-98922437D01*
X191593646Y-98866454D01*
X191595139Y-98816252D01*
X191596722Y-98771324D01*
X191598413Y-98731165D01*
X191600232Y-98695269D01*
X191602197Y-98663132D01*
X191604328Y-98634246D01*
X191605737Y-98617783D01*
X191610565Y-98560179D01*
X191615075Y-98497990D01*
X191619078Y-98433928D01*
X191620726Y-98404005D01*
X191623145Y-98358052D01*
X191611448Y-98359769D01*
X191602702Y-98362645D01*
X191597688Y-98367229D01*
X191597616Y-98367414D01*
X191593397Y-98374374D01*
X191584061Y-98386194D01*
X191569762Y-98402688D01*
X191554510Y-98419497D01*
X191540313Y-98430344D01*
X191523724Y-98435878D01*
X191506853Y-98435648D01*
X191496291Y-98431964D01*
X191487700Y-98428045D01*
X191481694Y-98426274D01*
X191481482Y-98426266D01*
X191475580Y-98423165D01*
X191467976Y-98414933D01*
X191459958Y-98403097D01*
X191456112Y-98396144D01*
X191451226Y-98387698D01*
X191447379Y-98382887D01*
X191446530Y-98382463D01*
X191442201Y-98380166D01*
X191438148Y-98376639D01*
X191431543Y-98371455D01*
X191421692Y-98365164D01*
X191411048Y-98359168D01*
X191402065Y-98354871D01*
X191397846Y-98353603D01*
X191391787Y-98355194D01*
X191389015Y-98356668D01*
X191387969Y-98358159D01*
X191387187Y-98361498D01*
X191386684Y-98367208D01*
X191386474Y-98375812D01*
X190499594Y-98375812D01*
X190499705Y-98350724D01*
X190452596Y-98348644D01*
X190413961Y-98345406D01*
X190378429Y-98339396D01*
X190346764Y-98330880D01*
X190319733Y-98320126D01*
X190298101Y-98307402D01*
X190282633Y-98292973D01*
X190279162Y-98288123D01*
X190272760Y-98276376D01*
X190268536Y-98263985D01*
X190266369Y-98249602D01*
X190266141Y-98231877D01*
X190267732Y-98209460D01*
X190270231Y-98187275D01*
X190272248Y-98167799D01*
X190274206Y-98143040D01*
X190275981Y-98115011D01*
X190277446Y-98085725D01*
X190278480Y-98057194D01*
X190278633Y-98051373D01*
X190279271Y-98027373D01*
X190279945Y-98006007D01*
X190280612Y-97988287D01*
X190281234Y-97975226D01*
X190281768Y-97967837D01*
X190282031Y-97966548D01*
X190285872Y-97968145D01*
X190289701Y-97970237D01*
X190294523Y-97971878D01*
X190305066Y-97974785D01*
X190320164Y-97978681D01*
X190338647Y-97983289D01*
X190359350Y-97988333D01*
X190381104Y-97993535D01*
X190402740Y-97998619D01*
X190423092Y-98003308D01*
X190440992Y-98007324D01*
X190455272Y-98010391D01*
X190464765Y-98012232D01*
X190468290Y-98012588D01*
X190469266Y-98008651D01*
X190471172Y-97998333D01*
X190473877Y-97982470D01*
X190477247Y-97961901D01*
X190481151Y-97937462D01*
X190485457Y-97909992D01*
X190490033Y-97880328D01*
X190494747Y-97849307D01*
X190499467Y-97817768D01*
X190504061Y-97786546D01*
X190505736Y-97775008D01*
X190513020Y-97725381D01*
X190519716Y-97681642D01*
X190526090Y-97642432D01*
X190532409Y-97606395D01*
X190538943Y-97572171D01*
X190545956Y-97538403D01*
X190553718Y-97503732D01*
X190562496Y-97466801D01*
X190572558Y-97426250D01*
X190580823Y-97393753D01*
X190586762Y-97370623D01*
X190592167Y-97349661D01*
X190596751Y-97331975D01*
X190600227Y-97318671D01*
X190602307Y-97310856D01*
X190602699Y-97309463D01*
X190600819Y-97303354D01*
X190591941Y-97295514D01*
X190588894Y-97293453D01*
X190577127Y-97285641D01*
X190561813Y-97275269D01*
X190543960Y-97263042D01*
X190524578Y-97249664D01*
X190504675Y-97235838D01*
X190485260Y-97222269D01*
X190467344Y-97209661D01*
X190451934Y-97198718D01*
X190440040Y-97190144D01*
X190432670Y-97184643D01*
X190431026Y-97183292D01*
X190424250Y-97177669D01*
X190413878Y-97169732D01*
X190403663Y-97162283D01*
X190378106Y-97141718D01*
X190355348Y-97117906D01*
X190345372Y-97105531D01*
X190337583Y-97095952D01*
X190330968Y-97088726D01*
X190328058Y-97086196D01*
X190327042Y-97084852D01*
X190449429Y-97084852D01*
X190449546Y-97089096D01*
X190454439Y-97094324D01*
X190457157Y-97096711D01*
X190466306Y-97104584D01*
X190473277Y-97110097D01*
X190480900Y-97115343D01*
X190491510Y-97122102D01*
X190499983Y-97128361D01*
X190512149Y-97138561D01*
X190526576Y-97151445D01*
X190541833Y-97165760D01*
X190546782Y-97170560D01*
X190561347Y-97184485D01*
X190574901Y-97196846D01*
X190586230Y-97206578D01*
X190594122Y-97212621D01*
X190596058Y-97213772D01*
X190603597Y-97218598D01*
X190614264Y-97226872D01*
X190625960Y-97236947D01*
X190627900Y-97238722D01*
X190638098Y-97248007D01*
X190646055Y-97255009D01*
X190650426Y-97258551D01*
X190650834Y-97258763D01*
X190654292Y-97260759D01*
X190656467Y-97262473D01*
X190664170Y-97268613D01*
X190674583Y-97276474D01*
X190686117Y-97284913D01*
X190697179Y-97292788D01*
X190706178Y-97298954D01*
X190711523Y-97302268D01*
X190712245Y-97302543D01*
X190716649Y-97303884D01*
X190725628Y-97307370D01*
X190735209Y-97311380D01*
X190773166Y-97325500D01*
X190811692Y-97335044D01*
X190849298Y-97340373D01*
X190891788Y-97344649D01*
X190898361Y-97332445D01*
X190902287Y-97322538D01*
X190901212Y-97315144D01*
X190894430Y-97309254D01*
X190881239Y-97303861D01*
X190877603Y-97302701D01*
X190864206Y-97297814D01*
X190852000Y-97292138D01*
X190846693Y-97288978D01*
X190839101Y-97283850D01*
X190827227Y-97276026D01*
X190812942Y-97266733D01*
X190803160Y-97260428D01*
X190785098Y-97248794D01*
X190764298Y-97235339D01*
X190744126Y-97222241D01*
X190735665Y-97216729D01*
X190717349Y-97204889D01*
X190697114Y-97191986D01*
X190678149Y-97180047D01*
X190669995Y-97174984D01*
X190656684Y-97166610D01*
X190645839Y-97159479D01*
X190638894Y-97154552D01*
X190637159Y-97153000D01*
X190633783Y-97150334D01*
X190625355Y-97144371D01*
X190612925Y-97135814D01*
X190597542Y-97125369D01*
X190580258Y-97113737D01*
X190562121Y-97101624D01*
X190544182Y-97089734D01*
X190527490Y-97078769D01*
X190513097Y-97069434D01*
X190502169Y-97062507D01*
X190492233Y-97056788D01*
X190485394Y-97055098D01*
X190478691Y-97057403D01*
X190471384Y-97062134D01*
X190461710Y-97070011D01*
X190453723Y-97078467D01*
X190453509Y-97078749D01*
X190449429Y-97084852D01*
X190327042Y-97084852D01*
X190323809Y-97080573D01*
X190323399Y-97078267D01*
X190321203Y-97072309D01*
X190315815Y-97064221D01*
X190314777Y-97062942D01*
X190306850Y-97051218D01*
X190297814Y-97034135D01*
X190288496Y-97013371D01*
X190281541Y-96995634D01*
X190277425Y-96976730D01*
X190276845Y-96953383D01*
X190279736Y-96927494D01*
X190284627Y-96905788D01*
X190287944Y-96893211D01*
X190289153Y-96885204D01*
X190288245Y-96879350D01*
X190285212Y-96873232D01*
X190284511Y-96872036D01*
X190278284Y-96863950D01*
X190271930Y-96859157D01*
X190271532Y-96859015D01*
X190266058Y-96855288D01*
X190265025Y-96852633D01*
X190262718Y-96847788D01*
X190256746Y-96839688D01*
X190250431Y-96832352D01*
X190242618Y-96823354D01*
X190237323Y-96816391D01*
X190235838Y-96813504D01*
X190233178Y-96809439D01*
X190233102Y-96809404D01*
X190228442Y-96804945D01*
X190222201Y-96796083D01*
X190215800Y-96785067D01*
X190210661Y-96774145D01*
X190210419Y-96773529D01*
X190205382Y-96762799D01*
X190199820Y-96753960D01*
X190199419Y-96753463D01*
X190192086Y-96743196D01*
X190183055Y-96728531D01*
X190173589Y-96711739D01*
X190164949Y-96695090D01*
X190158399Y-96680855D01*
X190156827Y-96676847D01*
X190153638Y-96665998D01*
X190151626Y-96653283D01*
X190150604Y-96636906D01*
X190150387Y-96615072D01*
X190150388Y-96614824D01*
X190151452Y-96584090D01*
X190154494Y-96559733D01*
X190159820Y-96541030D01*
X190167733Y-96527255D01*
X190178538Y-96517685D01*
X190192539Y-96511595D01*
X190193881Y-96511216D01*
X190204063Y-96509581D01*
X190220080Y-96508366D01*
X190240485Y-96507562D01*
X190263829Y-96507161D01*
X190288663Y-96507153D01*
X190313541Y-96507529D01*
X190337012Y-96508280D01*
X190357630Y-96509397D01*
X190373945Y-96510871D01*
X190383364Y-96512402D01*
X190393927Y-96514218D01*
X190410235Y-96516193D01*
X190430741Y-96518178D01*
X190453899Y-96520024D01*
X190478164Y-96521583D01*
X190480279Y-96521700D01*
X190508391Y-96523229D01*
X190530057Y-96524493D01*
X190546114Y-96525704D01*
X190557397Y-96527073D01*
X190564741Y-96528809D01*
X190568984Y-96531124D01*
X190570960Y-96534227D01*
X190571505Y-96538329D01*
X190571456Y-96543642D01*
X190571448Y-96544663D01*
X190570599Y-96564898D01*
X190567972Y-96578963D01*
X190563268Y-96587833D01*
X190556751Y-96592281D01*
X190547748Y-96599017D01*
X190540609Y-96610167D01*
X190536739Y-96622861D01*
X190537024Y-96632545D01*
X190542301Y-96640861D01*
X190553465Y-96646316D01*
X190570892Y-96649046D01*
X190583890Y-96649434D01*
X190601033Y-96649251D01*
X190612175Y-96647951D01*
X190618609Y-96644272D01*
X190621629Y-96636951D01*
X190622529Y-96624725D01*
X190622586Y-96613000D01*
X190990639Y-96613000D01*
X190997230Y-96624226D01*
X191004534Y-96635319D01*
X191010556Y-96640335D01*
X191016751Y-96639962D01*
X191022780Y-96636267D01*
X191031449Y-96628490D01*
X191037650Y-96621087D01*
X191043019Y-96613000D01*
X191016829Y-96613000D01*
X190990639Y-96613000D01*
X190622586Y-96613000D01*
X190622592Y-96611662D01*
X190622880Y-96592956D01*
X190623620Y-96573475D01*
X190624665Y-96556864D01*
X190624914Y-96554027D01*
X190626277Y-96541084D01*
X190627957Y-96533627D01*
X190630956Y-96529872D01*
X190636278Y-96528041D01*
X190639943Y-96527324D01*
X190651595Y-96526737D01*
X190662047Y-96528634D01*
X190662247Y-96528711D01*
X190668394Y-96529979D01*
X190680335Y-96531530D01*
X190696580Y-96533245D01*
X190715638Y-96535001D01*
X190736017Y-96536679D01*
X190756227Y-96538159D01*
X190774775Y-96539319D01*
X190790173Y-96540038D01*
X190800928Y-96540197D01*
X190803160Y-96540109D01*
X190808598Y-96539898D01*
X190820328Y-96539541D01*
X190837346Y-96539065D01*
X190858650Y-96538497D01*
X190883236Y-96537865D01*
X190910102Y-96537196D01*
X190914276Y-96537094D01*
X190944512Y-96536336D01*
X190968256Y-96535658D01*
X190986312Y-96534987D01*
X190999482Y-96534248D01*
X191008571Y-96533366D01*
X191014381Y-96532266D01*
X191017715Y-96530874D01*
X191019377Y-96529115D01*
X191020079Y-96527263D01*
X191022959Y-96518358D01*
X191026797Y-96512224D01*
X191032981Y-96508154D01*
X191042895Y-96505443D01*
X191057925Y-96503385D01*
X191069164Y-96502247D01*
X191092804Y-96500527D01*
X191112304Y-96500529D01*
X191130628Y-96502293D01*
X191136175Y-96503145D01*
X191156073Y-96506874D01*
X191178639Y-96511838D01*
X191202073Y-96517568D01*
X191224576Y-96523594D01*
X191244349Y-96529443D01*
X191259593Y-96534648D01*
X191264680Y-96536737D01*
X191288558Y-96547432D01*
X191310240Y-96556993D01*
X191315757Y-96559402D01*
X191328430Y-96563937D01*
X191342027Y-96567461D01*
X191343023Y-96567652D01*
X191360678Y-96571855D01*
X191376941Y-96577389D01*
X191389896Y-96583487D01*
X191397628Y-96589379D01*
X191397825Y-96589630D01*
X191401219Y-96597661D01*
X191403087Y-96608932D01*
X191403202Y-96611946D01*
X191403366Y-96613000D01*
X191405434Y-96626288D01*
G37*
D17*
%TO.C,J5*%
X157500000Y-59500000D02*
X157500000Y-55500000D01*
X161000000Y-53500000D02*
X162000000Y-53500000D01*
X161000000Y-61500000D02*
X162000000Y-61500000D01*
X165500000Y-55500000D02*
X165500000Y-59500000D01*
%TO.C,J4*%
X157000000Y-110000000D02*
X157000000Y-106000000D01*
X161500000Y-104000000D02*
X160500000Y-104000000D01*
X161500000Y-112000000D02*
X160500000Y-112000000D01*
X165000000Y-106000000D02*
X165000000Y-110000000D01*
D18*
%TO.C,J1*%
X190225000Y-76500000D02*
X196275000Y-76500000D01*
X190225000Y-90500000D02*
X190225000Y-76500000D01*
X196275000Y-76500000D02*
X196275000Y-90500000D01*
X196275000Y-90500000D02*
X190225000Y-90500000D01*
D17*
X196900000Y-84500000D02*
G75*
G02*
X196700000Y-84500000I-100000J0D01*
G01*
X196700000Y-84500000D02*
G75*
G02*
X196900000Y-84500000I100000J0D01*
G01*
%TO.C,K2*%
X168600000Y-52900000D02*
X168600000Y-112900000D01*
X168600000Y-112900000D02*
X184400000Y-112900000D01*
D19*
X176500000Y-52300000D02*
X176500000Y-52300000D01*
X176500000Y-52400000D02*
X176500000Y-52400000D01*
D17*
X184400000Y-52900000D02*
X168600000Y-52900000D01*
X184400000Y-112900000D02*
X184400000Y-52900000D01*
D19*
X176500000Y-52300000D02*
G75*
G02*
X176500000Y-52400000I0J-50000D01*
G01*
X176500000Y-52400000D02*
G75*
G02*
X176500000Y-52300000I0J50000D01*
G01*
D16*
%TO.C,G\u002A\u002A\u002A*%
G36*
X192917843Y-65060591D02*
G01*
X192905724Y-65072710D01*
X192893606Y-65060591D01*
X192905724Y-65048473D01*
X192917843Y-65060591D01*
G37*
G36*
X192942079Y-64963645D02*
G01*
X192929961Y-64975763D01*
X192917843Y-64963645D01*
X192929961Y-64951527D01*
X192942079Y-64963645D01*
G37*
G36*
X192942079Y-65206011D02*
G01*
X192929961Y-65218130D01*
X192917843Y-65206011D01*
X192929961Y-65193893D01*
X192942079Y-65206011D01*
G37*
G36*
X193135972Y-65060591D02*
G01*
X193123854Y-65072710D01*
X193111736Y-65060591D01*
X193123854Y-65048473D01*
X193135972Y-65060591D01*
G37*
G36*
X193451049Y-64793988D02*
G01*
X193438930Y-64806107D01*
X193426812Y-64793988D01*
X193438930Y-64781870D01*
X193451049Y-64793988D01*
G37*
G36*
X193620705Y-64478912D02*
G01*
X193608587Y-64491030D01*
X193596469Y-64478912D01*
X193608587Y-64466794D01*
X193620705Y-64478912D01*
G37*
G36*
X193766125Y-64866698D02*
G01*
X193754007Y-64878817D01*
X193741888Y-64866698D01*
X193754007Y-64854580D01*
X193766125Y-64866698D01*
G37*
G36*
X193838835Y-64357729D02*
G01*
X193826717Y-64369847D01*
X193814598Y-64357729D01*
X193826717Y-64345610D01*
X193838835Y-64357729D01*
G37*
G36*
X193838835Y-64527385D02*
G01*
X193826717Y-64539504D01*
X193814598Y-64527385D01*
X193826717Y-64515267D01*
X193838835Y-64527385D01*
G37*
G36*
X193887308Y-64309256D02*
G01*
X193875190Y-64321374D01*
X193863072Y-64309256D01*
X193875190Y-64297137D01*
X193887308Y-64309256D01*
G37*
G36*
X193887308Y-64575859D02*
G01*
X193875190Y-64587977D01*
X193863072Y-64575859D01*
X193875190Y-64563740D01*
X193887308Y-64575859D01*
G37*
G36*
X193911545Y-64648569D02*
G01*
X193899427Y-64660687D01*
X193887308Y-64648569D01*
X193899427Y-64636450D01*
X193911545Y-64648569D01*
G37*
G36*
X192885527Y-64959605D02*
G01*
X192888428Y-64988369D01*
X192885527Y-64991921D01*
X192871118Y-64988594D01*
X192869369Y-64975763D01*
X192878237Y-64955814D01*
X192885527Y-64959605D01*
G37*
G36*
X193103657Y-64911132D02*
G01*
X193100330Y-64925541D01*
X193087499Y-64927290D01*
X193067550Y-64918422D01*
X193071341Y-64911132D01*
X193100105Y-64908231D01*
X193103657Y-64911132D01*
G37*
G36*
X193297550Y-64547583D02*
G01*
X193294223Y-64561991D01*
X193281392Y-64563740D01*
X193261443Y-64554872D01*
X193265235Y-64547583D01*
X193293998Y-64544682D01*
X193297550Y-64547583D01*
G37*
G36*
X193297550Y-64814186D02*
G01*
X193300451Y-64842949D01*
X193297550Y-64846501D01*
X193283141Y-64843174D01*
X193281392Y-64830343D01*
X193290260Y-64810394D01*
X193297550Y-64814186D01*
G37*
G36*
X193699474Y-64329559D02*
G01*
X193702519Y-64338405D01*
X193669179Y-64341784D01*
X193634771Y-64337975D01*
X193638883Y-64329559D01*
X193688504Y-64326358D01*
X193699474Y-64329559D01*
G37*
G36*
X193830756Y-64280979D02*
G01*
X193833657Y-64309743D01*
X193830756Y-64313295D01*
X193816347Y-64309968D01*
X193814598Y-64297137D01*
X193823466Y-64277188D01*
X193830756Y-64280979D01*
G37*
G36*
X193830756Y-64620292D02*
G01*
X193833657Y-64649056D01*
X193830756Y-64652608D01*
X193816347Y-64649281D01*
X193814598Y-64636450D01*
X193823466Y-64616501D01*
X193830756Y-64620292D01*
G37*
G36*
X193367316Y-64773526D02*
G01*
X193390960Y-64796370D01*
X193388888Y-64808646D01*
X193367894Y-64828797D01*
X193349629Y-64804716D01*
X193345811Y-64795223D01*
X193346899Y-64770618D01*
X193367316Y-64773526D01*
G37*
G36*
X193353116Y-64508624D02*
G01*
X193354102Y-64515267D01*
X193345833Y-64538873D01*
X193343414Y-64539504D01*
X193322722Y-64522520D01*
X193317747Y-64515267D01*
X193319669Y-64492933D01*
X193328435Y-64491030D01*
X193353116Y-64508624D01*
G37*
G36*
X193522030Y-64390243D02*
G01*
X193523759Y-64418320D01*
X193514550Y-64457719D01*
X193501791Y-64466794D01*
X193489324Y-64447492D01*
X193492500Y-64418320D01*
X193506569Y-64379165D01*
X193514467Y-64369847D01*
X193522030Y-64390243D01*
G37*
G36*
X193692711Y-65018443D02*
G01*
X193693415Y-65024236D01*
X193674972Y-65047769D01*
X193669179Y-65048473D01*
X193645646Y-65030030D01*
X193644942Y-65024236D01*
X193663385Y-65000704D01*
X193669179Y-65000000D01*
X193692711Y-65018443D01*
G37*
G36*
X193952414Y-64967182D02*
G01*
X193947900Y-64975763D01*
X193925064Y-64998909D01*
X193920803Y-65000000D01*
X193919149Y-64984344D01*
X193923663Y-64975763D01*
X193946499Y-64952617D01*
X193950761Y-64951527D01*
X193952414Y-64967182D01*
G37*
G36*
X191575748Y-62206443D02*
G01*
X191618578Y-62250194D01*
X191650424Y-62297820D01*
X191698554Y-62408035D01*
X191704976Y-62494134D01*
X191670068Y-62555369D01*
X191594204Y-62590991D01*
X191498338Y-62600572D01*
X191414676Y-62596529D01*
X191355478Y-62578327D01*
X191296997Y-62536860D01*
X191269821Y-62512924D01*
X191200583Y-62432406D01*
X191171504Y-62355502D01*
X191184378Y-62288731D01*
X191201888Y-62266107D01*
X191248606Y-62235009D01*
X191277556Y-62247177D01*
X191283650Y-62299088D01*
X191280522Y-62320507D01*
X191276385Y-62386613D01*
X191300726Y-62437362D01*
X191326796Y-62465927D01*
X191399775Y-62517663D01*
X191470286Y-62522027D01*
X191523364Y-62495142D01*
X191550124Y-62460018D01*
X191556324Y-62403204D01*
X191541909Y-62316325D01*
X191521713Y-62240637D01*
X191518877Y-62197915D01*
X191539701Y-62187767D01*
X191575748Y-62206443D01*
G37*
G36*
X190501665Y-62883146D02*
G01*
X190552594Y-62889139D01*
X190626866Y-62900904D01*
X190729810Y-62919146D01*
X190866752Y-62944571D01*
X191043021Y-62977883D01*
X191160686Y-63000206D01*
X191321915Y-63030334D01*
X191487139Y-63060402D01*
X191642258Y-63087901D01*
X191773174Y-63110319D01*
X191839312Y-63121086D01*
X191986224Y-63146804D01*
X192133611Y-63177235D01*
X192273482Y-63210228D01*
X192397843Y-63243632D01*
X192498702Y-63275293D01*
X192568066Y-63303060D01*
X192597942Y-63324780D01*
X192598176Y-63325408D01*
X192587830Y-63344459D01*
X192538913Y-63349721D01*
X192450012Y-63340976D01*
X192319716Y-63318001D01*
X192146611Y-63280576D01*
X191929285Y-63228479D01*
X191846588Y-63207769D01*
X191599765Y-63147736D01*
X191389896Y-63102247D01*
X191208169Y-63069876D01*
X191045772Y-63049196D01*
X190893892Y-63038780D01*
X190790612Y-63036832D01*
X190694653Y-63038795D01*
X190632650Y-63047100D01*
X190590164Y-63065373D01*
X190553668Y-63096322D01*
X190503424Y-63176661D01*
X190494179Y-63240889D01*
X190481963Y-63313991D01*
X190447198Y-63351109D01*
X190417877Y-63361595D01*
X190400630Y-63346378D01*
X190388418Y-63295987D01*
X190383626Y-63265610D01*
X190375185Y-63159025D01*
X190379532Y-63054217D01*
X190395014Y-62965762D01*
X190419974Y-62908236D01*
X190424832Y-62902783D01*
X190435664Y-62892743D01*
X190448528Y-62885653D01*
X190468752Y-62882219D01*
X190501665Y-62883146D01*
G37*
G36*
X192297310Y-60813956D02*
G01*
X192342096Y-60841518D01*
X192368153Y-60898134D01*
X192380550Y-60988977D01*
X192384362Y-61119223D01*
X192384637Y-61246414D01*
X192384637Y-61609596D01*
X192280884Y-61655490D01*
X192201283Y-61682850D01*
X192080263Y-61714067D01*
X191924619Y-61747991D01*
X191741144Y-61783471D01*
X191536634Y-61819359D01*
X191317883Y-61854503D01*
X191091687Y-61887754D01*
X190864839Y-61917962D01*
X190644135Y-61943977D01*
X190474751Y-61961166D01*
X190386269Y-61968257D01*
X190331793Y-61966797D01*
X190297135Y-61953415D01*
X190268104Y-61924741D01*
X190255569Y-61909100D01*
X190190630Y-61790949D01*
X190147764Y-61629669D01*
X190126969Y-61425248D01*
X190124821Y-61313657D01*
X190124638Y-61178470D01*
X190127399Y-61095725D01*
X192120412Y-61095725D01*
X192140293Y-61167951D01*
X192146591Y-61182533D01*
X192182547Y-61227267D01*
X192223188Y-61235054D01*
X192253785Y-61205267D01*
X192259123Y-61187318D01*
X192252142Y-61133810D01*
X192222016Y-61076657D01*
X192181155Y-61034964D01*
X192153830Y-61025191D01*
X192125088Y-61044596D01*
X192120412Y-61095725D01*
X190127399Y-61095725D01*
X190127862Y-61081865D01*
X190141429Y-61017404D01*
X190172270Y-60978648D01*
X190227320Y-60959160D01*
X190313513Y-60952500D01*
X190437782Y-60952231D01*
X190513770Y-60952481D01*
X190739761Y-60950152D01*
X190972244Y-60943536D01*
X191202853Y-60933187D01*
X191423225Y-60919662D01*
X191624995Y-60903514D01*
X191799800Y-60885300D01*
X191939275Y-60865574D01*
X191999850Y-60853846D01*
X192131259Y-60825294D01*
X192228721Y-60810273D01*
X192297310Y-60813956D01*
G37*
G36*
X193715328Y-64770285D02*
G01*
X193731266Y-64791437D01*
X193713135Y-64823668D01*
X193686561Y-64872992D01*
X193681662Y-64898193D01*
X193664435Y-64934651D01*
X193650395Y-64941563D01*
X193636309Y-64940614D01*
X193644336Y-64935571D01*
X193668307Y-64905101D01*
X193669179Y-64898066D01*
X193655143Y-64888948D01*
X193633058Y-64902859D01*
X193608118Y-64952867D01*
X193611449Y-64990655D01*
X193614461Y-65034952D01*
X193588088Y-65048393D01*
X193584010Y-65048473D01*
X193556259Y-65041597D01*
X193570339Y-65014399D01*
X193570441Y-65014276D01*
X193584591Y-64978196D01*
X193575479Y-64965652D01*
X193548322Y-64969975D01*
X193542317Y-64980680D01*
X193513581Y-65003372D01*
X193461478Y-65015217D01*
X193411137Y-65020151D01*
X193390457Y-65024796D01*
X193369614Y-65032372D01*
X193320051Y-65035005D01*
X193261218Y-65033172D01*
X193212565Y-65027351D01*
X193193929Y-65019973D01*
X193168133Y-65008056D01*
X193163566Y-65010044D01*
X193147794Y-64999515D01*
X193142595Y-64975212D01*
X193160078Y-64930769D01*
X193186389Y-64914555D01*
X193218624Y-64893692D01*
X193219894Y-64877349D01*
X193224852Y-64864804D01*
X193240951Y-64868484D01*
X193280526Y-64867989D01*
X193350078Y-64853673D01*
X193430044Y-64830066D01*
X193548683Y-64793988D01*
X193596469Y-64793988D01*
X193608587Y-64806107D01*
X193669179Y-64806107D01*
X193678046Y-64826056D01*
X193685336Y-64822264D01*
X193688237Y-64793501D01*
X193685336Y-64789949D01*
X193670928Y-64793276D01*
X193669179Y-64806107D01*
X193608587Y-64806107D01*
X193620705Y-64793988D01*
X193608587Y-64781870D01*
X193596469Y-64793988D01*
X193548683Y-64793988D01*
X193562988Y-64789638D01*
X193658659Y-64769698D01*
X193715328Y-64770285D01*
G37*
G36*
X191349511Y-59195956D02*
G01*
X191441886Y-59199251D01*
X191511012Y-59207303D01*
X191569502Y-59222210D01*
X191629967Y-59246069D01*
X191688040Y-59272917D01*
X191834609Y-59360586D01*
X191988379Y-59484641D01*
X192140624Y-59635682D01*
X192282619Y-59804313D01*
X192405637Y-59981137D01*
X192493131Y-60139969D01*
X192563407Y-60299647D01*
X192640264Y-60494102D01*
X192719464Y-60710862D01*
X192796768Y-60937452D01*
X192867938Y-61161400D01*
X192928733Y-61370234D01*
X192974915Y-61551479D01*
X192979028Y-61569679D01*
X193000886Y-61661955D01*
X193020230Y-61718240D01*
X193043887Y-61750107D01*
X193078687Y-61769131D01*
X193101413Y-61777119D01*
X193195480Y-61829321D01*
X193255188Y-61905921D01*
X193280432Y-61997018D01*
X193271109Y-62092712D01*
X193227111Y-62183103D01*
X193148336Y-62258291D01*
X193106766Y-62282035D01*
X193035776Y-62312739D01*
X192978094Y-62331377D01*
X192960646Y-62333969D01*
X192911880Y-62337018D01*
X192885961Y-62349367D01*
X192884945Y-62375818D01*
X192910886Y-62421174D01*
X192965840Y-62490238D01*
X193051862Y-62587812D01*
X193084868Y-62624280D01*
X193263106Y-62830531D01*
X193406879Y-63018378D01*
X193514902Y-63185759D01*
X193585889Y-63330608D01*
X193618554Y-63450863D01*
X193620705Y-63484640D01*
X193608691Y-63569563D01*
X193577785Y-63645524D01*
X193535692Y-63695993D01*
X193517906Y-63705197D01*
X193480100Y-63710852D01*
X193401340Y-63718050D01*
X193289103Y-63726269D01*
X193150865Y-63734988D01*
X192994102Y-63743686D01*
X192895839Y-63748601D01*
X192324045Y-63776049D01*
X192316748Y-63850824D01*
X192314331Y-63892163D01*
X192319428Y-63924668D01*
X192337076Y-63949307D01*
X192372311Y-63967050D01*
X192430166Y-63978866D01*
X192515679Y-63985723D01*
X192633885Y-63988592D01*
X192789819Y-63988442D01*
X192988516Y-63986242D01*
X193018217Y-63985849D01*
X193268860Y-63984069D01*
X193478848Y-63985888D01*
X193646004Y-63991248D01*
X193768146Y-64000094D01*
X193814084Y-64006211D01*
X193903555Y-64020331D01*
X193960322Y-64023907D01*
X193999411Y-64014847D01*
X194035850Y-63991056D01*
X194058789Y-63972126D01*
X194150387Y-63920593D01*
X194253521Y-63912598D01*
X194371946Y-63948230D01*
X194435541Y-63980979D01*
X194554819Y-64073520D01*
X194656535Y-64198379D01*
X194728355Y-64339681D01*
X194738956Y-64371522D01*
X194754544Y-64459951D01*
X194760457Y-64577193D01*
X194757577Y-64708634D01*
X194746785Y-64839659D01*
X194728961Y-64955655D01*
X194704986Y-65042007D01*
X194697558Y-65058371D01*
X194622217Y-65157687D01*
X194523250Y-65216904D01*
X194406793Y-65232731D01*
X194377724Y-65229824D01*
X194274342Y-65215047D01*
X194339238Y-65355949D01*
X194429512Y-65589744D01*
X194487578Y-65824795D01*
X194510738Y-66048659D01*
X194509205Y-66139903D01*
X194498320Y-66251099D01*
X194480528Y-66357860D01*
X194459310Y-66440142D01*
X194455031Y-66451725D01*
X194430313Y-66505761D01*
X194400542Y-66548037D01*
X194359745Y-66580118D01*
X194301948Y-66603570D01*
X194221178Y-66619959D01*
X194111461Y-66630852D01*
X193966824Y-66637813D01*
X193781294Y-66642410D01*
X193723711Y-66643444D01*
X193571612Y-66646947D01*
X193437323Y-66651765D01*
X193327883Y-66657500D01*
X193250330Y-66663759D01*
X193211704Y-66670145D01*
X193208682Y-66672375D01*
X193220991Y-66699373D01*
X193254625Y-66758721D01*
X193304645Y-66842026D01*
X193366112Y-66940899D01*
X193375075Y-66955073D01*
X193514839Y-67178644D01*
X193627521Y-67365812D01*
X193714589Y-67519345D01*
X193777512Y-67642012D01*
X193817759Y-67736585D01*
X193836796Y-67805831D01*
X193838835Y-67829934D01*
X193829621Y-67911806D01*
X193798467Y-67967188D01*
X193740101Y-67998182D01*
X193649252Y-68006890D01*
X193520651Y-67995413D01*
X193451049Y-67984561D01*
X193342353Y-67969745D01*
X193228961Y-67959832D01*
X193162892Y-67957357D01*
X193032274Y-67956870D01*
X193047023Y-68071994D01*
X193076353Y-68297401D01*
X193101234Y-68479634D01*
X193122573Y-68623693D01*
X193141276Y-68734581D01*
X193158252Y-68817299D01*
X193174406Y-68876848D01*
X193190647Y-68918231D01*
X193204857Y-68942387D01*
X193241666Y-69022806D01*
X193266518Y-69140268D01*
X193270570Y-69174761D01*
X193278319Y-69261294D01*
X193278147Y-69310301D01*
X193267794Y-69332400D01*
X193244999Y-69338206D01*
X193235742Y-69338359D01*
X193194918Y-69351524D01*
X193184446Y-69371580D01*
X193182013Y-69406514D01*
X193175320Y-69480163D01*
X193165279Y-69583045D01*
X193152801Y-69705679D01*
X193147124Y-69760116D01*
X193134898Y-69887130D01*
X193126383Y-69997403D01*
X193122127Y-70081778D01*
X193122674Y-70131099D01*
X193124524Y-70139251D01*
X193137799Y-70172952D01*
X193159223Y-70239866D01*
X193184465Y-70326367D01*
X193187833Y-70338454D01*
X193215834Y-70428996D01*
X193244260Y-70503850D01*
X193267370Y-70548065D01*
X193269136Y-70550191D01*
X193312228Y-70631109D01*
X193320826Y-70728177D01*
X193304167Y-70796086D01*
X193272977Y-70871385D01*
X192628855Y-70853611D01*
X192416122Y-70847181D01*
X192246570Y-70840290D01*
X192114907Y-70831992D01*
X192015842Y-70821341D01*
X191944085Y-70807390D01*
X191894344Y-70789196D01*
X191861330Y-70765810D01*
X191839751Y-70736288D01*
X191828241Y-70710484D01*
X191822772Y-70665611D01*
X191938671Y-70665611D01*
X191984004Y-70705050D01*
X192073276Y-70729748D01*
X192150544Y-70734914D01*
X192202121Y-70717443D01*
X192218239Y-70704780D01*
X192255537Y-70677455D01*
X192285413Y-70685147D01*
X192307776Y-70703972D01*
X192353456Y-70724579D01*
X192429201Y-70738680D01*
X192522049Y-70746177D01*
X192619038Y-70746974D01*
X192707208Y-70740971D01*
X192773596Y-70728072D01*
X192805243Y-70708178D01*
X192805424Y-70707729D01*
X192837780Y-70675271D01*
X192884335Y-70680117D01*
X192916649Y-70706290D01*
X192962690Y-70735356D01*
X193030479Y-70752837D01*
X193098843Y-70755779D01*
X193146612Y-70741226D01*
X193149353Y-70738782D01*
X193151042Y-70708602D01*
X193138252Y-70675633D01*
X193123356Y-70654739D01*
X193099810Y-70638070D01*
X193061999Y-70624900D01*
X193004309Y-70614500D01*
X192921125Y-70606141D01*
X192806830Y-70599095D01*
X192655811Y-70592633D01*
X192462453Y-70586028D01*
X192442623Y-70585397D01*
X192276530Y-70580427D01*
X192152492Y-70577744D01*
X192064128Y-70577679D01*
X192005060Y-70580566D01*
X191968908Y-70586736D01*
X191949292Y-70596521D01*
X191939833Y-70610254D01*
X191939295Y-70611611D01*
X191938671Y-70665611D01*
X191822772Y-70665611D01*
X191821317Y-70653669D01*
X191826421Y-70565615D01*
X191841091Y-70461341D01*
X191862864Y-70355867D01*
X191889279Y-70264209D01*
X191909295Y-70216151D01*
X191924691Y-70176809D01*
X191935588Y-70122611D01*
X191942626Y-70045688D01*
X191943308Y-70026506D01*
X192593817Y-70026506D01*
X192625550Y-70087039D01*
X192697749Y-70161431D01*
X192774041Y-70222275D01*
X192869194Y-70288225D01*
X192934990Y-70322775D01*
X192977286Y-70327839D01*
X193001935Y-70305334D01*
X193005185Y-70297893D01*
X193002901Y-70246711D01*
X192972755Y-70179019D01*
X192923270Y-70110337D01*
X192878690Y-70067588D01*
X192813385Y-70027005D01*
X192737805Y-69995101D01*
X192667093Y-69976568D01*
X192616394Y-69976101D01*
X192604521Y-69982619D01*
X192593817Y-70026506D01*
X191943308Y-70026506D01*
X191946447Y-69938172D01*
X191947694Y-69792192D01*
X191947673Y-69745526D01*
X191946705Y-69591684D01*
X191945301Y-69539793D01*
X192779457Y-69539793D01*
X192799260Y-69659131D01*
X192836695Y-69759981D01*
X192872975Y-69824690D01*
X192899337Y-69842724D01*
X192918128Y-69814304D01*
X192927779Y-69768559D01*
X192935405Y-69706422D01*
X192944480Y-69614123D01*
X192953238Y-69509867D01*
X192954576Y-69492172D01*
X192959932Y-69379598D01*
X192954475Y-69309402D01*
X192936093Y-69276277D01*
X192902670Y-69274915D01*
X192873194Y-69287838D01*
X192817241Y-69343581D01*
X192785723Y-69431087D01*
X192779457Y-69539793D01*
X191945301Y-69539793D01*
X191943520Y-69473978D01*
X191936760Y-69380078D01*
X191925063Y-69297655D01*
X191907071Y-69214380D01*
X191881423Y-69117922D01*
X191876530Y-69100485D01*
X191845769Y-68989376D01*
X191827693Y-68915106D01*
X191821394Y-68867987D01*
X191825962Y-68838331D01*
X191840487Y-68816448D01*
X191849032Y-68807551D01*
X191865220Y-68785091D01*
X191877663Y-68749657D01*
X191887271Y-68694072D01*
X191894958Y-68611162D01*
X191901632Y-68493750D01*
X191907841Y-68344365D01*
X191911713Y-68234817D01*
X192728878Y-68234817D01*
X192731571Y-68308301D01*
X192746376Y-68479708D01*
X192772697Y-68635479D01*
X192808375Y-68769221D01*
X192851246Y-68874543D01*
X192899149Y-68945053D01*
X192949923Y-68974358D01*
X192956973Y-68974809D01*
X192977122Y-68969192D01*
X192986866Y-68945759D01*
X192987474Y-68894640D01*
X192980212Y-68805963D01*
X192979540Y-68799093D01*
X192968587Y-68704758D01*
X192951599Y-68578119D01*
X192930713Y-68433330D01*
X192908065Y-68284547D01*
X192885794Y-68145926D01*
X192866035Y-68031620D01*
X192855133Y-67975048D01*
X192834102Y-67926694D01*
X192806252Y-67908397D01*
X192768650Y-67927762D01*
X192743478Y-67987239D01*
X192730350Y-68088900D01*
X192728878Y-68234817D01*
X191911713Y-68234817D01*
X191912685Y-68207330D01*
X191916260Y-68088405D01*
X191918379Y-67995499D01*
X191918856Y-67936523D01*
X191917865Y-67918999D01*
X191892736Y-67915828D01*
X191830359Y-67911642D01*
X191741930Y-67907135D01*
X191693892Y-67905078D01*
X191475763Y-67896278D01*
X191484435Y-68332538D01*
X191488466Y-68496702D01*
X191493606Y-68619810D01*
X191500588Y-68709275D01*
X191510145Y-68772513D01*
X191523012Y-68816939D01*
X191534775Y-68841507D01*
X191556922Y-68888844D01*
X191564949Y-68938809D01*
X191559992Y-69008211D01*
X191550339Y-69071756D01*
X191534254Y-69157841D01*
X191516192Y-69210081D01*
X191487884Y-69242694D01*
X191441061Y-69269897D01*
X191432703Y-69274012D01*
X191341171Y-69318730D01*
X191357829Y-69710272D01*
X191364335Y-69856662D01*
X191370677Y-69964356D01*
X191378659Y-70043088D01*
X191390083Y-70102596D01*
X191406753Y-70152614D01*
X191430473Y-70202880D01*
X191458808Y-70255408D01*
X191517647Y-70390565D01*
X191552279Y-70530938D01*
X191561074Y-70663580D01*
X191542396Y-70775542D01*
X191528560Y-70808432D01*
X191490656Y-70881730D01*
X191012757Y-70897735D01*
X190767458Y-70905603D01*
X190565934Y-70911102D01*
X190403538Y-70914072D01*
X190275621Y-70914353D01*
X190177537Y-70911788D01*
X190104637Y-70906216D01*
X190052275Y-70897478D01*
X190015801Y-70885416D01*
X189990569Y-70869870D01*
X189982395Y-70862453D01*
X189948239Y-70814888D01*
X189941622Y-70766320D01*
X190072365Y-70766320D01*
X190084726Y-70783946D01*
X190123510Y-70791136D01*
X190199234Y-70792553D01*
X190208874Y-70792557D01*
X190295802Y-70789356D01*
X190349875Y-70776795D01*
X190386461Y-70750441D01*
X190397094Y-70738235D01*
X190430753Y-70701641D01*
X190456787Y-70701204D01*
X190491154Y-70729229D01*
X190524158Y-70751768D01*
X190569467Y-70764944D01*
X190638791Y-70770591D01*
X190743843Y-70770544D01*
X190753647Y-70770359D01*
X190866592Y-70765706D01*
X190938608Y-70756261D01*
X190977108Y-70740763D01*
X190985812Y-70730893D01*
X191023481Y-70699485D01*
X191066949Y-70703336D01*
X191091330Y-70731965D01*
X191123044Y-70755263D01*
X191184600Y-70767969D01*
X191258541Y-70770102D01*
X191327411Y-70761680D01*
X191373754Y-70742723D01*
X191382288Y-70731657D01*
X191379798Y-70684737D01*
X191363624Y-70655552D01*
X191349170Y-70643251D01*
X191325092Y-70634184D01*
X191285490Y-70628138D01*
X191224459Y-70624901D01*
X191136097Y-70624258D01*
X191014501Y-70625996D01*
X190853769Y-70629902D01*
X190741138Y-70633052D01*
X190575639Y-70638259D01*
X190425430Y-70643845D01*
X190297574Y-70649478D01*
X190199130Y-70654825D01*
X190137159Y-70659555D01*
X190119285Y-70662312D01*
X190090345Y-70693470D01*
X190075912Y-70733594D01*
X190072365Y-70766320D01*
X189941622Y-70766320D01*
X189940154Y-70755545D01*
X189944054Y-70714651D01*
X189964332Y-70637744D01*
X189997428Y-70573645D01*
X190003647Y-70565986D01*
X190033302Y-70522852D01*
X190076650Y-70447425D01*
X190109371Y-70385279D01*
X190251812Y-70385279D01*
X190258018Y-70417527D01*
X190279392Y-70423870D01*
X190320070Y-70401907D01*
X190384185Y-70349241D01*
X190475873Y-70263470D01*
X190496962Y-70243030D01*
X190597366Y-70141243D01*
X190659994Y-70067625D01*
X190685537Y-70020851D01*
X190674685Y-69999593D01*
X190628129Y-70002526D01*
X190621421Y-70004128D01*
X190526574Y-70043892D01*
X190432051Y-70110380D01*
X190348174Y-70192945D01*
X190285267Y-70280943D01*
X190253653Y-70363728D01*
X190251812Y-70385279D01*
X190109371Y-70385279D01*
X190127172Y-70351470D01*
X190164855Y-70275180D01*
X190279415Y-70036524D01*
X190248830Y-69723796D01*
X190235892Y-69595974D01*
X190227601Y-69528578D01*
X191061694Y-69528578D01*
X191066837Y-69616541D01*
X191077844Y-69712725D01*
X191092641Y-69800454D01*
X191109150Y-69863051D01*
X191115747Y-69877282D01*
X191136353Y-69896467D01*
X191153095Y-69878209D01*
X191166784Y-69819513D01*
X191178234Y-69717385D01*
X191185161Y-69621506D01*
X191193011Y-69479652D01*
X191195623Y-69378943D01*
X191192477Y-69312278D01*
X191183058Y-69272557D01*
X191166845Y-69252683D01*
X191157946Y-69248566D01*
X191130645Y-69262752D01*
X191102458Y-69316751D01*
X191077023Y-69402115D01*
X191064491Y-69465515D01*
X191061694Y-69528578D01*
X190227601Y-69528578D01*
X190225158Y-69508719D01*
X190214542Y-69454316D01*
X190201957Y-69425052D01*
X190185317Y-69413209D01*
X190164248Y-69411069D01*
X190134195Y-69406274D01*
X190116042Y-69384595D01*
X190104937Y-69335086D01*
X190097125Y-69259590D01*
X190083966Y-69106022D01*
X190075048Y-68994143D01*
X190070302Y-68917363D01*
X190069658Y-68869090D01*
X190073045Y-68842731D01*
X190080395Y-68831697D01*
X190091638Y-68829394D01*
X190092572Y-68829389D01*
X190107936Y-68819400D01*
X190121131Y-68786385D01*
X190132733Y-68725775D01*
X190143316Y-68633001D01*
X190148231Y-68570237D01*
X191105447Y-68570237D01*
X191127127Y-68703598D01*
X191171284Y-68797236D01*
X191189689Y-68818574D01*
X191226487Y-68847547D01*
X191252103Y-68845994D01*
X191267970Y-68809800D01*
X191275516Y-68734854D01*
X191276175Y-68617043D01*
X191275243Y-68572704D01*
X191269305Y-68384679D01*
X191261661Y-68219025D01*
X191252712Y-68080944D01*
X191242863Y-67975639D01*
X191232516Y-67908312D01*
X191222074Y-67884167D01*
X191221899Y-67884160D01*
X191202496Y-67906529D01*
X191180066Y-67966762D01*
X191156948Y-68054546D01*
X191135482Y-68159570D01*
X191118008Y-68271523D01*
X191106866Y-68380093D01*
X191105890Y-68395359D01*
X191105447Y-68570237D01*
X190148231Y-68570237D01*
X190153458Y-68503492D01*
X190163732Y-68332681D01*
X190169831Y-68215837D01*
X190186476Y-67884160D01*
X189841173Y-67884160D01*
X189495870Y-67884160D01*
X189563751Y-67769036D01*
X189615502Y-67675916D01*
X189772984Y-67675916D01*
X189773822Y-67681606D01*
X189799647Y-67685670D01*
X189867099Y-67689018D01*
X189969339Y-67691663D01*
X190099527Y-67693620D01*
X190250823Y-67694900D01*
X190416387Y-67695518D01*
X190589378Y-67695487D01*
X190762956Y-67694820D01*
X190930283Y-67693531D01*
X191084517Y-67691633D01*
X191218818Y-67689139D01*
X191326348Y-67686063D01*
X191400264Y-67682418D01*
X191433348Y-67678363D01*
X191456986Y-67646939D01*
X191460586Y-67586243D01*
X191447742Y-67509325D01*
X191436616Y-67474640D01*
X191529429Y-67474640D01*
X191530494Y-67572544D01*
X191539033Y-67638851D01*
X191563062Y-67680493D01*
X191610599Y-67704405D01*
X191689660Y-67717518D01*
X191808263Y-67726767D01*
X191822047Y-67727708D01*
X191994137Y-67739272D01*
X192183849Y-67751682D01*
X192384322Y-67764519D01*
X192588698Y-67777366D01*
X192790116Y-67789805D01*
X192981717Y-67801420D01*
X193156641Y-67811793D01*
X193308029Y-67820506D01*
X193429021Y-67827143D01*
X193512756Y-67831285D01*
X193542958Y-67832418D01*
X193671222Y-67835687D01*
X193612538Y-67732681D01*
X193571370Y-67660606D01*
X193516927Y-67565533D01*
X193460101Y-67466481D01*
X193452909Y-67453960D01*
X193351964Y-67278244D01*
X192485146Y-67278244D01*
X192246101Y-67278599D01*
X192051263Y-67279765D01*
X191896371Y-67281893D01*
X191777165Y-67285137D01*
X191689382Y-67289647D01*
X191628762Y-67295576D01*
X191591044Y-67303076D01*
X191573879Y-67310746D01*
X191545572Y-67345953D01*
X191532023Y-67406315D01*
X191529429Y-67474640D01*
X191436616Y-67474640D01*
X191422050Y-67429234D01*
X191387107Y-67359019D01*
X191346507Y-67311730D01*
X191329712Y-67302241D01*
X191280293Y-67290540D01*
X191197893Y-67278053D01*
X191097910Y-67267006D01*
X191067239Y-67264341D01*
X190965492Y-67257020D01*
X190898900Y-67256481D01*
X190854377Y-67264751D01*
X190818838Y-67283856D01*
X190789132Y-67307418D01*
X190707438Y-67358253D01*
X190595442Y-67405182D01*
X190471282Y-67442558D01*
X190353097Y-67464732D01*
X190274433Y-67467689D01*
X190207580Y-67460231D01*
X190174944Y-67443390D01*
X190162285Y-67406465D01*
X190159389Y-67381250D01*
X190151086Y-67331505D01*
X190129263Y-67308916D01*
X190079206Y-67302892D01*
X190050324Y-67302742D01*
X190000057Y-67304311D01*
X189964749Y-67314434D01*
X189935026Y-67341707D01*
X189901514Y-67394725D01*
X189854928Y-67481915D01*
X189813284Y-67566307D01*
X189784435Y-67634751D01*
X189772984Y-67675916D01*
X189615502Y-67675916D01*
X189628029Y-67653375D01*
X189693756Y-67523472D01*
X189757891Y-67386758D01*
X189817389Y-67250668D01*
X189869207Y-67122633D01*
X189910302Y-67010086D01*
X189937631Y-66920461D01*
X189948149Y-66861191D01*
X189943556Y-66841441D01*
X189915619Y-66832561D01*
X189846451Y-66815949D01*
X189742432Y-66792978D01*
X189609940Y-66765020D01*
X189455354Y-66733449D01*
X189285055Y-66699638D01*
X189282346Y-66699108D01*
X189041319Y-66651473D01*
X188843440Y-66611072D01*
X188684155Y-66576554D01*
X188558905Y-66546569D01*
X188463133Y-66519764D01*
X188392282Y-66494790D01*
X188341795Y-66470294D01*
X188307115Y-66444927D01*
X188283685Y-66417337D01*
X188273594Y-66400055D01*
X188246301Y-66303896D01*
X188245695Y-66284040D01*
X188337117Y-66284040D01*
X188340199Y-66322433D01*
X188354177Y-66351837D01*
X188386156Y-66375687D01*
X188443238Y-66397416D01*
X188532526Y-66420456D01*
X188661122Y-66448243D01*
X188688549Y-66453922D01*
X188938551Y-66505685D01*
X189149905Y-66549852D01*
X189331497Y-66588330D01*
X189492211Y-66623030D01*
X189640931Y-66655860D01*
X189786542Y-66688729D01*
X189864026Y-66706481D01*
X190015783Y-66741229D01*
X190127180Y-66765691D01*
X190205094Y-66780456D01*
X190256402Y-66786116D01*
X190287981Y-66783263D01*
X190306708Y-66772486D01*
X190319460Y-66754377D01*
X190323999Y-66746015D01*
X190342955Y-66692927D01*
X190351483Y-66654897D01*
X190414094Y-66654897D01*
X190426129Y-66753856D01*
X190468608Y-66826391D01*
X190545512Y-66875217D01*
X190660822Y-66903047D01*
X190791597Y-66912214D01*
X190864499Y-66910383D01*
X190905310Y-66896505D01*
X190930092Y-66864067D01*
X190934826Y-66854152D01*
X190949197Y-66772332D01*
X190935330Y-66668719D01*
X190898809Y-66556245D01*
X190895064Y-66548670D01*
X190979178Y-66548670D01*
X190981705Y-66648998D01*
X190987977Y-66744440D01*
X190994591Y-66800333D01*
X191009738Y-66891984D01*
X191279105Y-66885162D01*
X191548472Y-66878339D01*
X191565072Y-66769069D01*
X191657537Y-66769069D01*
X191661565Y-66829927D01*
X191671628Y-66863887D01*
X191675715Y-66866425D01*
X191706764Y-66860894D01*
X191770990Y-66846177D01*
X191854690Y-66825419D01*
X191857490Y-66824702D01*
X191938495Y-66801631D01*
X191997002Y-66780562D01*
X192021006Y-66765853D01*
X192021087Y-66765281D01*
X192003458Y-66739624D01*
X191971116Y-66712786D01*
X191923184Y-66691275D01*
X191864447Y-66696002D01*
X191835921Y-66703940D01*
X191762520Y-66717928D01*
X191709580Y-66704248D01*
X191704117Y-66701007D01*
X191674480Y-66686822D01*
X191661097Y-66700279D01*
X191657609Y-66750669D01*
X191657537Y-66769069D01*
X191565072Y-66769069D01*
X191619325Y-66411946D01*
X191640518Y-66267313D01*
X191653373Y-66172055D01*
X191783443Y-66172055D01*
X191796845Y-66238322D01*
X191799544Y-66243763D01*
X191820560Y-66293975D01*
X191848555Y-66372923D01*
X191875008Y-66455594D01*
X191930206Y-66592273D01*
X192000176Y-66684214D01*
X192086785Y-66733402D01*
X192145362Y-66743125D01*
X192193059Y-66727524D01*
X192215228Y-66708384D01*
X192249462Y-66685359D01*
X192278141Y-66698697D01*
X192312515Y-66706817D01*
X192383630Y-66711222D01*
X192479921Y-66712231D01*
X192589826Y-66710162D01*
X192701780Y-66705332D01*
X192804218Y-66698060D01*
X192885576Y-66688661D01*
X192923902Y-66680957D01*
X192960858Y-66653290D01*
X192959502Y-66615213D01*
X192927979Y-66590093D01*
X192878227Y-66581402D01*
X192794628Y-66576688D01*
X192691627Y-66575740D01*
X192583669Y-66578349D01*
X192485198Y-66584302D01*
X192410659Y-66593390D01*
X192390536Y-66597926D01*
X192334838Y-66612702D01*
X192316420Y-66607207D01*
X192329138Y-66572435D01*
X192348132Y-66535738D01*
X192384047Y-66423417D01*
X192372622Y-66318326D01*
X192314824Y-66223673D01*
X192233866Y-66156332D01*
X192149662Y-66113574D01*
X192304178Y-66113574D01*
X192309340Y-66139117D01*
X192343331Y-66186449D01*
X192358583Y-66205172D01*
X192411025Y-66283570D01*
X192431627Y-66361632D01*
X192433110Y-66397109D01*
X192439918Y-66465984D01*
X192457518Y-66506783D01*
X192463406Y-66510857D01*
X192501288Y-66516171D01*
X192580626Y-66520196D01*
X192694421Y-66522998D01*
X192835672Y-66524646D01*
X192997382Y-66525205D01*
X193172551Y-66524743D01*
X193354180Y-66523326D01*
X193535271Y-66521022D01*
X193708824Y-66517896D01*
X193867839Y-66514017D01*
X194005320Y-66509451D01*
X194114265Y-66504265D01*
X194187676Y-66498526D01*
X194214503Y-66494118D01*
X194276682Y-66470374D01*
X194311628Y-66436350D01*
X194334835Y-66375042D01*
X194339795Y-66356620D01*
X194367185Y-66177622D01*
X194357832Y-65984001D01*
X194323248Y-65810678D01*
X194275838Y-65649152D01*
X194219024Y-65509179D01*
X194143434Y-65370054D01*
X194076197Y-65264873D01*
X194020722Y-65186802D01*
X193978490Y-65142691D01*
X193939603Y-65123905D01*
X193911522Y-65121183D01*
X193853731Y-65123179D01*
X193811510Y-65132862D01*
X193784357Y-65155776D01*
X193771773Y-65197467D01*
X193773254Y-65263476D01*
X193788299Y-65359349D01*
X193816408Y-65490630D01*
X193857078Y-65662863D01*
X193861037Y-65679315D01*
X193897656Y-65828321D01*
X193926808Y-65937625D01*
X193951270Y-66014902D01*
X193973818Y-66067830D01*
X193997228Y-66104084D01*
X194024278Y-66131341D01*
X194024635Y-66131643D01*
X194093320Y-66189822D01*
X194009170Y-66148949D01*
X193979421Y-66137301D01*
X193939378Y-66127763D01*
X193883711Y-66120009D01*
X193807093Y-66113711D01*
X193704193Y-66108543D01*
X193569685Y-66104177D01*
X193398238Y-66100287D01*
X193184525Y-66096545D01*
X193144920Y-66095921D01*
X192953738Y-66093429D01*
X192777033Y-66092056D01*
X192620923Y-66091776D01*
X192491526Y-66092565D01*
X192394963Y-66094399D01*
X192337350Y-66097251D01*
X192324438Y-66099263D01*
X192304178Y-66113574D01*
X192149662Y-66113574D01*
X192134197Y-66105721D01*
X192034075Y-66078474D01*
X191941219Y-66073038D01*
X191863349Y-66087859D01*
X191808184Y-66121382D01*
X191783443Y-66172055D01*
X191653373Y-66172055D01*
X191657765Y-66139512D01*
X191670167Y-66036090D01*
X191671006Y-66027086D01*
X192081679Y-66027086D01*
X192142270Y-66045419D01*
X192179749Y-66049251D01*
X192255663Y-66051572D01*
X192361180Y-66052522D01*
X192487466Y-66052242D01*
X192625687Y-66050872D01*
X192767013Y-66048553D01*
X192902608Y-66045425D01*
X193023642Y-66041629D01*
X193121279Y-66037304D01*
X193186688Y-66032592D01*
X193210256Y-66028441D01*
X193223752Y-66004562D01*
X193252350Y-65943496D01*
X193261361Y-65923226D01*
X193443656Y-65923226D01*
X193476416Y-65934507D01*
X193542725Y-65944811D01*
X193620705Y-65951397D01*
X193703638Y-65956548D01*
X193765759Y-65961441D01*
X193792381Y-65964796D01*
X193819833Y-65956152D01*
X193824355Y-65947628D01*
X193825061Y-65929738D01*
X193820753Y-65895918D01*
X193810231Y-65839602D01*
X193792296Y-65754224D01*
X193765749Y-65633219D01*
X193738562Y-65511084D01*
X193712862Y-65403694D01*
X193692955Y-65339886D01*
X193677161Y-65315347D01*
X193665280Y-65322903D01*
X193634815Y-65384649D01*
X193597683Y-65470608D01*
X193557650Y-65570577D01*
X193518484Y-65674352D01*
X193483952Y-65771728D01*
X193457821Y-65852500D01*
X193443859Y-65906466D01*
X193443656Y-65923226D01*
X193261361Y-65923226D01*
X193292643Y-65852859D01*
X193341228Y-65740265D01*
X193378099Y-65653053D01*
X193439887Y-65502734D01*
X193481836Y-65390580D01*
X193504410Y-65310740D01*
X193508075Y-65257362D01*
X193493294Y-65224596D01*
X193460532Y-65206589D01*
X193414218Y-65197948D01*
X193318283Y-65200728D01*
X193210020Y-65225598D01*
X193101694Y-65266998D01*
X193005568Y-65319368D01*
X192933906Y-65377150D01*
X192899906Y-65431081D01*
X192891825Y-65484538D01*
X192885968Y-65571177D01*
X192883215Y-65675726D01*
X192883192Y-65720789D01*
X192882607Y-65829658D01*
X192877938Y-65898972D01*
X192867817Y-65937573D01*
X192850874Y-65954304D01*
X192846837Y-65955721D01*
X192808899Y-65959644D01*
X192733273Y-65962306D01*
X192630736Y-65963481D01*
X192512062Y-65962943D01*
X192505820Y-65962866D01*
X192359099Y-65962957D01*
X192253726Y-65967926D01*
X192182767Y-65978350D01*
X192142270Y-65993052D01*
X192081679Y-66027086D01*
X191671006Y-66027086D01*
X191676827Y-65964594D01*
X191676850Y-65932573D01*
X191676399Y-65931775D01*
X191651233Y-65937555D01*
X191591892Y-65963022D01*
X191506579Y-66004333D01*
X191403499Y-66057648D01*
X191375298Y-66072733D01*
X191232812Y-66152239D01*
X191128781Y-66219168D01*
X191057336Y-66280569D01*
X191012612Y-66343492D01*
X190988739Y-66414988D01*
X190979852Y-66502106D01*
X190979178Y-66548670D01*
X190895064Y-66548670D01*
X190845213Y-66447843D01*
X190780126Y-66356447D01*
X190709128Y-66294988D01*
X190689171Y-66284997D01*
X190631954Y-66268873D01*
X190581077Y-66279919D01*
X190543652Y-66299925D01*
X190477321Y-66365348D01*
X190434751Y-66470080D01*
X190415340Y-66615765D01*
X190414094Y-66654897D01*
X190351483Y-66654897D01*
X190360053Y-66616676D01*
X190364562Y-66588034D01*
X190369911Y-66509694D01*
X190356576Y-66457769D01*
X190333936Y-66426377D01*
X190268685Y-66373389D01*
X190170004Y-66324523D01*
X190035125Y-66279038D01*
X189861280Y-66236193D01*
X189645701Y-66195246D01*
X189385619Y-66155457D01*
X189258110Y-66138351D01*
X189114466Y-66121461D01*
X188978562Y-66108564D01*
X188861605Y-66100499D01*
X188774802Y-66098107D01*
X188742299Y-66099693D01*
X188672778Y-66103664D01*
X188640845Y-66096571D01*
X188640724Y-66089599D01*
X188674392Y-66069946D01*
X188700746Y-66066412D01*
X188749835Y-66050831D01*
X188805120Y-66013212D01*
X188806604Y-66011880D01*
X188841583Y-65965685D01*
X188856119Y-65939942D01*
X189039980Y-65939942D01*
X189061962Y-65956076D01*
X189119683Y-65974498D01*
X189200809Y-65991301D01*
X189203577Y-65991756D01*
X189361377Y-66017332D01*
X189479141Y-66035982D01*
X189564635Y-66048824D01*
X189625624Y-66056976D01*
X189669875Y-66061557D01*
X189702514Y-66063579D01*
X189771251Y-66066412D01*
X189686712Y-65914933D01*
X189637162Y-65823711D01*
X189576433Y-65708381D01*
X189514694Y-65588356D01*
X189489932Y-65539265D01*
X189441821Y-65446321D01*
X189400452Y-65372204D01*
X189371092Y-65326021D01*
X189360314Y-65315180D01*
X189344029Y-65335506D01*
X189311636Y-65390119D01*
X189267970Y-65469587D01*
X189217866Y-65564483D01*
X189166158Y-65665375D01*
X189117682Y-65762836D01*
X189077272Y-65847434D01*
X189049764Y-65909741D01*
X189039980Y-65939942D01*
X188856119Y-65939942D01*
X188888340Y-65882878D01*
X188943992Y-65770638D01*
X189005654Y-65636147D01*
X189070441Y-65486584D01*
X189135468Y-65329131D01*
X189197851Y-65170967D01*
X189254706Y-65019275D01*
X189303147Y-64881234D01*
X189307066Y-64868867D01*
X189380748Y-64868867D01*
X189390386Y-64977485D01*
X189416276Y-65091499D01*
X189450813Y-65191686D01*
X189499711Y-65311484D01*
X189559490Y-65444378D01*
X189626665Y-65583855D01*
X189697757Y-65723400D01*
X189769282Y-65856500D01*
X189837759Y-65976640D01*
X189899706Y-66077306D01*
X189951641Y-66151985D01*
X189990081Y-66194162D01*
X190008847Y-66200083D01*
X190023403Y-66171986D01*
X190043487Y-66109131D01*
X190065100Y-66024289D01*
X190068124Y-66010916D01*
X190102727Y-65884362D01*
X190109757Y-65864864D01*
X190641185Y-65864864D01*
X190655826Y-65964274D01*
X190691092Y-66065064D01*
X190744923Y-66154232D01*
X190751749Y-66162606D01*
X190816179Y-66216577D01*
X190883043Y-66236212D01*
X190939351Y-66218026D01*
X190943768Y-66214119D01*
X190976076Y-66191804D01*
X191037376Y-66155472D01*
X191105074Y-66118053D01*
X191168508Y-66084044D01*
X191219171Y-66056817D01*
X191266608Y-66031189D01*
X191320365Y-66001973D01*
X191389987Y-65963984D01*
X191485020Y-65912039D01*
X191584827Y-65857456D01*
X191607929Y-65844794D01*
X192045324Y-65844794D01*
X192184684Y-65861585D01*
X192282806Y-65874689D01*
X192378653Y-65889508D01*
X192420992Y-65897028D01*
X192555879Y-65915581D01*
X192664274Y-65915421D01*
X192738582Y-65896866D01*
X192758573Y-65882906D01*
X192777790Y-65851115D01*
X192789656Y-65796291D01*
X192795476Y-65709276D01*
X192796659Y-65615703D01*
X192796081Y-65508986D01*
X192792695Y-65440670D01*
X192784023Y-65400686D01*
X192767589Y-65378961D01*
X192740916Y-65365425D01*
X192734490Y-65362950D01*
X192638031Y-65340945D01*
X192539004Y-65342234D01*
X192448778Y-65363537D01*
X192378721Y-65401576D01*
X192340202Y-65453070D01*
X192336163Y-65477840D01*
X192321841Y-65519206D01*
X192291223Y-65534144D01*
X192262829Y-65515970D01*
X192258393Y-65505906D01*
X192231992Y-65497469D01*
X192169515Y-65519744D01*
X192147308Y-65530636D01*
X192088544Y-65562915D01*
X192058243Y-65593350D01*
X192046978Y-65638864D01*
X192045324Y-65713729D01*
X192045324Y-65844794D01*
X191607929Y-65844794D01*
X191684246Y-65802965D01*
X191766977Y-65757394D01*
X191824408Y-65725503D01*
X191844995Y-65713729D01*
X191847927Y-65712052D01*
X191847938Y-65712044D01*
X191845410Y-65687850D01*
X191829545Y-65632684D01*
X191814712Y-65589211D01*
X191756284Y-65431053D01*
X191710556Y-65317768D01*
X191676778Y-65247660D01*
X191654202Y-65219031D01*
X191650761Y-65218130D01*
X191621772Y-65228982D01*
X191557841Y-65258865D01*
X191466674Y-65303769D01*
X191355976Y-65359686D01*
X191233454Y-65422606D01*
X191106812Y-65488518D01*
X190983756Y-65553415D01*
X190871993Y-65613285D01*
X190779226Y-65664121D01*
X190713163Y-65701912D01*
X190682013Y-65722200D01*
X190649227Y-65779839D01*
X190641185Y-65864864D01*
X190109757Y-65864864D01*
X190148508Y-65757385D01*
X190199972Y-65642476D01*
X190251626Y-65552124D01*
X190290856Y-65504597D01*
X190349854Y-65464211D01*
X190401458Y-65439260D01*
X190453939Y-65427778D01*
X190490531Y-65446432D01*
X190520449Y-65502443D01*
X190534853Y-65543809D01*
X190557720Y-65596137D01*
X190580501Y-65622043D01*
X190580522Y-65622050D01*
X190608022Y-65614493D01*
X190673479Y-65589543D01*
X190770686Y-65549780D01*
X190893434Y-65497786D01*
X191035514Y-65436143D01*
X191160686Y-65380831D01*
X191718129Y-65132566D01*
X191725842Y-65038853D01*
X191726111Y-64973998D01*
X191718484Y-64937853D01*
X191783847Y-64937853D01*
X191786317Y-64996443D01*
X191791884Y-65073863D01*
X191799300Y-65155991D01*
X191807322Y-65228707D01*
X191814701Y-65277889D01*
X191819116Y-65290840D01*
X191843168Y-65280652D01*
X191900972Y-65253142D01*
X191983038Y-65212888D01*
X192051867Y-65178561D01*
X192156655Y-65124945D01*
X192251769Y-65073487D01*
X192295646Y-65048011D01*
X192852632Y-65048011D01*
X192852932Y-65118802D01*
X192857703Y-65142090D01*
X192873420Y-65162835D01*
X192903278Y-65148812D01*
X192912070Y-65142090D01*
X192940543Y-65121355D01*
X192934498Y-65133939D01*
X192921815Y-65150417D01*
X192903764Y-65195084D01*
X192913316Y-65231577D01*
X192937451Y-65241595D01*
X192968217Y-65227847D01*
X192996612Y-65208628D01*
X193031887Y-65168340D01*
X193040939Y-65142748D01*
X193046559Y-65124096D01*
X193054926Y-65138905D01*
X193073821Y-65155313D01*
X193115913Y-65147428D01*
X193146471Y-65135540D01*
X193222375Y-65115796D01*
X193294898Y-65114358D01*
X193296082Y-65114557D01*
X193343302Y-65121307D01*
X193347689Y-65112779D01*
X193317747Y-65085648D01*
X193269274Y-65044516D01*
X193317747Y-65061730D01*
X193391852Y-65084214D01*
X193446330Y-65093652D01*
X193470346Y-65088570D01*
X193469084Y-65082283D01*
X193484444Y-65070944D01*
X193537365Y-65061050D01*
X193542965Y-65060591D01*
X193863072Y-65060591D01*
X193875190Y-65072710D01*
X193887308Y-65060591D01*
X193875190Y-65048473D01*
X193863072Y-65060591D01*
X193542965Y-65060591D01*
X193616936Y-65054528D01*
X193629079Y-65054013D01*
X193734438Y-65049993D01*
X193836834Y-65046050D01*
X193906309Y-65043341D01*
X193971612Y-65037123D01*
X193997968Y-65022526D01*
X193997137Y-65001446D01*
X193993413Y-64980787D01*
X194012220Y-64999786D01*
X194017163Y-65006059D01*
X194053068Y-65042481D01*
X194070406Y-65043040D01*
X194061499Y-65008904D01*
X194056965Y-65000000D01*
X194043913Y-64962564D01*
X194050053Y-64951155D01*
X194052243Y-64940959D01*
X194042313Y-64932978D01*
X194022675Y-64902483D01*
X193995387Y-64838279D01*
X193965861Y-64753340D01*
X193961482Y-64739313D01*
X193931939Y-64611386D01*
X193917192Y-64477087D01*
X193917724Y-64351699D01*
X193934017Y-64250500D01*
X193945092Y-64220137D01*
X193951183Y-64191786D01*
X193923559Y-64189685D01*
X193907400Y-64193259D01*
X193835998Y-64223635D01*
X193790510Y-64268209D01*
X193781755Y-64316238D01*
X193782164Y-64317592D01*
X193788064Y-64343420D01*
X193772706Y-64326314D01*
X193770011Y-64322531D01*
X193754465Y-64283005D01*
X193757036Y-64267999D01*
X193751414Y-64249542D01*
X193744749Y-64248664D01*
X193710052Y-64266165D01*
X193707468Y-64269770D01*
X193676554Y-64288958D01*
X193620319Y-64305697D01*
X193619603Y-64305840D01*
X193572663Y-64322576D01*
X193558866Y-64343224D01*
X193559766Y-64345048D01*
X193556272Y-64359332D01*
X193538911Y-64355540D01*
X193500557Y-64364960D01*
X193465913Y-64410350D01*
X193439940Y-64450421D01*
X193428615Y-64446269D01*
X193427783Y-64436498D01*
X193414834Y-64400510D01*
X193401145Y-64394084D01*
X193385864Y-64408469D01*
X193388859Y-64415735D01*
X193379044Y-64436624D01*
X193341816Y-64452552D01*
X193296502Y-64472015D01*
X193281392Y-64491492D01*
X193262196Y-64513501D01*
X193250568Y-64515267D01*
X193217756Y-64530684D01*
X193162842Y-64570868D01*
X193105245Y-64620389D01*
X193045401Y-64673100D01*
X193001067Y-64707974D01*
X192982570Y-64717335D01*
X192974351Y-64728247D01*
X192973242Y-64739456D01*
X192964949Y-64786769D01*
X192955924Y-64818225D01*
X192945772Y-64851819D01*
X192954882Y-64844037D01*
X192971214Y-64820352D01*
X193012678Y-64766726D01*
X193051144Y-64723405D01*
X193084270Y-64681646D01*
X193093849Y-64655500D01*
X193106444Y-64647399D01*
X193124145Y-64652034D01*
X193155094Y-64650812D01*
X193160209Y-64639043D01*
X193172827Y-64617764D01*
X193178880Y-64618273D01*
X193210799Y-64613547D01*
X193263961Y-64593947D01*
X193322520Y-64566926D01*
X193370627Y-64539939D01*
X193392435Y-64520442D01*
X193392158Y-64517943D01*
X193401375Y-64503534D01*
X193441550Y-64498198D01*
X193496144Y-64501326D01*
X193548618Y-64512307D01*
X193575778Y-64524718D01*
X193606787Y-64552417D01*
X193597882Y-64575938D01*
X193583732Y-64588490D01*
X193559651Y-64617727D01*
X193576875Y-64640268D01*
X193577144Y-64640443D01*
X193585265Y-64654194D01*
X193547995Y-64654701D01*
X193502514Y-64659581D01*
X193493172Y-64677992D01*
X193481755Y-64696528D01*
X193458900Y-64692051D01*
X193431934Y-64688140D01*
X193438699Y-64708786D01*
X193445347Y-64729512D01*
X193431269Y-64724033D01*
X193391011Y-64723069D01*
X193331735Y-64745281D01*
X193271240Y-64782320D01*
X193234467Y-64816360D01*
X193200085Y-64841517D01*
X193181977Y-64840936D01*
X193170781Y-64846986D01*
X193175198Y-64865439D01*
X193174790Y-64897328D01*
X193162802Y-64903053D01*
X193137119Y-64890234D01*
X193135901Y-64884876D01*
X193115465Y-64870678D01*
X193067999Y-64865277D01*
X193014042Y-64868161D01*
X192974135Y-64878820D01*
X192965457Y-64889117D01*
X192955352Y-64890453D01*
X192932553Y-64857359D01*
X192900508Y-64799546D01*
X192881461Y-64869477D01*
X192862682Y-64958706D01*
X192852632Y-65048011D01*
X192295646Y-65048011D01*
X192345670Y-65018966D01*
X192446818Y-64956159D01*
X192563674Y-64879842D01*
X192704701Y-64784792D01*
X192841731Y-64690984D01*
X192965029Y-64604715D01*
X193048814Y-64541004D01*
X193094532Y-64496484D01*
X193103628Y-64467785D01*
X193077548Y-64451538D01*
X193017735Y-64444376D01*
X192948138Y-64442928D01*
X192873442Y-64440501D01*
X192835327Y-64430638D01*
X192821977Y-64408613D01*
X192820896Y-64392064D01*
X192819589Y-64377224D01*
X192853325Y-64377224D01*
X192857559Y-64394582D01*
X192887305Y-64406093D01*
X192952243Y-64414528D01*
X193039114Y-64418264D01*
X193051488Y-64418320D01*
X193131570Y-64417015D01*
X193195238Y-64410423D01*
X193255507Y-64394528D01*
X193325388Y-64365315D01*
X193417897Y-64318771D01*
X193479464Y-64286279D01*
X193585996Y-64228460D01*
X193653791Y-64187961D01*
X193687787Y-64161078D01*
X193692925Y-64144107D01*
X193680503Y-64135534D01*
X193630807Y-64125803D01*
X193547160Y-64119303D01*
X193440586Y-64115887D01*
X193322109Y-64115408D01*
X193202752Y-64117722D01*
X193093541Y-64122681D01*
X193005497Y-64130141D01*
X192949647Y-64139955D01*
X192937615Y-64145370D01*
X192907903Y-64187005D01*
X192879944Y-64251999D01*
X192859748Y-64321642D01*
X192853325Y-64377224D01*
X192819589Y-64377224D01*
X192818567Y-64365615D01*
X192809614Y-64352817D01*
X192791087Y-64356604D01*
X192760038Y-64379908D01*
X192713515Y-64425664D01*
X192648572Y-64496805D01*
X192562257Y-64596266D01*
X192451621Y-64726980D01*
X192313716Y-64891879D01*
X192290987Y-64919154D01*
X192227098Y-64995846D01*
X192009936Y-64950502D01*
X191914073Y-64931353D01*
X191838190Y-64917834D01*
X191793217Y-64911812D01*
X191785717Y-64912214D01*
X191783847Y-64937853D01*
X191718484Y-64937853D01*
X191717079Y-64931194D01*
X191713723Y-64926472D01*
X191683252Y-64925773D01*
X191620508Y-64940814D01*
X191537869Y-64968473D01*
X191519545Y-64975437D01*
X191345198Y-65043070D01*
X191192028Y-64882174D01*
X191068386Y-64750811D01*
X190954271Y-64626756D01*
X190853827Y-64514765D01*
X190771197Y-64419591D01*
X190710522Y-64345988D01*
X190684542Y-64310467D01*
X190763989Y-64310467D01*
X190776522Y-64330256D01*
X190816765Y-64380073D01*
X190879781Y-64454111D01*
X190960634Y-64546569D01*
X191049961Y-64646724D01*
X191344844Y-64974450D01*
X191504076Y-64914515D01*
X191584084Y-64884858D01*
X191644221Y-64863428D01*
X191672154Y-64854612D01*
X191672541Y-64854580D01*
X191682157Y-64847191D01*
X191835963Y-64847191D01*
X191865416Y-64859156D01*
X191927044Y-64876263D01*
X192005343Y-64894927D01*
X192084808Y-64911561D01*
X192149935Y-64922575D01*
X192171428Y-64924806D01*
X192201720Y-64907252D01*
X192258139Y-64855150D01*
X192337079Y-64772234D01*
X192434933Y-64662239D01*
X192510741Y-64573520D01*
X192604223Y-64461938D01*
X192686553Y-64362492D01*
X192752736Y-64281309D01*
X192797779Y-64224519D01*
X192816689Y-64198249D01*
X192816857Y-64197852D01*
X192798326Y-64187957D01*
X192741928Y-64180389D01*
X192658252Y-64176330D01*
X192620701Y-64175954D01*
X192416466Y-64175954D01*
X192119316Y-64504674D01*
X192025783Y-64609652D01*
X191945842Y-64702276D01*
X191884350Y-64776675D01*
X191846161Y-64826981D01*
X191835963Y-64847191D01*
X191682157Y-64847191D01*
X191682374Y-64847024D01*
X191669300Y-64822231D01*
X191630415Y-64777011D01*
X191562812Y-64708174D01*
X191463589Y-64612530D01*
X191382354Y-64535970D01*
X191112002Y-64282640D01*
X191257733Y-64282640D01*
X191265397Y-64329405D01*
X191309482Y-64393284D01*
X191381526Y-64471510D01*
X191474413Y-64562255D01*
X191564722Y-64642702D01*
X191644382Y-64706327D01*
X191705320Y-64746604D01*
X191735477Y-64757633D01*
X191772438Y-64747274D01*
X191810610Y-64729815D01*
X191861376Y-64694022D01*
X191920517Y-64640363D01*
X191933551Y-64626809D01*
X191982581Y-64574998D01*
X192053112Y-64501513D01*
X192132705Y-64419289D01*
X192163042Y-64388133D01*
X192236849Y-64311144D01*
X192280751Y-64260077D01*
X192299495Y-64226958D01*
X192297828Y-64203811D01*
X192283552Y-64185666D01*
X192231154Y-64159830D01*
X192141147Y-64142621D01*
X192023566Y-64133741D01*
X191888445Y-64132891D01*
X191745820Y-64139775D01*
X191605727Y-64154094D01*
X191478200Y-64175550D01*
X191373274Y-64203845D01*
X191348179Y-64213424D01*
X191285618Y-64246231D01*
X191257733Y-64282640D01*
X191112002Y-64282640D01*
X191082933Y-64255401D01*
X190927917Y-64278669D01*
X190847010Y-64291841D01*
X190787748Y-64303423D01*
X190763989Y-64310467D01*
X190684542Y-64310467D01*
X190675945Y-64298712D01*
X190669921Y-64282973D01*
X190698090Y-64273759D01*
X190762959Y-64259782D01*
X190853274Y-64243336D01*
X190909711Y-64234071D01*
X191014253Y-64216846D01*
X191104519Y-64200710D01*
X191167000Y-64188135D01*
X191183395Y-64184016D01*
X191216033Y-64171129D01*
X191208320Y-64154437D01*
X191184821Y-64136528D01*
X191145209Y-64120670D01*
X191073774Y-64110222D01*
X190964690Y-64104619D01*
X190840978Y-64103244D01*
X190712513Y-64103167D01*
X190625576Y-64106060D01*
X190573251Y-64116612D01*
X190548622Y-64139511D01*
X190544773Y-64179445D01*
X190554790Y-64241103D01*
X190564603Y-64290605D01*
X190584443Y-64393137D01*
X190395930Y-64465836D01*
X190186921Y-64540699D01*
X189984080Y-64602572D01*
X189798777Y-64648373D01*
X189642383Y-64675018D01*
X189613653Y-64677945D01*
X189522349Y-64690329D01*
X189450044Y-64708409D01*
X189413701Y-64726688D01*
X189388491Y-64781235D01*
X189380748Y-64868867D01*
X189307066Y-64868867D01*
X189340289Y-64764025D01*
X189363250Y-64674829D01*
X189369142Y-64620827D01*
X189367927Y-64614583D01*
X189336588Y-64576271D01*
X189274405Y-64536449D01*
X189194985Y-64500209D01*
X189111933Y-64472645D01*
X189038858Y-64458849D01*
X188989364Y-64463915D01*
X188981196Y-64469823D01*
X188962357Y-64500976D01*
X188928222Y-64566885D01*
X188883317Y-64658073D01*
X188832166Y-64765058D01*
X188779294Y-64878363D01*
X188729225Y-64988509D01*
X188686486Y-65086015D01*
X188681840Y-65096946D01*
X188597245Y-65307815D01*
X188520617Y-65520063D01*
X188454298Y-65725625D01*
X188400631Y-65916432D01*
X188361959Y-66084417D01*
X188340624Y-66221513D01*
X188337117Y-66284040D01*
X188245695Y-66284040D01*
X188242240Y-66170869D01*
X188260115Y-66005914D01*
X188298630Y-65813973D01*
X188356489Y-65599986D01*
X188432396Y-65368896D01*
X188525054Y-65125642D01*
X188633168Y-64875165D01*
X188723045Y-64686691D01*
X188785132Y-64558860D01*
X188826589Y-64465232D01*
X188850329Y-64397638D01*
X188859267Y-64347912D01*
X188857538Y-64320327D01*
X189023595Y-64320327D01*
X189044153Y-64349966D01*
X189102915Y-64390009D01*
X189203182Y-64443148D01*
X189233873Y-64458190D01*
X189373013Y-64522746D01*
X189489143Y-64567045D01*
X189593260Y-64591413D01*
X189696366Y-64596177D01*
X189809458Y-64581660D01*
X189943536Y-64548190D01*
X190109599Y-64496091D01*
X190142747Y-64485090D01*
X190254611Y-64446172D01*
X190349490Y-64410132D01*
X190417938Y-64380772D01*
X190450513Y-64361896D01*
X190451393Y-64360794D01*
X190462474Y-64321058D01*
X190468932Y-64254120D01*
X190469571Y-64227153D01*
X190469942Y-64120815D01*
X190257871Y-64137845D01*
X190082297Y-64153227D01*
X189900184Y-64171459D01*
X189718588Y-64191612D01*
X189544568Y-64212756D01*
X189385179Y-64233965D01*
X189247480Y-64254307D01*
X189138528Y-64272856D01*
X189065379Y-64288681D01*
X189037940Y-64298398D01*
X189023595Y-64320327D01*
X188857538Y-64320327D01*
X188856964Y-64311164D01*
X188858282Y-64231620D01*
X188887607Y-64178522D01*
X188908714Y-64157260D01*
X188938178Y-64140409D01*
X188983615Y-64126251D01*
X189052641Y-64113065D01*
X189152871Y-64099133D01*
X189291922Y-64082735D01*
X189331707Y-64078266D01*
X189463335Y-64064671D01*
X189632413Y-64048917D01*
X189828017Y-64031924D01*
X190039221Y-64014613D01*
X190255100Y-63997904D01*
X190464729Y-63982718D01*
X190469942Y-63982356D01*
X190656320Y-63968843D01*
X190828627Y-63955261D01*
X190980484Y-63942197D01*
X191105509Y-63930240D01*
X191197322Y-63919979D01*
X191249543Y-63912002D01*
X191257633Y-63909712D01*
X191284796Y-63894942D01*
X191270882Y-63888663D01*
X191233396Y-63887162D01*
X191190607Y-63888075D01*
X191106448Y-63891272D01*
X190987956Y-63896433D01*
X190842165Y-63903239D01*
X190676109Y-63911371D01*
X190496823Y-63920510D01*
X190483719Y-63921192D01*
X190258437Y-63932169D01*
X190079107Y-63939178D01*
X189943377Y-63942250D01*
X189848890Y-63941418D01*
X189793291Y-63936715D01*
X189776037Y-63930964D01*
X189740384Y-63886270D01*
X189716018Y-63817319D01*
X189702170Y-63718361D01*
X189698074Y-63583642D01*
X189702964Y-63407410D01*
X189703819Y-63389303D01*
X189712581Y-63246049D01*
X189724524Y-63101693D01*
X189738133Y-62972281D01*
X189751897Y-62873856D01*
X189753071Y-62867175D01*
X189785802Y-62685401D01*
X189715369Y-62628736D01*
X189633884Y-62543433D01*
X189586683Y-62452209D01*
X189572801Y-62363276D01*
X189575648Y-62351187D01*
X189701420Y-62351187D01*
X189713720Y-62402749D01*
X189744001Y-62444267D01*
X189797380Y-62488693D01*
X189840178Y-62502490D01*
X189862682Y-62483458D01*
X189864026Y-62471468D01*
X189883714Y-62449163D01*
X189934791Y-62449697D01*
X190005556Y-62460083D01*
X189971713Y-62556004D01*
X189942900Y-62657900D01*
X189915543Y-62791296D01*
X189890714Y-62945909D01*
X189869484Y-63111457D01*
X189852924Y-63277657D01*
X189842105Y-63434228D01*
X189838098Y-63570885D01*
X189841974Y-63677347D01*
X189849696Y-63727393D01*
X189866635Y-63794882D01*
X190162229Y-63776890D01*
X190304203Y-63768934D01*
X190463456Y-63761159D01*
X190632952Y-63753790D01*
X190805650Y-63747053D01*
X190974513Y-63741171D01*
X191132502Y-63736371D01*
X191272577Y-63732876D01*
X191387701Y-63730911D01*
X191470834Y-63730701D01*
X191514939Y-63732471D01*
X191519755Y-63733542D01*
X191520477Y-63756789D01*
X191496731Y-63791779D01*
X191464462Y-63856279D01*
X191455244Y-63938025D01*
X191470095Y-64013443D01*
X191486001Y-64040388D01*
X191539780Y-64075190D01*
X191607529Y-64065108D01*
X191672446Y-64025145D01*
X191728561Y-63977118D01*
X191770314Y-63933292D01*
X191772295Y-63930683D01*
X191792922Y-63910849D01*
X191817707Y-63914474D01*
X191857385Y-63946207D01*
X191896686Y-63984546D01*
X191982708Y-64052918D01*
X192059338Y-64078550D01*
X192122793Y-64060587D01*
X192144045Y-64040514D01*
X192168686Y-63979182D01*
X192170816Y-63896453D01*
X192151352Y-63813364D01*
X192132533Y-63776282D01*
X192111175Y-63743022D01*
X192098817Y-63716571D01*
X192100120Y-63695651D01*
X192119746Y-63678982D01*
X192162359Y-63665284D01*
X192232619Y-63653279D01*
X192335189Y-63641687D01*
X192474732Y-63629228D01*
X192655909Y-63614623D01*
X192748186Y-63607332D01*
X192902251Y-63594869D01*
X193046680Y-63582661D01*
X193171824Y-63571563D01*
X193268029Y-63562431D01*
X193325646Y-63556122D01*
X193325979Y-63556078D01*
X193390695Y-63545267D01*
X193418241Y-63529284D01*
X193419697Y-63498317D01*
X193414909Y-63477340D01*
X193386877Y-63405866D01*
X193334548Y-63309645D01*
X193262673Y-63194814D01*
X193176007Y-63067509D01*
X193079304Y-62933866D01*
X192977316Y-62800021D01*
X192874797Y-62672111D01*
X192776501Y-62556272D01*
X192687180Y-62458641D01*
X192611589Y-62385353D01*
X192554481Y-62342545D01*
X192529209Y-62333969D01*
X192483121Y-62320985D01*
X192463732Y-62291992D01*
X192480575Y-62261931D01*
X192482456Y-62260720D01*
X192520224Y-62249618D01*
X192592430Y-62237466D01*
X192685149Y-62226500D01*
X192709750Y-62224220D01*
X192874814Y-62201795D01*
X192999964Y-62167516D01*
X193083267Y-62122484D01*
X193122789Y-62067801D01*
X193116597Y-62004570D01*
X193111889Y-61994942D01*
X193101035Y-61974084D01*
X193089989Y-61956740D01*
X193074811Y-61943081D01*
X193051557Y-61933275D01*
X193016285Y-61927494D01*
X192965053Y-61925906D01*
X192893919Y-61928683D01*
X192798939Y-61935993D01*
X192676172Y-61948008D01*
X192521676Y-61964896D01*
X192331508Y-61986828D01*
X192101725Y-62013974D01*
X191828386Y-62046503D01*
X191778721Y-62052412D01*
X191421301Y-62095230D01*
X191109262Y-62133344D01*
X190839787Y-62167210D01*
X190610060Y-62197284D01*
X190417262Y-62224024D01*
X190258578Y-62247884D01*
X190131190Y-62269323D01*
X190032281Y-62288795D01*
X189959035Y-62306759D01*
X189908634Y-62323669D01*
X189878262Y-62339982D01*
X189865102Y-62356155D01*
X189864026Y-62362639D01*
X189849726Y-62370158D01*
X189819703Y-62349844D01*
X189762055Y-62315200D01*
X189720079Y-62318826D01*
X189701420Y-62351187D01*
X189575648Y-62351187D01*
X189591272Y-62284845D01*
X189641133Y-62225127D01*
X189721420Y-62192334D01*
X189767079Y-62188549D01*
X189827816Y-62185767D01*
X189861571Y-62178819D01*
X189864026Y-62176019D01*
X189859193Y-62148765D01*
X189846043Y-62083946D01*
X189826605Y-61991355D01*
X189803665Y-61884307D01*
X189743063Y-61565546D01*
X189700422Y-61256411D01*
X189676181Y-60964159D01*
X189673108Y-60811671D01*
X189852481Y-60811671D01*
X189863814Y-61009134D01*
X189882255Y-61211549D01*
X189902477Y-61407701D01*
X189923663Y-61591642D01*
X189944997Y-61757422D01*
X189965663Y-61899093D01*
X189984845Y-62010707D01*
X190001726Y-62086315D01*
X190015492Y-62119969D01*
X190016297Y-62120586D01*
X190061776Y-62132232D01*
X190147162Y-62138383D01*
X190264228Y-62139299D01*
X190404751Y-62135238D01*
X190560504Y-62126460D01*
X190723262Y-62113221D01*
X190884802Y-62095783D01*
X190911334Y-62092447D01*
X191043221Y-62074797D01*
X191210743Y-62051311D01*
X191401665Y-62023764D01*
X191603750Y-61993935D01*
X191804762Y-61963600D01*
X191912022Y-61947097D01*
X192084878Y-61920696D01*
X192245242Y-61896964D01*
X192385870Y-61876915D01*
X192499521Y-61861559D01*
X192578950Y-61851907D01*
X192614885Y-61848936D01*
X192687340Y-61842085D01*
X192730937Y-61816587D01*
X192752058Y-61763397D01*
X192757085Y-61673473D01*
X192756669Y-61648028D01*
X192744563Y-61526289D01*
X192714834Y-61369801D01*
X192670206Y-61187811D01*
X192613403Y-60989565D01*
X192547150Y-60784311D01*
X192474171Y-60581295D01*
X192397190Y-60389765D01*
X192363256Y-60312623D01*
X192283054Y-60159034D01*
X192179270Y-59993994D01*
X192063781Y-59834666D01*
X191948466Y-59698213D01*
X191912156Y-59660814D01*
X191755916Y-59534108D01*
X191577633Y-59442200D01*
X191372356Y-59383368D01*
X191135134Y-59355886D01*
X191029155Y-59353283D01*
X190925506Y-59354837D01*
X190847789Y-59363020D01*
X190777015Y-59382357D01*
X190694195Y-59417372D01*
X190629250Y-59448556D01*
X190406903Y-59574956D01*
X190224275Y-59718848D01*
X190079810Y-59883404D01*
X189971953Y-60071793D01*
X189899150Y-60287187D01*
X189859844Y-60532756D01*
X189852481Y-60811671D01*
X189673108Y-60811671D01*
X189670778Y-60696045D01*
X189684652Y-60459324D01*
X189708206Y-60305615D01*
X189781329Y-60057239D01*
X189892024Y-59839103D01*
X190040635Y-59650839D01*
X190227504Y-59492081D01*
X190452977Y-59362463D01*
X190673721Y-59275420D01*
X190783359Y-59240882D01*
X190871773Y-59217958D01*
X190954986Y-59204303D01*
X191049022Y-59197574D01*
X191169904Y-59195427D01*
X191221278Y-59195324D01*
X191349511Y-59195956D01*
G37*
%TD*%
M02*
